<svg xmlns="http://www.w3.org/2000/svg" viewBox="0 0 1479.506 335.264"><defs><style>.cls-1{fill:#e35500;}.cls-2,.cls-3,.cls-4{fill:#efab1f;}.cls-3{opacity:0.7;}.cls-4{opacity:0.4;}.cls-5{fill:#fff;stroke:#000;}.cls-5,.cls-6{stroke-miterlimit:10;stroke-width:3px;}.cls-6{fill:none;stroke:#231f20;}.cls-7{fill:#231f20;}</style></defs><g id="Ebene_2" data-name="Ebene 2"><g id="Layer_1" data-name="Layer 1"><path d="M15.491,224.382V203.656h1.983v20.726Z"/><path d="M22.655,224.382V209.63h1.928v2.325a10.873,10.873,0,0,1,2.468-1.839,6.445,6.445,0,0,1,3.165-.773,4.349,4.349,0,0,1,3.288,1.149,4.476,4.476,0,0,1,1.1,3.226v10.664H32.677V214.074a3.3,3.3,0,0,0-.711-2.318A2.927,2.927,0,0,0,29.737,211a5.408,5.408,0,0,0-2.659.683,12.21,12.21,0,0,0-2.5,1.887v10.814Z"/><path d="M38.925,229.988V209.63h1.928v2.093a10.239,10.239,0,0,1,2.078-1.662,5.388,5.388,0,0,1,2.857-.718,5.994,5.994,0,0,1,2.379.479,5.222,5.222,0,0,1,1.928,1.417,6.954,6.954,0,0,1,1.285,2.381,12.168,12.168,0,0,1,0,6.754,6.707,6.707,0,0,1-1.313,2.377,5.32,5.32,0,0,1-1.982,1.406,6.462,6.462,0,0,1-2.475.471,5.452,5.452,0,0,1-2.6-.625,8.949,8.949,0,0,1-2.16-1.618v7.6Zm1.928-9.368a9.09,9.09,0,0,0,2.2,1.793,4.838,4.838,0,0,0,2.392.616,4.524,4.524,0,0,0,1.812-.356,3.65,3.65,0,0,0,1.415-1.082,5.323,5.323,0,0,0,.923-1.861,9.659,9.659,0,0,0,.335-2.71,9.151,9.151,0,0,0-.349-2.669,5.334,5.334,0,0,0-.971-1.882,3.986,3.986,0,0,0-1.428-1.109A4.2,4.2,0,0,0,45.446,211a4.606,4.606,0,0,0-2.447.657,10.555,10.555,0,0,0-2.146,1.779Z"/><path d="M55.386,220.294V209.63h1.927v10.323a3.354,3.354,0,0,0,.7,2.331,2.915,2.915,0,0,0,2.242.759,5.206,5.206,0,0,0,2.645-.705,13.625,13.625,0,0,0,2.482-1.879V209.63h1.928v14.752H65.38v-2.324a11.259,11.259,0,0,1-2.468,1.853,6.3,6.3,0,0,1-3.138.786,4.314,4.314,0,0,1-3.3-1.162A4.559,4.559,0,0,1,55.386,220.294Z"/><path d="M70.22,211.285V209.63H72.8v-5.291h1.927v5.291H78.56v1.655H74.731v9.266a2.909,2.909,0,0,0,.479,1.8,2.225,2.225,0,0,0,1.846.623h.827a2.466,2.466,0,0,0,.718-.1v1.532c-.228.036-.52.073-.875.109a10.346,10.346,0,0,1-1.039.055,4.242,4.242,0,0,1-3-.855,3.743,3.743,0,0,1-.882-2.782v-9.652Z"/><path d="M87.528,216.993a10.693,10.693,0,0,1,.478-3.362,6.752,6.752,0,0,1,1.318-2.385,5.39,5.39,0,0,1,1.987-1.425,6.322,6.322,0,0,1,2.459-.478,5.65,5.65,0,0,1,2.669.649,7.307,7.307,0,0,1,2.1,1.622v-7.958h1.928v17.09a20.768,20.768,0,0,0,.1,2.208,4.914,4.914,0,0,0,.341,1.428H98.874a6.525,6.525,0,0,1-.238-.991,6.949,6.949,0,0,1-.1-1.183,9.071,9.071,0,0,1-2.081,1.706,5.442,5.442,0,0,1-2.848.714,6.207,6.207,0,0,1-2.376-.459,5,5,0,0,1-1.932-1.412,7.085,7.085,0,0,1-1.291-2.385A10.721,10.721,0,0,1,87.528,216.993Zm1.928.027a8.922,8.922,0,0,0,.349,2.642,5.332,5.332,0,0,0,.966,1.861,3.879,3.879,0,0,0,1.43,1.1,4.282,4.282,0,0,0,1.733.355,4.663,4.663,0,0,0,2.458-.65,10.587,10.587,0,0,0,2.142-1.773v-7.172a9.5,9.5,0,0,0-2.2-1.806,4.76,4.76,0,0,0-2.4-.63,4.454,4.454,0,0,0-1.8.362,3.655,3.655,0,0,0-1.417,1.11,5.515,5.515,0,0,0-.925,1.9A9.721,9.721,0,0,0,89.456,217.02Z"/><path d="M104.044,220.927a4.2,4.2,0,0,1,.506-2.027,5,5,0,0,1,1.681-1.72,12.54,12.54,0,0,1,3.083-1.4,30.513,30.513,0,0,1,4.724-1.037v-.758a3.083,3.083,0,0,0-.765-2.292,3.043,3.043,0,0,0-2.224-.751A6.583,6.583,0,0,0,108,211.6a12.429,12.429,0,0,0-2.458,1.68l-1.047-1.212a11.821,11.821,0,0,1,2.94-1.975,8.811,8.811,0,0,1,3.789-.754,4.656,4.656,0,0,1,3.616,1.243,4.968,4.968,0,0,1,1.123,3.456v6.695a20.858,20.858,0,0,0,.1,2.213,5.706,5.706,0,0,0,.314,1.432h-1.994c-.092-.321-.172-.643-.24-.969a5.525,5.525,0,0,1-.1-1.148,9.237,9.237,0,0,1-2.709,1.773,8.051,8.051,0,0,1-3.1.59,4.461,4.461,0,0,1-3.083-.98A3.457,3.457,0,0,1,104.044,220.927Zm1.928-.245a2.149,2.149,0,0,0,.71,1.76,2.99,2.99,0,0,0,1.965.587,6.891,6.891,0,0,0,2.907-.614,9.136,9.136,0,0,0,2.484-1.706v-4.584a29.9,29.9,0,0,0-3.924.879,10.954,10.954,0,0,0-2.47,1.058,3.68,3.68,0,0,0-1.3,1.229A2.754,2.754,0,0,0,105.972,220.682Z"/><path d="M118.687,211.285V209.63h2.584v-5.291H123.2v5.291h3.828v1.655H123.2v9.266a2.9,2.9,0,0,0,.479,1.8,2.223,2.223,0,0,0,1.845.623h.828a2.459,2.459,0,0,0,.717-.1v1.532c-.227.036-.519.073-.875.109a10.315,10.315,0,0,1-1.039.055,4.246,4.246,0,0,1-3-.855,3.743,3.743,0,0,1-.881-2.782v-9.652Z"/><path d="M129.474,220.927a4.2,4.2,0,0,1,.506-2.027,5,5,0,0,1,1.681-1.72,12.523,12.523,0,0,1,3.083-1.4,30.513,30.513,0,0,1,4.724-1.037v-.758a3.083,3.083,0,0,0-.765-2.292,3.044,3.044,0,0,0-2.224-.751,6.583,6.583,0,0,0-3.046.661,12.429,12.429,0,0,0-2.458,1.68l-1.047-1.212a11.8,11.8,0,0,1,2.94-1.975,8.807,8.807,0,0,1,3.788-.754,4.656,4.656,0,0,1,3.616,1.243,4.963,4.963,0,0,1,1.124,3.456v6.695a21.168,21.168,0,0,0,.1,2.213,5.747,5.747,0,0,0,.315,1.432h-1.994c-.092-.321-.172-.643-.241-.969a5.6,5.6,0,0,1-.1-1.148,9.25,9.25,0,0,1-2.709,1.773,8.056,8.056,0,0,1-3.106.59,4.464,4.464,0,0,1-3.083-.98A3.46,3.46,0,0,1,129.474,220.927Zm1.927-.245a2.152,2.152,0,0,0,.71,1.76,2.991,2.991,0,0,0,1.965.587,6.884,6.884,0,0,0,2.907-.614,9.126,9.126,0,0,0,2.485-1.706v-4.584a29.86,29.86,0,0,0-3.924.879,10.985,10.985,0,0,0-2.471,1.058,3.688,3.688,0,0,0-1.3,1.229A2.754,2.754,0,0,0,131.4,220.682Z"/><path d="M131.625,138.446h-3a6.375,6.375,0,0,1,12.75,0h-3a3.375,3.375,0,0,0-6.75,0ZM84,135.071a3.379,3.379,0,0,1,3.375,3.375h3a6.375,6.375,0,0,0-12.75,0h3A3.379,3.379,0,0,1,84,135.071Zm-54,0a3.379,3.379,0,0,1,3.375,3.375h3a6.375,6.375,0,0,0-12.75,0h3A3.379,3.379,0,0,1,30,135.071Zm87,.375H105v-12h12Zm-3-9h-6v6h6Zm-51-4.5a6.376,6.376,0,1,1-6.375,6.375A6.382,6.382,0,0,1,63,121.945Zm-3.375,6.375A3.375,3.375,0,1,0,63,124.945,3.379,3.379,0,0,0,59.625,128.32Zm30-16.875A6.375,6.375,0,1,1,96,117.82,6.382,6.382,0,0,1,89.625,111.445Zm3,0A3.375,3.375,0,1,0,96,108.07,3.378,3.378,0,0,0,92.625,111.445ZM90,57.445v12H78.374V81.07h-12v-12H78V57.445ZM75.374,72.07h-6v6h6ZM87,60.445H81v6h6Zm39,39h12v12H126Zm3,9h6v-6h-6Zm-3-15H114v-12h12Zm-3-9h-6v6h6Zm-63,30H48v-12H60Zm-3-9H51v6h6Zm-42.375-18A6.375,6.375,0,1,1,21,93.82,6.382,6.382,0,0,1,14.625,87.445Zm3,0A3.375,3.375,0,1,0,21,84.07,3.378,3.378,0,0,0,17.625,87.445Z"/><polygon class="cls-1" points="141.375 138.446 138.375 138.446 131.625 138.446 128.625 138.446 90.375 138.446 87.375 138.446 80.625 138.446 77.625 138.446 36.375 138.446 33.375 138.446 26.625 138.446 23.625 138.446 0 138.446 0 153.446 155.999 153.446 155.999 138.446 141.375 138.446"/><rect class="cls-2" x="128.999" y="126.446" width="15" height="39" transform="translate(-9.447 282.445) rotate(-90)"/><rect class="cls-3" x="89.999" y="126.446" width="15" height="39" transform="translate(-48.446 243.445) rotate(-90)"/><rect class="cls-4" x="51" y="126.446" width="15" height="39" transform="translate(-87.446 204.445) rotate(-90)"/><path d="M627.242,205.474v-1.818h15.381v1.818h-6.7v18.908h-1.983V205.474Z"/><path d="M642.022,224.382V209.63h1.927v2.937H644a7.512,7.512,0,0,1,2.276-2.308,6.423,6.423,0,0,1,3.575-.916h.342l-.191,1.819h-.287a1.2,1.2,0,0,1-.192-.014.848.848,0,0,0-.109-.014,5.513,5.513,0,0,0-3.213.955,7,7,0,0,0-2.256,2.715v9.578Z"/><path d="M651.66,220.927a4.2,4.2,0,0,1,.506-2.027,5,5,0,0,1,1.682-1.72,12.506,12.506,0,0,1,3.083-1.4,30.471,30.471,0,0,1,4.723-1.037v-.758a3.087,3.087,0,0,0-.764-2.292,3.045,3.045,0,0,0-2.225-.751,6.586,6.586,0,0,0-3.046.661,12.458,12.458,0,0,0-2.458,1.68l-1.047-1.212a11.808,11.808,0,0,1,2.941-1.975,8.8,8.8,0,0,1,3.788-.754,4.656,4.656,0,0,1,3.616,1.243,4.968,4.968,0,0,1,1.123,3.456v6.695a20.858,20.858,0,0,0,.1,2.213,5.75,5.75,0,0,0,.314,1.432H662c-.092-.321-.172-.643-.24-.969a5.525,5.525,0,0,1-.1-1.148,9.224,9.224,0,0,1-2.709,1.773,8.051,8.051,0,0,1-3.105.59,4.463,4.463,0,0,1-3.083-.98A3.457,3.457,0,0,1,651.66,220.927Zm1.928-.245a2.149,2.149,0,0,0,.71,1.76,2.991,2.991,0,0,0,1.965.587,6.887,6.887,0,0,0,2.907-.614,9.106,9.106,0,0,0,2.484-1.706v-4.584a29.9,29.9,0,0,0-3.924.879,10.954,10.954,0,0,0-2.47,1.058,3.688,3.688,0,0,0-1.3,1.229A2.754,2.754,0,0,0,653.588,220.682Z"/><path d="M667.984,206.212v-2.078h2.051v2.078Zm.055,18.17V209.63h1.928v14.752Z"/><path d="M674.6,224.382V209.63h1.927v2.325A10.9,10.9,0,0,1,679,210.116a6.447,6.447,0,0,1,3.165-.773,4.349,4.349,0,0,1,3.288,1.149,4.472,4.472,0,0,1,1.1,3.226v10.664h-1.928V214.074a3.29,3.29,0,0,0-.711-2.318,2.926,2.926,0,0,0-2.228-.758,5.412,5.412,0,0,0-2.66.683,12.21,12.21,0,0,0-2.5,1.887v10.814Z"/><path d="M697.2,224.382V209.63h1.928v2.325a12.346,12.346,0,0,1,2.427-1.853,5.8,5.8,0,0,1,2.973-.759,4.4,4.4,0,0,1,2.8.745,3.685,3.685,0,0,1,1.248,1.921,13.827,13.827,0,0,1,2.553-1.88,6.011,6.011,0,0,1,3.033-.786,4.051,4.051,0,0,1,3.264,1.176,4.807,4.807,0,0,1,.992,3.2v10.664h-1.928V214.074a3.7,3.7,0,0,0-.6-2.318,2.651,2.651,0,0,0-2.178-.758,4.864,4.864,0,0,0-2.507.683,13.448,13.448,0,0,0-2.424,1.887v10.814h-1.927V214.074a3.7,3.7,0,0,0-.6-2.318,2.661,2.661,0,0,0-2.188-.758,4.869,4.869,0,0,0-2.515.683,13.432,13.432,0,0,0-2.42,1.887v10.814Z"/><path d="M721.92,217.013a9.36,9.36,0,0,1,.532-3.274,7.165,7.165,0,0,1,1.442-2.406,6.006,6.006,0,0,1,2.13-1.484,6.707,6.707,0,0,1,2.588-.506,6.619,6.619,0,0,1,2.56.506,6.052,6.052,0,0,1,2.128,1.484,7.151,7.151,0,0,1,1.443,2.406,10.325,10.325,0,0,1,0,6.555A7.245,7.245,0,0,1,733.3,222.7a6.017,6.017,0,0,1-2.128,1.49,6.729,6.729,0,0,1-5.12,0,6.107,6.107,0,0,1-2.145-1.49,7.138,7.138,0,0,1-1.455-2.407A9.349,9.349,0,0,1,721.92,217.013Zm1.928-.027a8.877,8.877,0,0,0,.294,2.324,5.765,5.765,0,0,0,.9,1.921,4.511,4.511,0,0,0,1.5,1.319,4.614,4.614,0,0,0,4.067.041,4.429,4.429,0,0,0,1.485-1.251,5.706,5.706,0,0,0,.938-1.9,8.748,8.748,0,0,0,.322-2.454,8.371,8.371,0,0,0-.308-2.29,6.02,6.02,0,0,0-.9-1.9,4.5,4.5,0,0,0-1.472-1.3,4.167,4.167,0,0,0-2.061-.492,4.343,4.343,0,0,0-2.006.451,4.45,4.45,0,0,0-1.5,1.244,5.613,5.613,0,0,0-.938,1.9A8.567,8.567,0,0,0,723.848,216.986Z"/><path d="M738.107,216.993a10.693,10.693,0,0,1,.478-3.362,6.752,6.752,0,0,1,1.318-2.385,5.39,5.39,0,0,1,1.987-1.425,6.322,6.322,0,0,1,2.459-.478,5.656,5.656,0,0,1,2.67.649,7.316,7.316,0,0,1,2.094,1.622v-7.958h1.928v17.09a20.768,20.768,0,0,0,.1,2.208,4.88,4.88,0,0,0,.342,1.428h-2.026a6.525,6.525,0,0,1-.238-.991,6.949,6.949,0,0,1-.1-1.183,9.049,9.049,0,0,1-2.081,1.706,5.442,5.442,0,0,1-2.848.714,6.207,6.207,0,0,1-2.376-.459,5.01,5.01,0,0,1-1.932-1.412,7.085,7.085,0,0,1-1.291-2.385A10.721,10.721,0,0,1,738.107,216.993Zm1.928.027a8.922,8.922,0,0,0,.349,2.642,5.332,5.332,0,0,0,.966,1.861,3.879,3.879,0,0,0,1.43,1.1,4.282,4.282,0,0,0,1.733.355,4.66,4.66,0,0,0,2.458-.65,10.56,10.56,0,0,0,2.142-1.773v-7.172a9.5,9.5,0,0,0-2.2-1.806,4.76,4.76,0,0,0-2.4-.63,4.454,4.454,0,0,0-1.8.362,3.663,3.663,0,0,0-1.417,1.11,5.515,5.515,0,0,0-.925,1.9A9.759,9.759,0,0,0,740.035,217.02Z"/><path d="M754.678,216.986a9.158,9.158,0,0,1,.574-3.4,7,7,0,0,1,1.5-2.379,6.207,6.207,0,0,1,2.071-1.4,6.112,6.112,0,0,1,2.318-.465,5.807,5.807,0,0,1,2.4.492,5.222,5.222,0,0,1,1.9,1.457,7.142,7.142,0,0,1,1.265,2.406,10.8,10.8,0,0,1,.465,3.315v.369H756.605a7.235,7.235,0,0,0,.376,2.432,5.544,5.544,0,0,0,1,1.786,4.25,4.25,0,0,0,3.268,1.5,4.8,4.8,0,0,0,2.7-.693,6.742,6.742,0,0,0,1.894-2.013l1.2.961a7.746,7.746,0,0,1-2.4,2.447,6.445,6.445,0,0,1-3.52.9,6.313,6.313,0,0,1-2.461-.492,5.673,5.673,0,0,1-2.055-1.477,7.487,7.487,0,0,1-1.408-2.406A9.572,9.572,0,0,1,754.678,216.986Zm1.955-1.149h8.654a9.346,9.346,0,0,0-.376-1.931,4.945,4.945,0,0,0-.793-1.568,3.49,3.49,0,0,0-1.271-1.031,3.98,3.98,0,0,0-1.743-.364,4.115,4.115,0,0,0-1.545.3,4,4,0,0,0-1.347.9,5.1,5.1,0,0,0-1.025,1.52A7.045,7.045,0,0,0,756.633,215.837Z"/><path d="M770.975,224.382V203.656H772.9v20.726Z"/><path d="M715.8,127.539h12v-12h-12Zm3-9h6v6h-6Zm15,9h12v-12h-12Zm3-9h6v6h-6Zm-21-9h12v-12h-12Zm3-9h6v6h-6Zm33,9h12v-12h-12Zm3-9h6v6h-6Zm-21,9h12v-12h-12Zm3-9h6v6h-6Zm15,27h12v-12h-12Zm3-9h6v6h-6Zm-75-21.375a6.375,6.375,0,1,0,6.375,6.375A6.382,6.382,0,0,0,679.8,97.164Zm0,9.75a3.375,3.375,0,1,1,3.375-3.375A3.379,3.379,0,0,1,679.8,106.914Zm-18,8.25a6.375,6.375,0,1,0,6.375,6.375A6.382,6.382,0,0,0,661.8,115.164Zm0,9.75a3.375,3.375,0,1,1,3.375-3.375A3.379,3.379,0,0,1,661.8,124.914Zm0-27.75a6.375,6.375,0,1,0,6.375,6.375A6.382,6.382,0,0,0,661.8,97.164Zm0,9.75a3.375,3.375,0,1,1,3.375-3.375A3.379,3.379,0,0,1,661.8,106.914Zm-18-9.75a6.375,6.375,0,1,0,6.375,6.375A6.382,6.382,0,0,0,643.8,97.164Zm0,9.75a3.375,3.375,0,1,1,3.375-3.375A3.379,3.379,0,0,1,643.8,106.914Zm36,8.25a6.375,6.375,0,1,0,6.375,6.375A6.382,6.382,0,0,0,679.8,115.164Zm0,9.75a3.375,3.375,0,1,1,3.375-3.375A3.379,3.379,0,0,1,679.8,124.914Zm-36-9.75a6.375,6.375,0,1,0,6.375,6.375A6.382,6.382,0,0,0,643.8,115.164Zm0,9.75a3.375,3.375,0,1,1,3.375-3.375A3.379,3.379,0,0,1,643.8,124.914Z"/><path d="M715.8,91.689h12v-12h-12Zm3-9h6v6h-6Zm15,9h12v-12h-12Zm3-9h6v6h-6Zm-21-9h12v-12h-12Zm3-9h6v6h-6Zm33,9h12v-12h-12Zm3-9h6v6h-6Zm-21,9h12v-12h-12Zm3-9h6v6h-6Zm15,27h12v-12h-12Zm3-9h6v6h-6Zm-75-21.375a6.375,6.375,0,1,0,6.375,6.375A6.383,6.383,0,0,0,679.8,61.314Zm0,9.75a3.375,3.375,0,1,1,3.375-3.375A3.378,3.378,0,0,1,679.8,71.064Zm-18,8.25a6.375,6.375,0,1,0,6.375,6.375A6.383,6.383,0,0,0,661.8,79.314Zm0,9.75a3.375,3.375,0,1,1,3.375-3.375A3.378,3.378,0,0,1,661.8,89.064Zm0-27.75a6.375,6.375,0,1,0,6.375,6.375A6.383,6.383,0,0,0,661.8,61.314Zm0,9.75a3.375,3.375,0,1,1,3.375-3.375A3.378,3.378,0,0,1,661.8,71.064Zm-18-9.75a6.375,6.375,0,1,0,6.375,6.375A6.383,6.383,0,0,0,643.8,61.314Zm0,9.75a3.375,3.375,0,1,1,3.375-3.375A3.378,3.378,0,0,1,643.8,71.064Zm36,8.25a6.375,6.375,0,1,0,6.375,6.375A6.383,6.383,0,0,0,679.8,79.314Zm0,9.75a3.375,3.375,0,1,1,3.375-3.375A3.378,3.378,0,0,1,679.8,89.064Zm-36-9.75a6.375,6.375,0,1,0,6.375,6.375A6.383,6.383,0,0,0,643.8,79.314Zm0,9.75a3.375,3.375,0,1,1,3.375-3.375A3.378,3.378,0,0,1,643.8,89.064Z"/><polygon class="cls-1" points="764.172 134.577 761.172 134.577 754.422 134.577 751.422 134.577 713.172 134.577 710.172 134.577 703.422 134.577 700.422 134.577 659.172 134.577 656.172 134.577 649.422 134.577 646.422 134.577 622.797 134.577 622.797 149.576 778.796 149.576 778.796 134.577 764.172 134.577"/><rect class="cls-2" x="751.796" y="122.577" width="15" height="39" transform="translate(617.22 901.373) rotate(-90)"/><rect class="cls-3" x="712.797" y="122.577" width="15" height="39" transform="translate(578.22 862.373) rotate(-90)"/><rect class="cls-4" x="673.797" y="122.577" width="15" height="39" transform="translate(539.22 823.373) rotate(-90)"/><rect class="cls-5" x="786.557" y="293.578" width="156.279" height="40.186"/><path d="M801.813,322.537V301.81h6.918a8.608,8.608,0,0,1,5.343,1.427,4.947,4.947,0,0,1,1.849,4.172,5.165,5.165,0,0,1-1.358,3.853,6.783,6.783,0,0,1-3.6,1.759l5.24,9.516h-2.242l-5.066-9.3h-5.161v9.3Zm1.928-11.061h4.847a11.854,11.854,0,0,0,2.286-.2,4.618,4.618,0,0,0,1.684-.658,2.881,2.881,0,0,0,1.034-1.233,4.607,4.607,0,0,0,.348-1.9,3.253,3.253,0,0,0-1.382-2.992,7.54,7.54,0,0,0-4-.871h-4.82Z"/><path d="M818.493,315.14a9.173,9.173,0,0,1,.574-3.4,6.991,6.991,0,0,1,1.5-2.379,6.214,6.214,0,0,1,2.072-1.4,6.106,6.106,0,0,1,2.317-.464,5.807,5.807,0,0,1,2.4.492,5.2,5.2,0,0,1,1.9,1.456,7.141,7.141,0,0,1,1.264,2.406,10.8,10.8,0,0,1,.465,3.316v.369H820.421a7.229,7.229,0,0,0,.376,2.431,5.544,5.544,0,0,0,1,1.786,4.241,4.241,0,0,0,3.267,1.5,4.806,4.806,0,0,0,2.7-.693,6.727,6.727,0,0,0,1.893-2.013l1.2.961a7.757,7.757,0,0,1-2.4,2.448,6.457,6.457,0,0,1-3.521.9,6.32,6.32,0,0,1-2.461-.492,5.646,5.646,0,0,1-2.054-1.477,7.489,7.489,0,0,1-1.409-2.406A9.568,9.568,0,0,1,818.493,315.14Zm1.955-1.148H829.1a9.489,9.489,0,0,0-.376-1.932,4.97,4.97,0,0,0-.793-1.567,3.5,3.5,0,0,0-1.272-1.032,3.98,3.98,0,0,0-1.743-.364,4.119,4.119,0,0,0-1.545.3,4.018,4.018,0,0,0-1.347.9,5.115,5.115,0,0,0-1.025,1.52A7.073,7.073,0,0,0,820.448,313.992Z"/><path d="M833.054,309.439v-1.654h2.584v-5.291h1.927v5.291h3.829v1.654h-3.829v9.267a2.906,2.906,0,0,0,.479,1.8,2.225,2.225,0,0,0,1.846.623h.827a2.5,2.5,0,0,0,.718-.095v1.531c-.228.036-.52.073-.875.109a10.346,10.346,0,0,1-1.039.055,4.247,4.247,0,0,1-3-.854,3.748,3.748,0,0,1-.882-2.783v-9.652Z"/><path d="M844.853,322.537V307.785h1.927v2.936h.055a7.5,7.5,0,0,1,2.276-2.307,6.416,6.416,0,0,1,3.576-.916h.341l-.191,1.818h-.287a1.2,1.2,0,0,1-.192-.014.789.789,0,0,0-.109-.013,5.506,5.506,0,0,0-3.213.955,6.988,6.988,0,0,0-2.256,2.715v9.578Z"/><path d="M854.491,319.082a4.2,4.2,0,0,1,.506-2.028,5.007,5.007,0,0,1,1.682-1.72,12.506,12.506,0,0,1,3.083-1.4,30.471,30.471,0,0,1,4.723-1.037v-.758a3.087,3.087,0,0,0-.764-2.292,3.045,3.045,0,0,0-2.225-.751,6.586,6.586,0,0,0-3.046.661,12.5,12.5,0,0,0-2.458,1.68l-1.047-1.212a11.835,11.835,0,0,1,2.941-1.975,8.818,8.818,0,0,1,3.788-.753,4.656,4.656,0,0,1,3.616,1.243,4.963,4.963,0,0,1,1.123,3.455v6.695a20.845,20.845,0,0,0,.1,2.213,5.759,5.759,0,0,0,.314,1.433h-1.994c-.092-.322-.172-.644-.24-.97a5.587,5.587,0,0,1-.1-1.148,9.2,9.2,0,0,1-2.709,1.773,8.051,8.051,0,0,1-3.1.591,4.458,4.458,0,0,1-3.083-.981A3.455,3.455,0,0,1,854.491,319.082Zm1.928-.246a2.147,2.147,0,0,0,.71,1.76,2.991,2.991,0,0,0,1.965.587,6.887,6.887,0,0,0,2.907-.614,9.1,9.1,0,0,0,2.484-1.705v-4.585a29.823,29.823,0,0,0-3.923.88,10.9,10.9,0,0,0-2.471,1.057,3.688,3.688,0,0,0-1.3,1.229A2.754,2.754,0,0,0,856.419,318.836Z"/><path d="M870.815,304.367v-2.078h2.051v2.078Zm.055,18.17V307.785H872.8v14.752Z"/><path d="M877.433,322.537V307.785h1.927v2.324a10.925,10.925,0,0,1,2.468-1.839,6.447,6.447,0,0,1,3.165-.772,4.349,4.349,0,0,1,3.288,1.148,4.475,4.475,0,0,1,1.1,3.227v10.664h-1.928V312.228a3.287,3.287,0,0,0-.711-2.317,2.921,2.921,0,0,0-2.228-.759,5.412,5.412,0,0,0-2.66.683,12.246,12.246,0,0,0-2.5,1.887v10.815Z"/><path d="M893.812,304.367v-2.078h2.05v2.078Zm.054,18.17V307.785h1.928v14.752Z"/><path d="M900.429,322.537V307.785h1.927v2.324a10.925,10.925,0,0,1,2.468-1.839,6.447,6.447,0,0,1,3.165-.772,4.349,4.349,0,0,1,3.288,1.148,4.475,4.475,0,0,1,1.1,3.227v10.664H910.45V312.228a3.287,3.287,0,0,0-.711-2.317,2.921,2.921,0,0,0-2.228-.759,5.408,5.408,0,0,0-2.659.683,12.223,12.223,0,0,0-2.5,1.887v10.815Z"/><path d="M915.044,324.471a2.98,2.98,0,0,1,.725-2,4.832,4.832,0,0,1,2.023-1.343,1.9,1.9,0,0,1-1.285-1.881,1.847,1.847,0,0,1,.48-1.228,4.188,4.188,0,0,1,1.284-.969,4.782,4.782,0,0,1-1.655-1.77,5.454,5.454,0,0,1-.143-4.621,5.042,5.042,0,0,1,1.216-1.675,5.657,5.657,0,0,1,1.839-1.094,7.091,7.091,0,0,1,4.673,0,5.5,5.5,0,0,1,1.844,1.121,6.973,6.973,0,0,1,1.568-.854,7.24,7.24,0,0,1,1.827-.486V309.6a8.944,8.944,0,0,0-1.342.107,5.762,5.762,0,0,0-1.344.377,4.608,4.608,0,0,1,.854,2.788,5.015,5.015,0,0,1-.448,2.149,4.932,4.932,0,0,1-1.215,1.636,5.27,5.27,0,0,1-1.819,1.034,7,7,0,0,1-2.273.358,6.631,6.631,0,0,1-2.379-.41,2.688,2.688,0,0,0-.855.526.973.973,0,0,0-.321.729.786.786,0,0,0,.459.728,5.453,5.453,0,0,0,1.72.4l3.221.246a8.142,8.142,0,0,1,3.869,1.114,2.979,2.979,0,0,1,1.313,2.625,3.259,3.259,0,0,1-.5,1.792,4.03,4.03,0,0,1-1.4,1.312,7.536,7.536,0,0,1-2.144.8,12.673,12.673,0,0,1-2.765.281,10.845,10.845,0,0,1-5.325-1A3.05,3.05,0,0,1,915.044,324.471Zm1.873-.24a1.954,1.954,0,0,0,1.278,1.8,9.833,9.833,0,0,0,4.068.625,7.668,7.668,0,0,0,3.541-.679,2.024,2.024,0,0,0,1.285-1.792,1.75,1.75,0,0,0-.917-1.6,7.581,7.581,0,0,0-3.092-.706l-2.921-.239-.781-.083a3.848,3.848,0,0,0-1.859,1.116A2.385,2.385,0,0,0,916.917,324.231Zm.984-11.388a3.553,3.553,0,0,0,1.08,2.721,4.657,4.657,0,0,0,5.777.016,3.5,3.5,0,0,0,1.059-2.679,3.816,3.816,0,0,0-1.032-2.824,4.631,4.631,0,0,0-5.831,0A3.7,3.7,0,0,0,917.9,312.843Z"/><rect class="cls-5" x="1257.551" y="195.407" width="220.455" height="40.186"/><path d="M1272.356,224.367V203.64h2.6l6.94,18.156h.054l6.885-18.156h2.624v20.727h-1.982V207h-.055q-.233.7-.567,1.668t-.717,1.969l-5.382,13.727h-1.816l-5.369-13.727q-.192-.492-.348-.93c-.105-.292-.207-.576-.308-.854s-.2-.572-.307-.882-.211-.651-.321-1.025h-.054v17.418Z"/><path d="M1295.476,217a9.338,9.338,0,0,1,.532-3.275,7.163,7.163,0,0,1,1.441-2.406,6.016,6.016,0,0,1,2.131-1.483,6.707,6.707,0,0,1,2.588-.506,6.619,6.619,0,0,1,2.56.506,6.037,6.037,0,0,1,2.127,1.483,7.153,7.153,0,0,1,1.444,2.406,10.328,10.328,0,0,1,0,6.556,7.243,7.243,0,0,1-1.444,2.406,6,6,0,0,1-2.127,1.49,6.731,6.731,0,0,1-5.121,0,6.1,6.1,0,0,1-2.144-1.49,7.118,7.118,0,0,1-1.455-2.406A9.326,9.326,0,0,1,1295.476,217Zm1.927-.028a8.914,8.914,0,0,0,.294,2.324,5.757,5.757,0,0,0,.9,1.921,4.514,4.514,0,0,0,1.5,1.32,4.621,4.621,0,0,0,4.066.041,4.466,4.466,0,0,0,1.486-1.251,5.7,5.7,0,0,0,.938-1.9,8.745,8.745,0,0,0,.321-2.454,8.376,8.376,0,0,0-.307-2.29,6,6,0,0,0-.9-1.9,4.5,4.5,0,0,0-1.471-1.306,4.167,4.167,0,0,0-2.061-.492,4.343,4.343,0,0,0-2.006.451,4.431,4.431,0,0,0-1.5,1.244,5.6,5.6,0,0,0-.938,1.9A8.559,8.559,0,0,0,1297.4,216.97Z"/><path d="M1311.663,216.977a10.662,10.662,0,0,1,.478-3.361,6.75,6.75,0,0,1,1.318-2.386,5.406,5.406,0,0,1,1.986-1.425,6.343,6.343,0,0,1,2.459-.477,5.653,5.653,0,0,1,2.67.648,7.343,7.343,0,0,1,2.1,1.622V203.64h1.928v17.09a21.063,21.063,0,0,0,.1,2.208,4.952,4.952,0,0,0,.342,1.429h-2.025a6.585,6.585,0,0,1-.238-.991,6.97,6.97,0,0,1-.1-1.184,9.071,9.071,0,0,1-2.081,1.706,5.434,5.434,0,0,1-2.849.715,6.226,6.226,0,0,1-2.376-.459,5.027,5.027,0,0,1-1.931-1.412,7.1,7.1,0,0,1-1.291-2.386A10.692,10.692,0,0,1,1311.663,216.977Zm1.928.027a8.957,8.957,0,0,0,.348,2.642,5.366,5.366,0,0,0,.966,1.861,3.861,3.861,0,0,0,1.431,1.1,4.282,4.282,0,0,0,1.732.356,4.649,4.649,0,0,0,2.458-.651,10.524,10.524,0,0,0,2.143-1.772v-7.172a9.523,9.523,0,0,0-2.2-1.807,4.764,4.764,0,0,0-2.4-.63,4.433,4.433,0,0,0-1.8.363,3.653,3.653,0,0,0-1.417,1.109,5.506,5.506,0,0,0-.925,1.9A9.721,9.721,0,0,0,1313.591,217Z"/><path d="M1328.233,216.97a9.156,9.156,0,0,1,.575-3.4,6.961,6.961,0,0,1,1.5-2.379,6.193,6.193,0,0,1,2.071-1.4,6.092,6.092,0,0,1,2.317-.465,5.815,5.815,0,0,1,2.4.492,5.208,5.208,0,0,1,1.9,1.456,7.16,7.16,0,0,1,1.265,2.406,10.84,10.84,0,0,1,.465,3.316v.369h-10.569a7.229,7.229,0,0,0,.376,2.431,5.544,5.544,0,0,0,1,1.786,4.246,4.246,0,0,0,3.268,1.5,4.8,4.8,0,0,0,2.7-.694,6.735,6.735,0,0,0,1.893-2.012l1.2.96a7.757,7.757,0,0,1-2.4,2.448,6.453,6.453,0,0,1-3.52.9,6.313,6.313,0,0,1-2.461-.492,5.641,5.641,0,0,1-2.055-1.477,7.469,7.469,0,0,1-1.408-2.406A9.544,9.544,0,0,1,1328.233,216.97Zm1.955-1.148h8.655a9.489,9.489,0,0,0-.376-1.932,4.96,4.96,0,0,0-.793-1.567,3.483,3.483,0,0,0-1.272-1.031,3.963,3.963,0,0,0-1.743-.365,4.119,4.119,0,0,0-1.545.3,3.993,3.993,0,0,0-1.346.9,5.1,5.1,0,0,0-1.026,1.519A7.073,7.073,0,0,0,1330.188,215.822Z"/><path d="M1344.53,224.367V203.64h1.928v20.727Z"/><path d="M1355.769,226.3a2.984,2.984,0,0,1,.724-2,4.845,4.845,0,0,1,2.024-1.343,1.894,1.894,0,0,1-1.286-1.88,1.848,1.848,0,0,1,.481-1.229,4.183,4.183,0,0,1,1.283-.969,4.771,4.771,0,0,1-1.654-1.77,5.459,5.459,0,0,1-.144-4.621,5.031,5.031,0,0,1,1.217-1.675,5.657,5.657,0,0,1,1.839-1.094,6.6,6.6,0,0,1,2.324-.4,6.671,6.671,0,0,1,2.349.4,5.5,5.5,0,0,1,1.844,1.121,6.951,6.951,0,0,1,1.568-.854,7.229,7.229,0,0,1,1.827-.486v1.928a8.833,8.833,0,0,0-1.343.108,5.658,5.658,0,0,0-1.343.377,4.6,4.6,0,0,1,.854,2.787,5.015,5.015,0,0,1-.448,2.149,4.922,4.922,0,0,1-1.215,1.636,5.279,5.279,0,0,1-1.819,1.034,7.007,7.007,0,0,1-2.274.358,6.638,6.638,0,0,1-2.379-.41,2.712,2.712,0,0,0-.854.526.974.974,0,0,0-.322.729.787.787,0,0,0,.459.728,5.453,5.453,0,0,0,1.72.4l3.222.246a8.142,8.142,0,0,1,3.869,1.114,2.979,2.979,0,0,1,1.313,2.625,3.259,3.259,0,0,1-.5,1.792,4.03,4.03,0,0,1-1.4,1.312,7.517,7.517,0,0,1-2.144.8,12.673,12.673,0,0,1-2.765.281,10.843,10.843,0,0,1-5.325-1A3.05,3.05,0,0,1,1355.769,226.3Zm1.873-.24a1.953,1.953,0,0,0,1.278,1.8,9.827,9.827,0,0,0,4.067.625,7.665,7.665,0,0,0,3.541-.679,2.022,2.022,0,0,0,1.285-1.792,1.749,1.749,0,0,0-.916-1.6,7.585,7.585,0,0,0-3.092-.706l-2.921-.239-.781-.083a3.856,3.856,0,0,0-1.86,1.116A2.391,2.391,0,0,0,1357.642,226.061Zm.984-11.388a3.55,3.55,0,0,0,1.08,2.721,4.656,4.656,0,0,0,5.776.016,3.5,3.5,0,0,0,1.06-2.679,3.82,3.82,0,0,0-1.032-2.824,4.631,4.631,0,0,0-5.831,0A3.7,3.7,0,0,0,1358.626,214.673Z"/><path d="M1371.819,217a9.338,9.338,0,0,1,.533-3.275,7.163,7.163,0,0,1,1.441-2.406,6,6,0,0,1,2.131-1.483,6.7,6.7,0,0,1,2.588-.506,6.614,6.614,0,0,1,2.559.506,6.031,6.031,0,0,1,2.128,1.483,7.153,7.153,0,0,1,1.444,2.406,10.328,10.328,0,0,1,0,6.556,7.243,7.243,0,0,1-1.444,2.406,6,6,0,0,1-2.128,1.49,6.729,6.729,0,0,1-5.12,0,6.1,6.1,0,0,1-2.144-1.49,7.1,7.1,0,0,1-1.455-2.406A9.325,9.325,0,0,1,1371.819,217Zm1.928-.028a8.914,8.914,0,0,0,.294,2.324,5.755,5.755,0,0,0,.9,1.921,4.527,4.527,0,0,0,1.5,1.32,4.621,4.621,0,0,0,4.066.041,4.453,4.453,0,0,0,1.485-1.251,5.7,5.7,0,0,0,.939-1.9,8.745,8.745,0,0,0,.321-2.454,8.338,8.338,0,0,0-.308-2.29,6,6,0,0,0-.9-1.9,4.5,4.5,0,0,0-1.472-1.306,4.163,4.163,0,0,0-2.06-.492,4.343,4.343,0,0,0-2.006.451,4.431,4.431,0,0,0-1.5,1.244,5.62,5.62,0,0,0-.939,1.9A8.6,8.6,0,0,0,1373.747,216.97Z"/><path d="M1387.98,216.97a9.156,9.156,0,0,1,.574-3.4,6.991,6.991,0,0,1,1.5-2.379,6.193,6.193,0,0,1,2.071-1.4,6.092,6.092,0,0,1,2.317-.465,5.812,5.812,0,0,1,2.4.492,5.208,5.208,0,0,1,1.9,1.456,7.16,7.16,0,0,1,1.265,2.406,10.84,10.84,0,0,1,.465,3.316v.369h-10.569a7.229,7.229,0,0,0,.376,2.431,5.544,5.544,0,0,0,1.005,1.786,4.246,4.246,0,0,0,3.268,1.5,4.8,4.8,0,0,0,2.7-.694,6.735,6.735,0,0,0,1.893-2.012l1.2.96a7.76,7.76,0,0,1-2.4,2.448,6.453,6.453,0,0,1-3.52.9,6.313,6.313,0,0,1-2.461-.492,5.649,5.649,0,0,1-2.055-1.477,7.469,7.469,0,0,1-1.408-2.406A9.545,9.545,0,0,1,1387.98,216.97Zm1.955-1.148h8.654a9.489,9.489,0,0,0-.376-1.932,4.96,4.96,0,0,0-.793-1.567,3.483,3.483,0,0,0-1.272-1.031,3.96,3.96,0,0,0-1.743-.365,4.122,4.122,0,0,0-1.545.3,3.993,3.993,0,0,0-1.346.9,5.1,5.1,0,0,0-1.026,1.519A7.045,7.045,0,0,0,1389.935,215.822Z"/><path d="M1402.8,222.028l1.23-1.122a6.57,6.57,0,0,0,1.949,1.559,5.636,5.636,0,0,0,2.645.576,5.093,5.093,0,0,0,2.871-.665,2.189,2.189,0,0,0,.971-1.926,2.031,2.031,0,0,0-.957-1.824,10.492,10.492,0,0,0-3.1-1.125c-.818-.253-1.555-.484-2.213-.688a5.214,5.214,0,0,1-1.629-.8,3.185,3.185,0,0,1-.963-1.161,3.8,3.8,0,0,1-.322-1.652,3.42,3.42,0,0,1,.335-1.485,3.635,3.635,0,0,1,.978-1.238,4.814,4.814,0,0,1,1.565-.842,6.726,6.726,0,0,1,2.126-.307,7.837,7.837,0,0,1,3.2.574,7.524,7.524,0,0,1,2.27,1.559l-1.094,1.287a6.536,6.536,0,0,0-1.9-1.328,5.664,5.664,0,0,0-2.406-.493,5.177,5.177,0,0,0-1.477.182,2.852,2.852,0,0,0-.977.485,1.99,1.99,0,0,0-.561.687,1.83,1.83,0,0,0-.185.8,1.788,1.788,0,0,0,.832,1.595,8.969,8.969,0,0,0,2.771.99l2.416.737a5.529,5.529,0,0,1,1.768.869,3.455,3.455,0,0,1,1.056,1.289,4.421,4.421,0,0,1,.345,1.863,3.611,3.611,0,0,1-.438,1.793,4.081,4.081,0,0,1-1.189,1.33,5.321,5.321,0,0,1-1.805.819,9.235,9.235,0,0,1-2.31.272,7.729,7.729,0,0,1-3.466-.734A6.331,6.331,0,0,1,1402.8,222.028Z"/><path d="M1424.5,224.367V203.64h1.928v20.727Z"/><path d="M1431.169,206.2v-2.078h2.051V206.2Zm.055,18.17V209.615h1.927v14.752Z"/><path d="M1436.269,209.615h2.078l4.361,12.455h.055l4.347-12.455h1.955l-5.427,14.806h-1.928Z"/><path d="M1450.487,216.97a9.156,9.156,0,0,1,.575-3.4,6.974,6.974,0,0,1,1.5-2.379,6.206,6.206,0,0,1,2.072-1.4,6.088,6.088,0,0,1,2.317-.465,5.815,5.815,0,0,1,2.4.492,5.208,5.208,0,0,1,1.9,1.456,7.16,7.16,0,0,1,1.265,2.406,10.841,10.841,0,0,1,.464,3.316v.369h-10.568a7.229,7.229,0,0,0,.376,2.431,5.544,5.544,0,0,0,1.005,1.786,4.246,4.246,0,0,0,3.267,1.5,4.806,4.806,0,0,0,2.7-.694,6.735,6.735,0,0,0,1.893-2.012l1.2.96a7.757,7.757,0,0,1-2.4,2.448,6.454,6.454,0,0,1-3.521.9,6.311,6.311,0,0,1-2.46-.492,5.641,5.641,0,0,1-2.055-1.477,7.469,7.469,0,0,1-1.408-2.406A9.544,9.544,0,0,1,1450.487,216.97Zm1.955-1.148h8.655a9.489,9.489,0,0,0-.376-1.932,4.96,4.96,0,0,0-.793-1.567,3.483,3.483,0,0,0-1.272-1.031,3.966,3.966,0,0,0-1.743-.365,4.119,4.119,0,0,0-1.545.3,3.993,3.993,0,0,0-1.346.9,5.08,5.08,0,0,0-1.026,1.519A7.073,7.073,0,0,0,1452.442,215.822Z"/><line class="cls-6" x1="175.657" y1="215.157" x2="256.47" y2="215.157"/><polygon class="cls-7" points="254.282 222.636 267.234 215.157 254.282 207.677 254.282 222.636"/><line class="cls-6" x1="512.214" y1="215.157" x2="593.028" y2="215.157"/><polygon class="cls-7" points="590.839 222.636 603.792 215.157 590.839 207.677 590.839 222.636"/><line class="cls-6" x1="797.19" y1="215.157" x2="878.004" y2="215.157"/><polygon class="cls-7" points="875.815 222.636 888.768 215.157 875.815 207.677 875.815 222.636"/><line class="cls-6" x1="1138.772" y1="215.157" x2="1219.585" y2="215.157"/><polygon class="cls-7" points="1217.397 222.636 1230.348 215.157 1217.397 207.677 1217.397 222.636"/><path d="M297.4,224.382V203.656h5.237q5.085,0,7.69,2.582t2.6,7.72q0,5.171-2.632,7.8t-7.663,2.627Zm1.983-1.818h3.555a8.1,8.1,0,0,0,5.926-2.046q2.085-2.044,2.085-6.56,0-4.392-2.1-6.438a8.2,8.2,0,0,0-5.968-2.046h-3.5Z"/><path d="M315.706,216.986a9.158,9.158,0,0,1,.574-3.4,7,7,0,0,1,1.5-2.379,6.218,6.218,0,0,1,2.071-1.4,6.116,6.116,0,0,1,2.318-.465,5.807,5.807,0,0,1,2.4.492,5.225,5.225,0,0,1,1.9,1.457,7.141,7.141,0,0,1,1.264,2.406,10.8,10.8,0,0,1,.465,3.315v.369H317.634a7.235,7.235,0,0,0,.376,2.432,5.544,5.544,0,0,0,1,1.786,4.245,4.245,0,0,0,3.267,1.5,4.8,4.8,0,0,0,2.7-.693,6.717,6.717,0,0,0,1.894-2.013l1.2.961a7.753,7.753,0,0,1-2.4,2.447,6.448,6.448,0,0,1-3.521.9,6.316,6.316,0,0,1-2.461-.492,5.669,5.669,0,0,1-2.054-1.477,7.489,7.489,0,0,1-1.409-2.406A9.572,9.572,0,0,1,315.706,216.986Zm1.955-1.149h8.654a9.346,9.346,0,0,0-.376-1.931,4.964,4.964,0,0,0-.792-1.568,3.493,3.493,0,0,0-1.272-1.031,3.98,3.98,0,0,0-1.743-.364,4.119,4.119,0,0,0-1.545.3,4.018,4.018,0,0,0-1.347.9,5.1,5.1,0,0,0-1.025,1.52A7.074,7.074,0,0,0,317.661,215.837Z"/><path d="M329.8,209.63h2.078l4.361,12.455h.055l4.348-12.455H342.6l-5.428,14.807h-1.928Z"/><path d="M344.021,216.986a9.158,9.158,0,0,1,.574-3.4,7,7,0,0,1,1.5-2.379,6.207,6.207,0,0,1,2.071-1.4,6.111,6.111,0,0,1,2.317-.465,5.812,5.812,0,0,1,2.4.492,5.222,5.222,0,0,1,1.9,1.457,7.16,7.16,0,0,1,1.265,2.406,10.833,10.833,0,0,1,.465,3.315v.369H345.948a7.235,7.235,0,0,0,.376,2.432,5.544,5.544,0,0,0,1,1.786,4.25,4.25,0,0,0,3.268,1.5,4.8,4.8,0,0,0,2.7-.693,6.727,6.727,0,0,0,1.893-2.013l1.2.961a7.756,7.756,0,0,1-2.4,2.447,6.445,6.445,0,0,1-3.52.9,6.313,6.313,0,0,1-2.461-.492,5.673,5.673,0,0,1-2.055-1.477,7.469,7.469,0,0,1-1.408-2.406A9.549,9.549,0,0,1,344.021,216.986Zm1.955-1.149h8.654a9.48,9.48,0,0,0-.376-1.931,4.966,4.966,0,0,0-.793-1.568,3.493,3.493,0,0,0-1.272-1.031,3.973,3.973,0,0,0-1.743-.364,4.122,4.122,0,0,0-1.545.3,4,4,0,0,0-1.346.9,5.1,5.1,0,0,0-1.026,1.52A7.046,7.046,0,0,0,345.976,215.837Z"/><path d="M360.317,224.382V203.656h1.928v20.726Z"/><path d="M366.032,217.013a9.36,9.36,0,0,1,.532-3.274,7.165,7.165,0,0,1,1.442-2.406,6,6,0,0,1,2.131-1.484,6.7,6.7,0,0,1,2.588-.506,6.614,6.614,0,0,1,2.559.506,6.034,6.034,0,0,1,2.128,1.484,7.135,7.135,0,0,1,1.443,2.406,10.307,10.307,0,0,1,0,6.555,7.229,7.229,0,0,1-1.443,2.407,6,6,0,0,1-2.128,1.49,6.729,6.729,0,0,1-5.12,0,6.1,6.1,0,0,1-2.144-1.49,7.124,7.124,0,0,1-1.456-2.407A9.349,9.349,0,0,1,366.032,217.013Zm1.928-.027a8.92,8.92,0,0,0,.294,2.324,5.765,5.765,0,0,0,.9,1.921,4.53,4.53,0,0,0,1.5,1.319,4.614,4.614,0,0,0,4.067.041,4.429,4.429,0,0,0,1.485-1.251,5.708,5.708,0,0,0,.939-1.9,8.75,8.75,0,0,0,.321-2.454,8.371,8.371,0,0,0-.308-2.29,6.02,6.02,0,0,0-.9-1.9,4.5,4.5,0,0,0-1.472-1.3,4.163,4.163,0,0,0-2.06-.492,4.343,4.343,0,0,0-2.006.451,4.431,4.431,0,0,0-1.5,1.244,5.614,5.614,0,0,0-.939,1.9A8.567,8.567,0,0,0,367.96,216.986Z"/><path d="M383.04,229.988V209.63h1.928v2.093a10.239,10.239,0,0,1,2.078-1.662,5.388,5.388,0,0,1,2.857-.718,5.994,5.994,0,0,1,2.379.479,5.222,5.222,0,0,1,1.928,1.417,6.954,6.954,0,0,1,1.285,2.381,12.144,12.144,0,0,1,0,6.754,6.721,6.721,0,0,1-1.312,2.377,5.332,5.332,0,0,1-1.983,1.406,6.456,6.456,0,0,1-2.474.471,5.453,5.453,0,0,1-2.6-.625,8.949,8.949,0,0,1-2.16-1.618v7.6Zm1.928-9.368a9.109,9.109,0,0,0,2.2,1.793,4.839,4.839,0,0,0,2.393.616,4.523,4.523,0,0,0,1.811-.356,3.643,3.643,0,0,0,1.415-1.082,5.306,5.306,0,0,0,.923-1.861,9.623,9.623,0,0,0,.335-2.71,9.117,9.117,0,0,0-.349-2.669,5.333,5.333,0,0,0-.97-1.882,3.989,3.989,0,0,0-1.429-1.109,4.2,4.2,0,0,0-1.736-.362,4.607,4.607,0,0,0-2.448.657,10.61,10.61,0,0,0-2.146,1.779Z"/><path d="M405.968,224.382V209.63H407.9v2.325a12.34,12.34,0,0,1,2.426-1.853,5.807,5.807,0,0,1,2.974-.759,4.4,4.4,0,0,1,2.8.745,3.685,3.685,0,0,1,1.248,1.921,13.82,13.82,0,0,1,2.552-1.88,6.012,6.012,0,0,1,3.034-.786,4.05,4.05,0,0,1,3.263,1.176,4.808,4.808,0,0,1,.993,3.2v10.664h-1.928V214.074a3.694,3.694,0,0,0-.6-2.318,2.649,2.649,0,0,0-2.177-.758,4.864,4.864,0,0,0-2.507.683,13.413,13.413,0,0,0-2.424,1.887v10.814H415.62V214.074a3.7,3.7,0,0,0-.6-2.318,2.662,2.662,0,0,0-2.188-.758,4.875,4.875,0,0,0-2.516.683,13.428,13.428,0,0,0-2.419,1.887v10.814Z"/><path d="M430.687,217.013a9.337,9.337,0,0,1,.532-3.274,7.163,7.163,0,0,1,1.441-2.406,6.018,6.018,0,0,1,2.131-1.484,6.7,6.7,0,0,1,2.588-.506,6.614,6.614,0,0,1,2.559.506,6.034,6.034,0,0,1,2.128,1.484,7.153,7.153,0,0,1,1.444,2.406,10.325,10.325,0,0,1,0,6.555,7.247,7.247,0,0,1-1.444,2.407,6,6,0,0,1-2.128,1.49,6.729,6.729,0,0,1-5.12,0,6.1,6.1,0,0,1-2.144-1.49,7.122,7.122,0,0,1-1.455-2.407A9.326,9.326,0,0,1,430.687,217.013Zm1.927-.027a8.92,8.92,0,0,0,.294,2.324,5.766,5.766,0,0,0,.9,1.921,4.511,4.511,0,0,0,1.5,1.319,4.612,4.612,0,0,0,4.066.041,4.429,4.429,0,0,0,1.485-1.251,5.689,5.689,0,0,0,.939-1.9,8.75,8.75,0,0,0,.321-2.454,8.371,8.371,0,0,0-.307-2.29,6,6,0,0,0-.9-1.9,4.49,4.49,0,0,0-1.472-1.3,4.161,4.161,0,0,0-2.06-.492,4.343,4.343,0,0,0-2.006.451,4.431,4.431,0,0,0-1.5,1.244,5.6,5.6,0,0,0-.938,1.9A8.566,8.566,0,0,0,432.614,216.986Z"/><path d="M446.874,216.993a10.664,10.664,0,0,1,.478-3.362,6.736,6.736,0,0,1,1.318-2.385,5.394,5.394,0,0,1,1.986-1.425,6.325,6.325,0,0,1,2.459-.478,5.654,5.654,0,0,1,2.67.649,7.321,7.321,0,0,1,2.095,1.622v-7.958h1.928v17.09a21.077,21.077,0,0,0,.1,2.208,4.944,4.944,0,0,0,.342,1.428H458.22a6.636,6.636,0,0,1-.239-.991,7.051,7.051,0,0,1-.1-1.183,9.071,9.071,0,0,1-2.081,1.706,5.443,5.443,0,0,1-2.849.714,6.207,6.207,0,0,1-2.376-.459,5.006,5.006,0,0,1-1.931-1.412,7.085,7.085,0,0,1-1.291-2.385A10.692,10.692,0,0,1,446.874,216.993Zm1.928.027a8.957,8.957,0,0,0,.348,2.642,5.366,5.366,0,0,0,.966,1.861,3.882,3.882,0,0,0,1.431,1.1,4.281,4.281,0,0,0,1.732.355,4.658,4.658,0,0,0,2.458-.65,10.564,10.564,0,0,0,2.143-1.773v-7.172a9.517,9.517,0,0,0-2.2-1.806,4.764,4.764,0,0,0-2.4-.63,4.449,4.449,0,0,0-1.8.362,3.655,3.655,0,0,0-1.417,1.11,5.5,5.5,0,0,0-.925,1.9A9.721,9.721,0,0,0,448.8,217.02Z"/><path d="M463.444,216.986a9.157,9.157,0,0,1,.575-3.4,6.984,6.984,0,0,1,1.5-2.379,6.221,6.221,0,0,1,2.072-1.4,6.111,6.111,0,0,1,2.317-.465,5.815,5.815,0,0,1,2.4.492,5.222,5.222,0,0,1,1.9,1.457,7.16,7.16,0,0,1,1.265,2.406,10.834,10.834,0,0,1,.464,3.315v.369H465.372a7.235,7.235,0,0,0,.376,2.432,5.544,5.544,0,0,0,1,1.786,4.25,4.25,0,0,0,3.268,1.5,4.8,4.8,0,0,0,2.7-.693,6.727,6.727,0,0,0,1.893-2.013l1.2.961a7.753,7.753,0,0,1-2.4,2.447,6.446,6.446,0,0,1-3.521.9,6.311,6.311,0,0,1-2.46-.492,5.665,5.665,0,0,1-2.055-1.477,7.469,7.469,0,0,1-1.408-2.406A9.548,9.548,0,0,1,463.444,216.986Zm1.955-1.149h8.655a9.48,9.48,0,0,0-.376-1.931,4.966,4.966,0,0,0-.793-1.568,3.493,3.493,0,0,0-1.272-1.031,3.98,3.98,0,0,0-1.743-.364,4.119,4.119,0,0,0-1.545.3,4,4,0,0,0-1.346.9,5.085,5.085,0,0,0-1.026,1.52A7.074,7.074,0,0,0,465.4,215.837Z"/><path d="M479.741,224.382V203.656h1.928v20.726Z"/><path d="M340.072,111.82a6.375,6.375,0,1,0-6.375-6.375A6.382,6.382,0,0,0,340.072,111.82Zm0-9.75a3.375,3.375,0,1,1-3.375,3.375A3.379,3.379,0,0,1,340.072,102.07Z"/><path d="M438.052,111.82a6.375,6.375,0,1,0-6.375-6.375A6.382,6.382,0,0,0,438.052,111.82Zm0-9.75a3.375,3.375,0,1,1-3.375,3.375A3.379,3.379,0,0,1,438.052,102.07Z"/><path class="cls-1" d="M389.341,144.148v-78c22.5,0,39,17.461,39,39S411.841,144.148,389.341,144.148Z"/><path class="cls-2" d="M423.135,85.818c-6.743-12.75-18.794-19.67-33.794-19.67v19.67Z"/><path class="cls-3" d="M389.341,85.818v19.5h39.013c0-7.5-1.9-15-5.219-19.5Z"/><path class="cls-4" d="M389.341,124.818h33.794a36.487,36.487,0,0,0,5.219-19.5H389.341Z"/><path d="M389.354,143.875a38.727,38.727,0,1,1,0-77.454v3a35.727,35.727,0,1,0,0,71.454Zm9.184,29.936,1.3-.173v-9.863a50.444,50.444,0,0,0,9.391-2.476l4.96,8.543,1.208-.493a68.95,68.95,0,0,0,16.448-9.538l1.026-.8-4.908-8.512a60.037,60.037,0,0,0,6.706-6.7l8.486,4.9.8-1.035a68.9,68.9,0,0,0,9.459-16.48l.487-1.211-8.432-4.843a65.049,65.049,0,0,0,2.447-9.3h9.706l.166-1.313a68.894,68.894,0,0,0,.6-8.89,67.3,67.3,0,0,0-.683-9.51l-.185-1.287h-9.574a51.535,51.535,0,0,0-2.479-9.487L453.72,80.5l-.5-1.2a69,69,0,0,0-9.591-16.44l-.8-1.019-8.153,4.689a60.119,60.119,0,0,0-6.7-6.713l4.681-8.113-1.034-.8a68.921,68.921,0,0,0-16.478-9.464l-1.2-.484L409.235,49a50.433,50.433,0,0,0-9.394-2.479V37.253l-1.3-.173a65.989,65.989,0,0,0-18.4.019l-1.3.177v9.246A51.434,51.434,0,0,0,369.436,49l-4.659-8.012-1.206.488A68.945,68.945,0,0,0,347.1,50.967l-1.031.8,4.628,8.031a60.131,60.131,0,0,0-6.707,6.7l-8.062-4.653-.8,1.023a68.882,68.882,0,0,0-9.574,16.413l-.491,1.2,8.129,4.84a51.612,51.612,0,0,0-2.483,9.5h-9.435l-.185,1.287a67.183,67.183,0,0,0-.684,9.51,68.976,68.976,0,0,0,.605,8.89l.165,1.313h9.568a65.2,65.2,0,0,0,2.447,9.305l-8.318,4.79.485,1.209a68.909,68.909,0,0,0,9.44,16.484l.8,1.037,8.39-4.846a60.229,60.229,0,0,0,6.7,6.7l-4.87,8.435,1.023.8a68.938,68.938,0,0,0,16.416,9.569l1.2.494,4.976-8.5a51.265,51.265,0,0,0,9.408,2.477v9.841l1.3.177a66.091,66.091,0,0,0,18.4.019Zm-16.7-12.631L380.549,161a48.8,48.8,0,0,1-11.243-2.948l-1.186-.451-4.929,8.423a65.875,65.875,0,0,1-13.473-7.856l4.832-8.367-.988-.807a57.087,57.087,0,0,1-8.077-8.076l-.807-.988-8.306,4.8a65.934,65.934,0,0,1-7.743-13.52l8.25-4.751-.454-1.2a61.1,61.1,0,0,1-2.954-11.192l-.211-1.251h-9.438a62.3,62.3,0,0,1,.057-15H333.3l.181-1.292a49.757,49.757,0,0,1,2.949-11.321l.448-1.177-8.051-4.793a65.9,65.9,0,0,1,7.864-13.48l8,4.615.806-.988a57.122,57.122,0,0,1,8.081-8.077l.988-.806-4.584-7.954A65.918,65.918,0,0,1,363.5,44.754l4.619,7.943,1.189-.452A48.853,48.853,0,0,1,380.549,49.3l1.292-.181V39.905a62.247,62.247,0,0,1,15-.013v9.224l1.291.181a48.79,48.79,0,0,1,11.231,2.949l1.187.452,4.667-7.989a65.848,65.848,0,0,1,13.524,7.767l-4.634,8.032.988.806a57.106,57.106,0,0,1,8.077,8.086l.8.986,8.09-4.652a66.031,66.031,0,0,1,7.876,13.5l-8.162,4.785.45,1.185a49.7,49.7,0,0,1,2.948,11.321l.181,1.292h9.556a63.993,63.993,0,0,1,.481,7.8,63.311,63.311,0,0,1-.424,7.2H445.4l-.21,1.251a61.179,61.179,0,0,1-2.955,11.192l-.455,1.2,8.361,4.8a65.871,65.871,0,0,1-7.758,13.518l-8.4-4.852-.807.988a57.063,57.063,0,0,1-8.08,8.077l-.987.807,4.866,8.441a65.92,65.92,0,0,1-13.5,7.828l-4.916-8.469-1.19.453A48.782,48.782,0,0,1,398.132,161l-1.291.181V171a62.384,62.384,0,0,1-15-.013Z"/><path d="M383.4,62.8h12v-12h-12Zm3-9h6v6h-6Z"/><path d="M383.4,160.051h12v-12h-12Zm3-9h6v6h-6Z"/><path d="M907.934,205.474v-1.818h15.38v1.818h-6.7v18.908h-1.982V205.474Z"/><path d="M921.838,216.986a9.158,9.158,0,0,1,.574-3.4,7,7,0,0,1,1.5-2.379,6.218,6.218,0,0,1,2.071-1.4,6.116,6.116,0,0,1,2.318-.465,5.807,5.807,0,0,1,2.4.492,5.225,5.225,0,0,1,1.9,1.457,7.141,7.141,0,0,1,1.264,2.406,10.8,10.8,0,0,1,.465,3.315v.369H923.766a7.235,7.235,0,0,0,.376,2.432,5.544,5.544,0,0,0,1,1.786,4.245,4.245,0,0,0,3.267,1.5,4.8,4.8,0,0,0,2.7-.693,6.73,6.73,0,0,0,1.894-2.013l1.2.961a7.753,7.753,0,0,1-2.4,2.447,6.451,6.451,0,0,1-3.521.9,6.316,6.316,0,0,1-2.461-.492,5.673,5.673,0,0,1-2.055-1.477,7.487,7.487,0,0,1-1.408-2.406A9.572,9.572,0,0,1,921.838,216.986Zm1.955-1.149h8.654a9.346,9.346,0,0,0-.376-1.931,4.945,4.945,0,0,0-.793-1.568,3.482,3.482,0,0,0-1.271-1.031,3.98,3.98,0,0,0-1.743-.364,4.119,4.119,0,0,0-1.545.3,4.008,4.008,0,0,0-1.347.9,5.1,5.1,0,0,0-1.025,1.52A7.045,7.045,0,0,0,923.793,215.837Z"/><path d="M936.658,222.043l1.231-1.122a6.569,6.569,0,0,0,1.948,1.56,5.636,5.636,0,0,0,2.645.575,5.1,5.1,0,0,0,2.872-.665,2.189,2.189,0,0,0,.97-1.926,2.03,2.03,0,0,0-.957-1.823,10.483,10.483,0,0,0-3.1-1.125l-2.213-.688a5.214,5.214,0,0,1-1.629-.8,3.188,3.188,0,0,1-.964-1.161,3.809,3.809,0,0,1-.321-1.653,3.4,3.4,0,0,1,.335-1.484,3.613,3.613,0,0,1,.977-1.238,4.791,4.791,0,0,1,1.566-.842,6.72,6.72,0,0,1,2.126-.308,7.843,7.843,0,0,1,3.2.575,7.514,7.514,0,0,1,2.269,1.559l-1.093,1.286a6.551,6.551,0,0,0-1.9-1.327,5.661,5.661,0,0,0-2.406-.493,5.146,5.146,0,0,0-1.477.182,2.861,2.861,0,0,0-.977.485,2,2,0,0,0-.561.686,1.832,1.832,0,0,0-.184.8,1.788,1.788,0,0,0,.832,1.6,9.013,9.013,0,0,0,2.77.99l2.416.736a5.526,5.526,0,0,1,1.769.87,3.464,3.464,0,0,1,1.056,1.289,4.437,4.437,0,0,1,.344,1.863,3.613,3.613,0,0,1-.437,1.793,4.094,4.094,0,0,1-1.19,1.33,5.314,5.314,0,0,1-1.8.818,9.2,9.2,0,0,1-2.311.273,7.722,7.722,0,0,1-3.466-.735A6.339,6.339,0,0,1,936.658,222.043Z"/><path d="M950.016,211.285V209.63H952.6v-5.291h1.927v5.291h3.828v1.655h-3.828v9.266a2.909,2.909,0,0,0,.479,1.8,2.224,2.224,0,0,0,1.846.623h.827a2.466,2.466,0,0,0,.718-.1v1.532c-.228.036-.52.073-.875.109a10.35,10.35,0,0,1-1.04.055,4.246,4.246,0,0,1-3-.855,3.748,3.748,0,0,1-.881-2.782v-9.652Z"/><path d="M967.242,220.927a4.2,4.2,0,0,1,.506-2.027,5.007,5.007,0,0,1,1.682-1.72,12.506,12.506,0,0,1,3.083-1.4,30.471,30.471,0,0,1,4.723-1.037v-.758a3.087,3.087,0,0,0-.764-2.292,3.045,3.045,0,0,0-2.225-.751,6.586,6.586,0,0,0-3.046.661,12.458,12.458,0,0,0-2.458,1.68l-1.047-1.212a11.808,11.808,0,0,1,2.941-1.975,8.8,8.8,0,0,1,3.788-.754,4.656,4.656,0,0,1,3.616,1.243,4.968,4.968,0,0,1,1.123,3.456v6.695a20.858,20.858,0,0,0,.1,2.213,5.75,5.75,0,0,0,.314,1.432H977.58c-.092-.321-.172-.643-.24-.969a5.594,5.594,0,0,1-.1-1.148,9.224,9.224,0,0,1-2.709,1.773,8.051,8.051,0,0,1-3.105.59,4.463,4.463,0,0,1-3.083-.98A3.457,3.457,0,0,1,967.242,220.927Zm1.928-.245a2.149,2.149,0,0,0,.71,1.76,2.991,2.991,0,0,0,1.965.587,6.887,6.887,0,0,0,2.907-.614,9.106,9.106,0,0,0,2.484-1.706v-4.584a29.841,29.841,0,0,0-3.923.879,10.944,10.944,0,0,0-2.471,1.058,3.688,3.688,0,0,0-1.3,1.229A2.754,2.754,0,0,0,969.17,220.682Z"/><path d="M983.457,224.382V209.63h1.928v2.325a10.873,10.873,0,0,1,2.468-1.839,6.445,6.445,0,0,1,3.165-.773,4.351,4.351,0,0,1,3.288,1.149,4.476,4.476,0,0,1,1.1,3.226v10.664h-1.927V214.074a3.3,3.3,0,0,0-.711-2.318,2.927,2.927,0,0,0-2.229-.758,5.408,5.408,0,0,0-2.659.683,12.21,12.21,0,0,0-2.5,1.887v10.814Z"/><path d="M998.906,216.993a10.664,10.664,0,0,1,.478-3.362,6.752,6.752,0,0,1,1.318-2.385,5.394,5.394,0,0,1,1.986-1.425,6.325,6.325,0,0,1,2.459-.478,5.654,5.654,0,0,1,2.67.649,7.307,7.307,0,0,1,2.1,1.622v-7.958h1.928v17.09a20.768,20.768,0,0,0,.1,2.208,4.914,4.914,0,0,0,.341,1.428h-2.025a6.525,6.525,0,0,1-.238-.991,6.949,6.949,0,0,1-.1-1.183,9.071,9.071,0,0,1-2.081,1.706,5.443,5.443,0,0,1-2.849.714,6.214,6.214,0,0,1-2.376-.459,5.006,5.006,0,0,1-1.931-1.412,7.085,7.085,0,0,1-1.291-2.385A10.692,10.692,0,0,1,998.906,216.993Zm1.928.027a8.922,8.922,0,0,0,.349,2.642,5.348,5.348,0,0,0,.965,1.861,3.89,3.89,0,0,0,1.431,1.1,4.282,4.282,0,0,0,1.733.355,4.663,4.663,0,0,0,2.458-.65,10.587,10.587,0,0,0,2.142-1.773v-7.172a9.5,9.5,0,0,0-2.2-1.806,4.76,4.76,0,0,0-2.4-.63,4.451,4.451,0,0,0-1.8.362,3.655,3.655,0,0,0-1.417,1.11,5.515,5.515,0,0,0-.925,1.9A9.721,9.721,0,0,0,1000.834,217.02Z"/><path d="M1021.752,220.927a4.2,4.2,0,0,1,.506-2.027,5,5,0,0,1,1.681-1.72,12.54,12.54,0,0,1,3.083-1.4,30.513,30.513,0,0,1,4.724-1.037v-.758a3.083,3.083,0,0,0-.765-2.292,3.043,3.043,0,0,0-2.224-.751,6.583,6.583,0,0,0-3.046.661,12.429,12.429,0,0,0-2.458,1.68l-1.047-1.212a11.808,11.808,0,0,1,2.941-1.975,8.8,8.8,0,0,1,3.788-.754,4.656,4.656,0,0,1,3.616,1.243,4.968,4.968,0,0,1,1.123,3.456v6.695a20.858,20.858,0,0,0,.1,2.213,5.706,5.706,0,0,0,.314,1.432h-1.994c-.092-.321-.172-.643-.24-.969a5.525,5.525,0,0,1-.1-1.148,9.237,9.237,0,0,1-2.709,1.773,8.051,8.051,0,0,1-3.105.59,4.461,4.461,0,0,1-3.083-.98A3.457,3.457,0,0,1,1021.752,220.927Zm1.928-.245a2.149,2.149,0,0,0,.71,1.76,2.99,2.99,0,0,0,1.965.587,6.891,6.891,0,0,0,2.907-.614,9.136,9.136,0,0,0,2.484-1.706v-4.584a29.9,29.9,0,0,0-3.924.879,10.954,10.954,0,0,0-2.47,1.058,3.68,3.68,0,0,0-1.3,1.229A2.754,2.754,0,0,0,1023.68,220.682Z"/><path d="M1037.967,224.382V209.63h1.928v2.325a10.867,10.867,0,0,1,2.467-1.839,6.45,6.45,0,0,1,3.165-.773,4.349,4.349,0,0,1,3.288,1.149,4.472,4.472,0,0,1,1.1,3.226v10.664h-1.928V214.074a3.29,3.29,0,0,0-.711-2.318,2.923,2.923,0,0,0-2.228-.758,5.408,5.408,0,0,0-2.659.683,12.156,12.156,0,0,0-2.5,1.887v10.814Z"/><path d="M1053.334,220.927a4.2,4.2,0,0,1,.506-2.027,5,5,0,0,1,1.682-1.72,12.506,12.506,0,0,1,3.083-1.4,30.471,30.471,0,0,1,4.723-1.037v-.758a3.083,3.083,0,0,0-.765-2.292,3.041,3.041,0,0,0-2.224-.751,6.583,6.583,0,0,0-3.046.661,12.458,12.458,0,0,0-2.458,1.68l-1.047-1.212a11.808,11.808,0,0,1,2.941-1.975,8.8,8.8,0,0,1,3.788-.754,4.656,4.656,0,0,1,3.616,1.243,4.968,4.968,0,0,1,1.123,3.456v6.695a20.858,20.858,0,0,0,.1,2.213,5.75,5.75,0,0,0,.314,1.432h-1.994c-.092-.321-.172-.643-.24-.969a5.525,5.525,0,0,1-.1-1.148,9.237,9.237,0,0,1-2.709,1.773,8.051,8.051,0,0,1-3.105.59,4.461,4.461,0,0,1-3.083-.98A3.457,3.457,0,0,1,1053.334,220.927Zm1.928-.245a2.149,2.149,0,0,0,.71,1.76,2.99,2.99,0,0,0,1.965.587,6.891,6.891,0,0,0,2.907-.614,9.136,9.136,0,0,0,2.484-1.706v-4.584a29.9,29.9,0,0,0-3.924.879,10.954,10.954,0,0,0-2.47,1.058,3.68,3.68,0,0,0-1.3,1.229A2.754,2.754,0,0,0,1055.262,220.682Z"/><path d="M1069.713,224.382V203.656h1.928v20.726Z"/><path d="M1074.348,229.755l.437-1.6a5.576,5.576,0,0,0,.82.164,9.325,9.325,0,0,0,1.231.068,2.876,2.876,0,0,0,1.873-.548,4.253,4.253,0,0,0,1.148-1.724l.616-1.629-5.715-14.857h2.078l4.594,12.474h.054l4.567-12.474h2.01l-6.358,16.461a10.927,10.927,0,0,1-.779,1.723,4.631,4.631,0,0,1-1,1.23,3.947,3.947,0,0,1-1.326.746,5.731,5.731,0,0,1-1.819.253,10.422,10.422,0,0,1-1.422-.082A7.631,7.631,0,0,1,1074.348,229.755Z"/><path d="M1089.934,224.382v-1.23l8.982-11.922h-8.258v-1.6h10.705v1.247l-9,11.906h9.379v1.6Z"/><path d="M1103.51,216.986a9.158,9.158,0,0,1,.574-3.4,7,7,0,0,1,1.5-2.379,6.207,6.207,0,0,1,2.071-1.4,6.112,6.112,0,0,1,2.318-.465,5.807,5.807,0,0,1,2.4.492,5.222,5.222,0,0,1,1.9,1.457,7.142,7.142,0,0,1,1.265,2.406,10.8,10.8,0,0,1,.465,3.315v.369h-10.568a7.262,7.262,0,0,0,.375,2.432,5.544,5.544,0,0,0,1,1.786,4.25,4.25,0,0,0,3.268,1.5,4.8,4.8,0,0,0,2.7-.693,6.742,6.742,0,0,0,1.894-2.013l1.2.961a7.746,7.746,0,0,1-2.4,2.447,6.445,6.445,0,0,1-3.52.9,6.313,6.313,0,0,1-2.461-.492,5.673,5.673,0,0,1-2.055-1.477,7.487,7.487,0,0,1-1.408-2.406A9.572,9.572,0,0,1,1103.51,216.986Zm1.955-1.149h8.654a9.346,9.346,0,0,0-.376-1.931,4.945,4.945,0,0,0-.793-1.568,3.49,3.49,0,0,0-1.271-1.031,3.98,3.98,0,0,0-1.743-.364,4.115,4.115,0,0,0-1.545.3,4,4,0,0,0-1.347.9,5.1,5.1,0,0,0-1.025,1.52A7.045,7.045,0,0,0,1105.465,215.837Z"/><path class="cls-1" d="M1048.209,0h15V156h-15V0Z"/><path class="cls-2" d="M1048.209,0h15V39h-15Z"/><path class="cls-3" d="M1048.209,39h15V78h-15Z"/><path class="cls-4" d="M1048.209,78h15v39h-15Z"/><path d="M1105.209,63V51h-12V63Zm-9-3V54h6v6Zm9-15V33h-12V45Zm-9-3V36h6v6Zm-9,21V51h-12V63Zm-9-3V54h6v6Zm9-33V15h-12V27Zm-9-3V18h6v6Zm9,21V33h-12V45Zm-9-3V36h6v6Zm27-15V15h-12V27Zm-9-3V18h6v6Zm-21.375,75a6.375,6.375,0,1,0,6.375-6.375A6.383,6.383,0,0,0,1074.834,99Zm9.75,0a3.375,3.375,0,1,1-3.375-3.375A3.378,3.378,0,0,1,1084.584,99Zm8.25,18a6.375,6.375,0,1,0,6.375-6.375A6.383,6.383,0,0,0,1092.834,117Zm9.75,0a3.375,3.375,0,1,1-3.375-3.375A3.378,3.378,0,0,1,1102.584,117Zm-27.75,0a6.375,6.375,0,1,0,6.375-6.375A6.383,6.383,0,0,0,1074.834,117Zm9.75,0a3.375,3.375,0,1,1-3.375-3.375A3.378,3.378,0,0,1,1084.584,117Zm-9.75,18a6.375,6.375,0,1,0,6.375-6.375A6.383,6.383,0,0,0,1074.834,135Zm9.75,0a3.375,3.375,0,1,1-3.375-3.375A3.378,3.378,0,0,1,1084.584,135Zm8.25-36a6.375,6.375,0,1,0,6.375-6.375A6.383,6.383,0,0,0,1092.834,99Zm9.75,0a3.375,3.375,0,1,1-3.375-3.375A3.378,3.378,0,0,1,1102.584,99Zm-9.75,36a6.375,6.375,0,1,0,6.375-6.375A6.383,6.383,0,0,0,1092.834,135Zm9.75,0a3.375,3.375,0,1,1-3.375-3.375A3.378,3.378,0,0,1,1102.584,135ZM1048.209,24.374v3a6.375,6.375,0,0,1,0-12.75v3a3.375,3.375,0,0,0,0,6.75ZM1044.834,72a3.379,3.379,0,0,1,3.375-3.375v-3a6.375,6.375,0,0,0,0,12.75v-3A3.379,3.379,0,0,1,1044.834,72Zm.375-33V51h-12V39Zm-9,3v6h6V42Zm-4.5,51a6.375,6.375,0,1,1,6.375,6.375A6.382,6.382,0,0,1,1031.709,93Zm6.375,3.375A3.375,3.375,0,1,0,1034.709,93,3.378,3.378,0,0,0,1038.084,96.374ZM1009.209,30V18h12V30Zm9-3V21h-6v6Zm6,69v12h-12V96Zm-9,3v6h6V99ZM990.324,63.176a36.722,36.722,0,1,0-29.018,61.337q.925.045,1.846.046a36.724,36.724,0,0,0,27.172-61.383Zm6.47,26.317a33.723,33.723,0,1,1-33.722-35.382c.563,0,1.131.013,1.7.041a33.724,33.724,0,0,1,32.024,35.341Zm57.577,82.2-44.716-49.349-3.019,2.737-8.81-9.723a44.311,44.311,0,1,0-10.733,9.725l8.81,9.723-3.02,2.736,44.717,49.348,3.222-2.919a7.356,7.356,0,0,0,10.338-9.368ZM961.08,129.088a41.3,41.3,0,1,1,29.766-10.647A41.037,41.037,0,0,1,961.08,129.088Zm28.5-5.726q1.69-1.264,3.279-2.7t3.007-3l8.546,9.43-6.287,5.7Zm7.539,14.39,12.326-11.169,40.688,44.9-.578.524-.005-.007-11.163,10.115.007.006-.586.531Zm50.227,43.035a4.382,4.382,0,0,1-4.091.967l5.455-4.943A4.378,4.378,0,0,1,1047.347,180.787ZM998.137,33.346v6h-18v-6h18m3-3h-24v12h24v-12Zm23,28.875a3,3,0,0,1,3,3v.75a3,3,0,0,1-3,3h-12a3,3,0,0,1-3-3v-.75a3,3,0,0,1,3-3h12m0-3h-12a6.018,6.018,0,0,0-6,6v.75a6.018,6.018,0,0,0,6,6h12a6.018,6.018,0,0,0,6-6v-.75a6.018,6.018,0,0,0-6-6ZM955.374,94.709a3,3,0,0,1,3,3v.75a3,3,0,0,1-3,3h-12a3,3,0,0,1-3-3v-.75a3,3,0,0,1,3-3h12m0-3h-12a6.018,6.018,0,0,0-6,6v.75a6.018,6.018,0,0,0,6,6h12a6.018,6.018,0,0,0,6-6v-.75a6.018,6.018,0,0,0-6-6Zm92.835,40.746c-.028,0-.056,0-.085,0h-12a6.018,6.018,0,0,1-6-6v-.75a6.018,6.018,0,0,1,6-6h12c.029,0,.057,0,.085,0v3c-.029,0-.056-.009-.085-.009h-12a3,3,0,0,0-3,3v.75a3,3,0,0,0,3,3h12c.029,0,.056-.007.085-.008v3ZM976.137,69.1v6h-18v-6h18m3-3h-24v12h24v-12Zm11.75,11.5v12h-12v-12Zm-9,3v6h6v-6Z"/><polyline class="cls-6" points="1036.349 247.212 1036.349 314.368 973.438 314.368"/><polygon class="cls-7" points="975.626 306.888 962.674 314.368 975.626 321.847 975.626 306.888"/><polyline class="cls-6" points="694.094 257.975 694.094 314.368 767.768 314.368"/><polygon class="cls-7" points="686.614 260.164 694.094 247.212 701.573 260.164 686.614 260.164"/></g></g></svg>