<svg xmlns="http://www.w3.org/2000/svg" viewBox="0 0 1170.394 260.991"><defs><style>.cls-1{fill:#148fcf;}.cls-2,.cls-3,.cls-4{fill:#efab1f;}.cls-3{opacity:0.7;}.cls-4{opacity:0.4;}.cls-5{fill:#4fb81c;}.cls-6{fill:#e35500;}.cls-7{fill:#942582;}</style></defs><g id="Ebene_2" data-name="Ebene 2"><g id="Layer_1" data-name="Layer 1"><path d="M347.123,219.331V198.605h2.119l11.43,17.089h.055V198.605H362.6v20.726h-1.764l-11.785-17.609H349v17.609Z" transform="translate(-2.666)"/><path d="M366.605,215.876a4.2,4.2,0,0,1,.506-2.027,5,5,0,0,1,1.682-1.72,12.506,12.506,0,0,1,3.083-1.4,30.476,30.476,0,0,1,4.724-1.038v-.757a3.081,3.081,0,0,0-.765-2.292,3.045,3.045,0,0,0-2.225-.751,6.576,6.576,0,0,0-3.046.661,12.487,12.487,0,0,0-2.458,1.68l-1.046-1.212a11.8,11.8,0,0,1,2.94-1.975,8.8,8.8,0,0,1,3.788-.754,4.656,4.656,0,0,1,3.616,1.243,4.965,4.965,0,0,1,1.123,3.455v6.7a21.143,21.143,0,0,0,.1,2.213,5.747,5.747,0,0,0,.315,1.432h-2c-.091-.321-.172-.643-.24-.97a5.589,5.589,0,0,1-.1-1.147,9.226,9.226,0,0,1-2.709,1.772,8.041,8.041,0,0,1-3.106.591,4.464,4.464,0,0,1-3.083-.98A3.462,3.462,0,0,1,366.605,215.876Zm1.928-.245a2.152,2.152,0,0,0,.71,1.76,3,3,0,0,0,1.965.587,6.87,6.87,0,0,0,2.907-.615,9.1,9.1,0,0,0,2.485-1.705v-4.585a30,30,0,0,0-3.924.88,10.919,10.919,0,0,0-2.471,1.058,3.7,3.7,0,0,0-1.3,1.228A2.76,2.76,0,0,0,368.533,215.631Z" transform="translate(-2.666)"/><path d="M381.248,206.233v-1.654h2.584v-5.291h1.928v5.291h3.828v1.654H385.76V215.5a2.909,2.909,0,0,0,.478,1.8,2.226,2.226,0,0,0,1.846.623h.827a2.462,2.462,0,0,0,.718-.1v1.531q-.342.055-.875.11a10.33,10.33,0,0,1-1.039.055,4.25,4.25,0,0,1-3-.855,3.743,3.743,0,0,1-.882-2.782v-9.653Z" transform="translate(-2.666)"/><path d="M392.91,215.243V204.579h1.928V214.9a3.356,3.356,0,0,0,.7,2.332,2.919,2.919,0,0,0,2.242.758,5.208,5.208,0,0,0,2.646-.7,13.709,13.709,0,0,0,2.481-1.88V204.579h1.928v14.752H402.9v-2.324a11.242,11.242,0,0,1-2.467,1.852,6.3,6.3,0,0,1-3.138.787,4.313,4.313,0,0,1-3.3-1.163A4.555,4.555,0,0,1,392.91,215.243Z" transform="translate(-2.666)"/><path d="M409.316,219.331V204.579h1.928v2.937h.055a7.5,7.5,0,0,1,2.276-2.308,6.423,6.423,0,0,1,3.575-.916h.342l-.191,1.818h-.287a1.2,1.2,0,0,1-.192-.013.87.87,0,0,0-.109-.014,5.506,5.506,0,0,0-3.213.955,7,7,0,0,0-2.256,2.715v9.578Z" transform="translate(-2.666)"/><path d="M418.955,215.876a4.2,4.2,0,0,1,.506-2.027,4.99,4.99,0,0,1,1.682-1.72,12.506,12.506,0,0,1,3.083-1.4,30.46,30.46,0,0,1,4.723-1.038v-.757a3.085,3.085,0,0,0-.764-2.292,3.045,3.045,0,0,0-2.225-.751,6.574,6.574,0,0,0-3.046.661,12.458,12.458,0,0,0-2.458,1.68l-1.047-1.212a11.808,11.808,0,0,1,2.941-1.975,8.8,8.8,0,0,1,3.788-.754,4.656,4.656,0,0,1,3.616,1.243,4.965,4.965,0,0,1,1.123,3.455v6.7a20.872,20.872,0,0,0,.1,2.213,5.75,5.75,0,0,0,.314,1.432h-1.994c-.092-.321-.172-.643-.24-.97a5.514,5.514,0,0,1-.1-1.147,9.213,9.213,0,0,1-2.709,1.772,8.033,8.033,0,0,1-3.105.591,4.463,4.463,0,0,1-3.083-.98A3.459,3.459,0,0,1,418.955,215.876Zm1.928-.245a2.149,2.149,0,0,0,.71,1.76,3,3,0,0,0,1.965.587,6.876,6.876,0,0,0,2.907-.615,9.1,9.1,0,0,0,2.484-1.705v-4.585a30.043,30.043,0,0,0-3.924.88,10.909,10.909,0,0,0-2.47,1.058,3.687,3.687,0,0,0-1.3,1.228A2.76,2.76,0,0,0,420.883,215.631Z" transform="translate(-2.666)"/><path d="M435.334,219.331V198.605h1.928v20.726Z" transform="translate(-2.666)"/><path d="M448.391,219.331V198.605h1.927v20.726Z" transform="translate(-2.666)"/><path d="M454.105,211.935a9.157,9.157,0,0,1,.575-3.4,6.961,6.961,0,0,1,1.5-2.379,6.193,6.193,0,0,1,2.071-1.4,6.092,6.092,0,0,1,2.317-.465,5.815,5.815,0,0,1,2.4.492,5.219,5.219,0,0,1,1.9,1.456,7.175,7.175,0,0,1,1.265,2.407,10.828,10.828,0,0,1,.465,3.315v.369H456.033a7.235,7.235,0,0,0,.376,2.432,5.544,5.544,0,0,0,1,1.786,4.25,4.25,0,0,0,3.268,1.5,4.8,4.8,0,0,0,2.7-.693,6.727,6.727,0,0,0,1.893-2.013l1.2.961a7.777,7.777,0,0,1-2.4,2.447,6.445,6.445,0,0,1-3.52.9,6.3,6.3,0,0,1-2.461-.493,5.65,5.65,0,0,1-2.055-1.476,7.469,7.469,0,0,1-1.408-2.406A9.552,9.552,0,0,1,454.105,211.935Zm1.956-1.149h8.654a9.48,9.48,0,0,0-.376-1.931,4.966,4.966,0,0,0-.793-1.568,3.493,3.493,0,0,0-1.272-1.031,3.973,3.973,0,0,0-1.743-.364,4.1,4.1,0,0,0-1.545.3,4,4,0,0,0-1.346.9,5.091,5.091,0,0,0-1.026,1.52A7.039,7.039,0,0,0,456.061,210.786Z" transform="translate(-2.666)"/><path d="M469.09,215.876a4.2,4.2,0,0,1,.506-2.027,5,5,0,0,1,1.681-1.72,12.54,12.54,0,0,1,3.083-1.4,30.5,30.5,0,0,1,4.724-1.038v-.757a3.081,3.081,0,0,0-.765-2.292,3.043,3.043,0,0,0-2.224-.751,6.571,6.571,0,0,0-3.046.661,12.429,12.429,0,0,0-2.458,1.68l-1.047-1.212a11.821,11.821,0,0,1,2.94-1.975,8.807,8.807,0,0,1,3.788-.754,4.657,4.657,0,0,1,3.617,1.243,4.965,4.965,0,0,1,1.123,3.455v6.7a21.181,21.181,0,0,0,.1,2.213,5.747,5.747,0,0,0,.315,1.432h-1.994c-.092-.321-.172-.643-.24-.97a5.514,5.514,0,0,1-.1-1.147,9.213,9.213,0,0,1-2.709,1.772,8.033,8.033,0,0,1-3.105.591,4.461,4.461,0,0,1-3.083-.98A3.459,3.459,0,0,1,469.09,215.876Zm1.928-.245a2.149,2.149,0,0,0,.71,1.76,2.992,2.992,0,0,0,1.964.587,6.877,6.877,0,0,0,2.908-.615,9.11,9.11,0,0,0,2.484-1.705v-4.585a30,30,0,0,0-3.924.88,10.939,10.939,0,0,0-2.471,1.058,3.691,3.691,0,0,0-1.3,1.228A2.76,2.76,0,0,0,471.018,215.631Z" transform="translate(-2.666)"/><path d="M485.305,219.331V204.579h1.927v2.937h.055a7.5,7.5,0,0,1,2.276-2.308,6.425,6.425,0,0,1,3.576-.916h.341l-.191,1.818H493a1.185,1.185,0,0,1-.191-.013.878.878,0,0,0-.11-.014,5.506,5.506,0,0,0-3.213.955,7,7,0,0,0-2.256,2.715v9.578Z" transform="translate(-2.666)"/><path d="M496.365,219.331V204.579h1.928V206.9a10.87,10.87,0,0,1,2.468-1.838,6.445,6.445,0,0,1,3.165-.773,4.351,4.351,0,0,1,3.288,1.149,4.474,4.474,0,0,1,1.1,3.226v10.664h-1.927V209.023a3.293,3.293,0,0,0-.711-2.318,2.924,2.924,0,0,0-2.229-.759,5.409,5.409,0,0,0-2.659.684,12.21,12.21,0,0,0-2.5,1.887v10.814Z" transform="translate(-2.666)"/><path d="M512.744,201.161v-2.078h2.051v2.078Zm.055,18.17V204.579h1.928v14.752Z" transform="translate(-2.666)"/><path d="M519.361,219.331V204.579h1.928V206.9a10.87,10.87,0,0,1,2.468-1.838,6.445,6.445,0,0,1,3.165-.773,4.349,4.349,0,0,1,3.288,1.149,4.475,4.475,0,0,1,1.1,3.226v10.664h-1.928V209.023a3.289,3.289,0,0,0-.711-2.318,2.924,2.924,0,0,0-2.229-.759,5.409,5.409,0,0,0-2.659.684,12.21,12.21,0,0,0-2.5,1.887v10.814Z" transform="translate(-2.666)"/><path d="M533.977,221.266a2.981,2.981,0,0,1,.724-2,4.826,4.826,0,0,1,2.024-1.343,1.9,1.9,0,0,1-1.286-1.881,1.852,1.852,0,0,1,.481-1.229,4.166,4.166,0,0,1,1.283-.968,4.767,4.767,0,0,1-1.654-1.771,5.459,5.459,0,0,1-.144-4.621,5.041,5.041,0,0,1,1.217-1.675,5.638,5.638,0,0,1,1.839-1.093,6.6,6.6,0,0,1,2.324-.4,6.671,6.671,0,0,1,2.349.4,5.467,5.467,0,0,1,1.844,1.121,6.913,6.913,0,0,1,1.568-.855,7.184,7.184,0,0,1,1.827-.485V206.4a8.957,8.957,0,0,0-1.343.107,5.658,5.658,0,0,0-1.343.377,4.6,4.6,0,0,1,.854,2.787,5.012,5.012,0,0,1-.448,2.149,4.922,4.922,0,0,1-1.215,1.636,5.279,5.279,0,0,1-1.819,1.034,6.98,6.98,0,0,1-2.274.359,6.66,6.66,0,0,1-2.379-.41,2.693,2.693,0,0,0-.854.525.974.974,0,0,0-.322.729.786.786,0,0,0,.459.728,5.425,5.425,0,0,0,1.72.4l3.222.247a8.119,8.119,0,0,1,3.869,1.114,2.976,2.976,0,0,1,1.312,2.625,3.26,3.26,0,0,1-.5,1.792,4.027,4.027,0,0,1-1.4,1.311,7.488,7.488,0,0,1-2.144.8,12.612,12.612,0,0,1-2.765.281,10.843,10.843,0,0,1-5.325-1A3.049,3.049,0,0,1,533.977,221.266Zm1.873-.241a1.952,1.952,0,0,0,1.278,1.8,9.827,9.827,0,0,0,4.067.625,7.666,7.666,0,0,0,3.541-.678,2.022,2.022,0,0,0,1.285-1.792,1.749,1.749,0,0,0-.917-1.6,7.592,7.592,0,0,0-3.091-.706l-2.921-.238-.781-.083a3.855,3.855,0,0,0-1.86,1.115A2.391,2.391,0,0,0,535.85,221.025Zm.984-11.387a3.548,3.548,0,0,0,1.08,2.72,4.656,4.656,0,0,0,5.776.016,3.5,3.5,0,0,0,1.06-2.679,3.822,3.822,0,0,0-1.032-2.824,4.631,4.631,0,0,0-5.831,0A3.7,3.7,0,0,0,536.834,209.638Z" transform="translate(-2.666)"/><path d="M382.458,260.937V240.579h1.928v2.093a10.2,10.2,0,0,1,2.078-1.662,5.379,5.379,0,0,1,2.857-.718,5.994,5.994,0,0,1,2.379.479,5.222,5.222,0,0,1,1.928,1.417,6.959,6.959,0,0,1,1.285,2.38,12.144,12.144,0,0,1,0,6.754A6.7,6.7,0,0,1,393.6,253.7a5.334,5.334,0,0,1-1.983,1.407,6.456,6.456,0,0,1-2.474.471,5.453,5.453,0,0,1-2.6-.625,8.949,8.949,0,0,1-2.16-1.618v7.6Zm1.928-9.369a9.062,9.062,0,0,0,2.2,1.793,4.828,4.828,0,0,0,2.392.617,4.541,4.541,0,0,0,1.812-.356,3.66,3.66,0,0,0,1.415-1.082,5.306,5.306,0,0,0,.923-1.861,9.623,9.623,0,0,0,.335-2.71,9.112,9.112,0,0,0-.349-2.669,5.333,5.333,0,0,0-.97-1.882,4,4,0,0,0-1.429-1.109,4.182,4.182,0,0,0-1.737-.363,4.607,4.607,0,0,0-2.447.658,10.582,10.582,0,0,0-2.146,1.779Z" transform="translate(-2.666)"/><path d="M399.056,255.331V240.579h1.927v2.937h.055a7.5,7.5,0,0,1,2.276-2.308,6.425,6.425,0,0,1,3.576-.916h.341l-.191,1.818h-.287a1.185,1.185,0,0,1-.191-.013.878.878,0,0,0-.11-.014,5.506,5.506,0,0,0-3.213.955,7,7,0,0,0-2.256,2.715v9.578Z" transform="translate(-2.666)"/><path d="M408.517,247.962a9.337,9.337,0,0,1,.532-3.274,7.168,7.168,0,0,1,1.441-2.407,6.029,6.029,0,0,1,2.131-1.483,6.707,6.707,0,0,1,2.588-.506,6.619,6.619,0,0,1,2.56.506,6.049,6.049,0,0,1,2.127,1.483,7.157,7.157,0,0,1,1.444,2.407,10.325,10.325,0,0,1,0,6.555,7.243,7.243,0,0,1-1.444,2.406,5.994,5.994,0,0,1-2.127,1.491,6.731,6.731,0,0,1-5.121,0,6.093,6.093,0,0,1-2.144-1.491,7.118,7.118,0,0,1-1.455-2.406A9.326,9.326,0,0,1,408.517,247.962Zm1.927-.027a8.925,8.925,0,0,0,.294,2.324,5.776,5.776,0,0,0,.9,1.921,4.511,4.511,0,0,0,1.5,1.319,4.621,4.621,0,0,0,4.066.041,4.466,4.466,0,0,0,1.486-1.251,5.706,5.706,0,0,0,.938-1.9,8.755,8.755,0,0,0,.321-2.454,8.371,8.371,0,0,0-.307-2.29,6,6,0,0,0-.9-1.9,4.5,4.5,0,0,0-1.471-1.305,4.157,4.157,0,0,0-2.061-.493,4.344,4.344,0,0,0-2.006.452,4.408,4.408,0,0,0-1.5,1.244,5.6,5.6,0,0,0-.938,1.9A8.561,8.561,0,0,0,410.444,247.935Z" transform="translate(-2.666)"/><path d="M424.677,247.962a9.513,9.513,0,0,1,.556-3.425,7.015,7.015,0,0,1,1.477-2.392,5.726,5.726,0,0,1,2.116-1.4,6.827,6.827,0,0,1,2.427-.451,6.25,6.25,0,0,1,2.085.321,5.046,5.046,0,0,1,1.579.882,6.194,6.194,0,0,1,1.162,1.292,8.387,8.387,0,0,1,.82,1.538l-1.64.725a6.014,6.014,0,0,0-1.566-2.3,3.712,3.712,0,0,0-2.5-.8,4.7,4.7,0,0,0-1.647.308,3.8,3.8,0,0,0-1.484,1.025,5.369,5.369,0,0,0-1.059,1.86,8.444,8.444,0,0,0-.4,2.8,8.724,8.724,0,0,0,.349,2.584,5.827,5.827,0,0,0,.95,1.886,4.142,4.142,0,0,0,1.429,1.176,3.983,3.983,0,0,0,1.8.41,3.927,3.927,0,0,0,2.5-.745,6.648,6.648,0,0,0,1.743-2.4l1.559.67a11.151,11.151,0,0,1-.985,1.7,5.75,5.75,0,0,1-1.264,1.305,5.651,5.651,0,0,1-1.614.828,6.441,6.441,0,0,1-2.016.294,6,6,0,0,1-2.42-.506,5.835,5.835,0,0,1-2.041-1.491,7.3,7.3,0,0,1-1.395-2.406A9.621,9.621,0,0,1,424.677,247.962Z" transform="translate(-2.666)"/><path d="M439.292,247.935a9.158,9.158,0,0,1,.574-3.4,6.991,6.991,0,0,1,1.5-2.379,6.2,6.2,0,0,1,2.071-1.4,6.1,6.1,0,0,1,2.318-.465,5.807,5.807,0,0,1,2.4.492,5.222,5.222,0,0,1,1.9,1.456,7.156,7.156,0,0,1,1.264,2.407,10.8,10.8,0,0,1,.465,3.315v.369H441.22a7.235,7.235,0,0,0,.376,2.432,5.544,5.544,0,0,0,1,1.786,4.245,4.245,0,0,0,3.267,1.5,4.8,4.8,0,0,0,2.7-.693,6.73,6.73,0,0,0,1.894-2.013l1.2.961a7.764,7.764,0,0,1-2.4,2.447,6.451,6.451,0,0,1-3.521.9,6.3,6.3,0,0,1-2.461-.493,5.659,5.659,0,0,1-2.055-1.476,7.505,7.505,0,0,1-1.408-2.406A9.576,9.576,0,0,1,439.292,247.935Zm1.955-1.149H449.9a9.346,9.346,0,0,0-.376-1.931,4.945,4.945,0,0,0-.793-1.568,3.482,3.482,0,0,0-1.271-1.031,3.98,3.98,0,0,0-1.743-.364,4.1,4.1,0,0,0-1.545.3,4.008,4.008,0,0,0-1.347.9,5.089,5.089,0,0,0-1.025,1.52A7.038,7.038,0,0,0,441.247,246.786Z" transform="translate(-2.666)"/><path d="M454.112,252.992l1.231-1.122a6.585,6.585,0,0,0,1.948,1.56,5.637,5.637,0,0,0,2.646.575,5.1,5.1,0,0,0,2.871-.665,2.189,2.189,0,0,0,.97-1.926,2.029,2.029,0,0,0-.957-1.823,10.483,10.483,0,0,0-3.1-1.125l-2.213-.689a5.213,5.213,0,0,1-1.629-.8,3.191,3.191,0,0,1-.964-1.162,3.8,3.8,0,0,1-.321-1.652,3.4,3.4,0,0,1,.335-1.484,3.626,3.626,0,0,1,.977-1.239,4.818,4.818,0,0,1,1.566-.841,6.72,6.72,0,0,1,2.126-.308,7.84,7.84,0,0,1,3.2.574,7.535,7.535,0,0,1,2.269,1.56l-1.093,1.286a6.531,6.531,0,0,0-1.9-1.327,5.661,5.661,0,0,0-2.406-.493,5.172,5.172,0,0,0-1.476.181,2.858,2.858,0,0,0-.978.486,1.987,1.987,0,0,0-.561.686,1.832,1.832,0,0,0-.184.8,1.789,1.789,0,0,0,.832,1.6,9.013,9.013,0,0,0,2.77.99l2.416.736a5.535,5.535,0,0,1,1.769.869,3.472,3.472,0,0,1,1.056,1.289,4.446,4.446,0,0,1,.344,1.864,3.613,3.613,0,0,1-.437,1.793,4.1,4.1,0,0,1-1.19,1.33,5.334,5.334,0,0,1-1.8.818,9.2,9.2,0,0,1-2.311.273,7.736,7.736,0,0,1-3.466-.735A6.339,6.339,0,0,1,454.112,252.992Z" transform="translate(-2.666)"/><path d="M468,252.992l1.23-1.122a6.589,6.589,0,0,0,1.949,1.56,5.636,5.636,0,0,0,2.645.575,5.093,5.093,0,0,0,2.871-.665,2.188,2.188,0,0,0,.971-1.926,2.029,2.029,0,0,0-.957-1.823,10.492,10.492,0,0,0-3.1-1.125l-2.212-.689a5.192,5.192,0,0,1-1.629-.8,3.191,3.191,0,0,1-.964-1.162,3.8,3.8,0,0,1-.322-1.652,3.415,3.415,0,0,1,.335-1.484,3.629,3.629,0,0,1,.978-1.239,4.813,4.813,0,0,1,1.565-.841,6.729,6.729,0,0,1,2.126-.308,7.845,7.845,0,0,1,3.2.574,7.535,7.535,0,0,1,2.269,1.56l-1.094,1.286a6.514,6.514,0,0,0-1.9-1.327,5.664,5.664,0,0,0-2.406-.493,5.185,5.185,0,0,0-1.477.181,2.862,2.862,0,0,0-.977.486,1.987,1.987,0,0,0-.561.686,1.833,1.833,0,0,0-.185.8,1.79,1.79,0,0,0,.833,1.6,9,9,0,0,0,2.77.99l2.416.736a5.545,5.545,0,0,1,1.769.869,3.469,3.469,0,0,1,1.055,1.289,4.429,4.429,0,0,1,.345,1.864,3.613,3.613,0,0,1-.438,1.793,4.1,4.1,0,0,1-1.189,1.33,5.339,5.339,0,0,1-1.805.818,9.188,9.188,0,0,1-2.31.273,7.733,7.733,0,0,1-3.466-.735A6.331,6.331,0,0,1,468,252.992Z" transform="translate(-2.666)"/><path d="M483.315,237.161v-2.078h2.051v2.078Zm.055,18.17V240.579H485.3v14.752Z" transform="translate(-2.666)"/><path d="M489.933,255.331V240.579h1.927V242.9a10.892,10.892,0,0,1,2.468-1.838,6.447,6.447,0,0,1,3.165-.773,4.349,4.349,0,0,1,3.288,1.149,4.47,4.47,0,0,1,1.1,3.226v10.664h-1.928V245.023a3.289,3.289,0,0,0-.711-2.318,2.921,2.921,0,0,0-2.228-.759,5.413,5.413,0,0,0-2.66.684,12.21,12.21,0,0,0-2.5,1.887v10.814Z" transform="translate(-2.666)"/><path d="M504.548,257.266a2.981,2.981,0,0,1,.724-2,4.833,4.833,0,0,1,2.024-1.343,1.9,1.9,0,0,1-1.285-1.881,1.851,1.851,0,0,1,.48-1.229,4.166,4.166,0,0,1,1.283-.968,4.775,4.775,0,0,1-1.654-1.771,5.454,5.454,0,0,1-.143-4.621,5.038,5.038,0,0,1,1.216-1.675,5.638,5.638,0,0,1,1.839-1.093,7.074,7.074,0,0,1,4.673,0,5.467,5.467,0,0,1,1.844,1.121,6.935,6.935,0,0,1,1.568-.855,7.2,7.2,0,0,1,1.827-.485V242.4a8.944,8.944,0,0,0-1.342.107,5.666,5.666,0,0,0-1.344.377,4.6,4.6,0,0,1,.854,2.787,5.012,5.012,0,0,1-.448,2.149,4.922,4.922,0,0,1-1.215,1.636,5.27,5.27,0,0,1-1.819,1.034,6.976,6.976,0,0,1-2.274.359,6.651,6.651,0,0,1-2.378-.41,2.687,2.687,0,0,0-.855.525.973.973,0,0,0-.321.729.784.784,0,0,0,.459.728,5.416,5.416,0,0,0,1.719.4l3.222.247a8.119,8.119,0,0,1,3.869,1.114,2.977,2.977,0,0,1,1.313,2.625,3.261,3.261,0,0,1-.5,1.792,4.027,4.027,0,0,1-1.4,1.311,7.476,7.476,0,0,1-2.144.8,12.612,12.612,0,0,1-2.765.281,10.845,10.845,0,0,1-5.325-1A3.049,3.049,0,0,1,504.548,257.266Zm1.873-.241a1.953,1.953,0,0,0,1.278,1.8,9.833,9.833,0,0,0,4.068.625,7.669,7.669,0,0,0,3.541-.678,2.024,2.024,0,0,0,1.285-1.792,1.751,1.751,0,0,0-.917-1.6,7.6,7.6,0,0,0-3.092-.706l-2.921-.238-.781-.083a3.855,3.855,0,0,0-1.86,1.115A2.391,2.391,0,0,0,506.421,257.025Zm.984-11.387a3.551,3.551,0,0,0,1.08,2.72,4.657,4.657,0,0,0,5.777.016,3.5,3.5,0,0,0,1.059-2.679,3.818,3.818,0,0,0-1.032-2.824,4.631,4.631,0,0,0-5.831,0A3.7,3.7,0,0,0,507.405,245.638Z" transform="translate(-2.666)"/><path class="cls-1" d="M512.663,37.207c-7.464-19.5-26.122-32.25-47.87-32.25h-.559v135l21,3.586V106.957h9.957c6.076,0,11.793-1.351,11.793-9.237V73.957h8.25V56.505C515.234,49.922,514.923,42.457,512.663,37.207Z" transform="translate(-2.666)"/><polygon class="cls-2" points="461.568 106.957 461.568 139.957 482.568 143.543 482.568 106.957 482.42 106.957 461.568 106.957"/><path class="cls-3" d="M464.234,73.957v33h30.957c6.076,0,11.793-1.351,11.793-9.237V73.957h-42.75Z" transform="translate(-2.666)"/><path class="cls-4" d="M512.663,37.207H464.234v36.75h51V56.505C515.234,49.922,514.923,42.457,512.663,37.207Z" transform="translate(-2.666)"/><path d="M417.733.457a6,6,0,1,0,5.8,7.5h40.7v-3h-40.7A6.006,6.006,0,0,0,417.733.457Zm0,9a3,3,0,1,1,3-3A3,3,0,0,1,417.734,9.457Zm-27,15a6,6,0,1,0,5.8,7.5h67.7v-3h-67.7A6.006,6.006,0,0,0,390.733,24.457Zm0,9a3,3,0,1,1,3-3A3,3,0,0,1,390.734,33.457Zm13.5,39.375a6,6,0,1,0,5.891,7.125h54.11v-3H409.929A6.007,6.007,0,0,0,404.233,72.832Zm0,9a3,3,0,1,1,3-3A3,3,0,0,1,404.234,81.832Zm31.243,28.383a6,6,0,1,0,1.559,5.742h27.2v-3h-27.2A5.946,5.946,0,0,0,435.477,110.215Zm-1.243,4.242a3,3,0,1,1-.878-2.121,3,3,0,0,1,.878,2.121Zm-21-97.5h51v3h-51Zm3,24h48v3h-48Zm-27,12h75v3h-75Zm36,12h39v3h-39Zm9,24h30v3h-30Zm-9,12h39v3h-39Zm12,24h27v3h-27Zm0,12h27v3h-27ZM498.9,55.346l6.019,3.284-1.437,2.634-10.847-5.918L503.48,49.43l1.437,2.633Z" transform="translate(-2.666)"/><path d="M1052.675,219.331V198.605h6.918a8.612,8.612,0,0,1,5.343,1.426,4.95,4.95,0,0,1,1.848,4.172,5.171,5.171,0,0,1-1.357,3.854,6.8,6.8,0,0,1-3.6,1.759l5.24,9.515h-2.242l-5.065-9.3H1054.6v9.3Zm1.928-11.06h4.846a11.841,11.841,0,0,0,2.286-.2,4.582,4.582,0,0,0,1.684-.658,2.877,2.877,0,0,0,1.034-1.232,4.6,4.6,0,0,0,.349-1.9,3.253,3.253,0,0,0-1.383-2.992,7.55,7.55,0,0,0-4-.87H1054.6Z" transform="translate(-2.666)"/><path d="M1069.354,211.962a9.336,9.336,0,0,1,.533-3.274,7.168,7.168,0,0,1,1.441-2.407,6.029,6.029,0,0,1,2.131-1.483,6.7,6.7,0,0,1,2.588-.506,6.614,6.614,0,0,1,2.559.506,6.044,6.044,0,0,1,2.128,1.483,7.157,7.157,0,0,1,1.444,2.407,10.325,10.325,0,0,1,0,6.555,7.243,7.243,0,0,1-1.444,2.406,5.989,5.989,0,0,1-2.128,1.491,6.729,6.729,0,0,1-5.12,0,6.093,6.093,0,0,1-2.144-1.491,7.118,7.118,0,0,1-1.455-2.406A9.325,9.325,0,0,1,1069.354,211.962Zm1.928-.027a8.925,8.925,0,0,0,.294,2.324,5.756,5.756,0,0,0,.9,1.921,4.511,4.511,0,0,0,1.5,1.319,4.621,4.621,0,0,0,4.066.041,4.453,4.453,0,0,0,1.485-1.251,5.689,5.689,0,0,0,.939-1.9,8.755,8.755,0,0,0,.321-2.454,8.371,8.371,0,0,0-.307-2.29,6,6,0,0,0-.9-1.9,4.49,4.49,0,0,0-1.472-1.305,4.15,4.15,0,0,0-2.06-.493,4.344,4.344,0,0,0-2.006.452,4.408,4.408,0,0,0-1.5,1.244,5.6,5.6,0,0,0-.938,1.9A8.561,8.561,0,0,0,1071.282,211.935Z" transform="translate(-2.666)"/><path d="M1086.362,219.331V198.605h1.928v8.122a10.106,10.106,0,0,1,2.078-1.7,5.3,5.3,0,0,1,2.858-.732,5.993,5.993,0,0,1,2.378.479,5.214,5.214,0,0,1,1.928,1.417,6.959,6.959,0,0,1,1.285,2.38,12.144,12.144,0,0,1,0,6.754,6.688,6.688,0,0,1-1.312,2.377,5.334,5.334,0,0,1-1.983,1.407,6.453,6.453,0,0,1-2.474.471,5.456,5.456,0,0,1-2.6-.625,8.949,8.949,0,0,1-2.16-1.618v2Zm1.928-3.763a9.081,9.081,0,0,0,2.2,1.793,4.829,4.829,0,0,0,2.393.617,4.537,4.537,0,0,0,1.811-.356,3.652,3.652,0,0,0,1.415-1.082,5.289,5.289,0,0,0,.923-1.861,9.623,9.623,0,0,0,.335-2.71,9.148,9.148,0,0,0-.348-2.669,5.351,5.351,0,0,0-.971-1.882,3.989,3.989,0,0,0-1.429-1.109,4.18,4.18,0,0,0-1.736-.363,4.6,4.6,0,0,0-2.447.658,10.586,10.586,0,0,0-2.147,1.779Z" transform="translate(-2.666)"/><path d="M1102.112,211.962a9.336,9.336,0,0,1,.533-3.274,7.152,7.152,0,0,1,1.441-2.407,6.011,6.011,0,0,1,2.131-1.483,6.7,6.7,0,0,1,2.588-.506,6.614,6.614,0,0,1,2.559.506,6.044,6.044,0,0,1,2.128,1.483,7.157,7.157,0,0,1,1.444,2.407,10.325,10.325,0,0,1,0,6.555,7.243,7.243,0,0,1-1.444,2.406,5.989,5.989,0,0,1-2.128,1.491,6.729,6.729,0,0,1-5.12,0,6.093,6.093,0,0,1-2.144-1.491,7.1,7.1,0,0,1-1.455-2.406A9.325,9.325,0,0,1,1102.112,211.962Zm1.928-.027a8.925,8.925,0,0,0,.294,2.324,5.774,5.774,0,0,0,.9,1.921,4.53,4.53,0,0,0,1.5,1.319,4.623,4.623,0,0,0,4.067.041,4.453,4.453,0,0,0,1.485-1.251,5.708,5.708,0,0,0,.939-1.9,8.755,8.755,0,0,0,.321-2.454,8.371,8.371,0,0,0-.308-2.29,6.02,6.02,0,0,0-.9-1.9,4.5,4.5,0,0,0-1.472-1.305,4.153,4.153,0,0,0-2.06-.493,4.344,4.344,0,0,0-2.006.452,4.408,4.408,0,0,0-1.5,1.244,5.614,5.614,0,0,0-.939,1.9A8.562,8.562,0,0,0,1104.04,211.935Z" transform="translate(-2.666)"/><path d="M1117.548,206.233v-1.654h2.584v-5.291h1.928v5.291h3.828v1.654h-3.828V215.5a2.909,2.909,0,0,0,.478,1.8,2.225,2.225,0,0,0,1.846.623h.827a2.466,2.466,0,0,0,.718-.1v1.531q-.342.055-.875.11a10.33,10.33,0,0,1-1.039.055,4.25,4.25,0,0,1-3-.855,3.743,3.743,0,0,1-.882-2.782v-9.653Z" transform="translate(-2.666)"/><path d="M1129.456,201.161v-2.078h2.051v2.078Zm.055,18.17V204.579h1.927v14.752Z" transform="translate(-2.666)"/><path d="M1135.226,211.962a9.513,9.513,0,0,1,.556-3.425,7.015,7.015,0,0,1,1.477-2.392,5.726,5.726,0,0,1,2.116-1.4,6.823,6.823,0,0,1,2.427-.451,6.25,6.25,0,0,1,2.085.321,5.046,5.046,0,0,1,1.579.882,6.194,6.194,0,0,1,1.162,1.292,8.448,8.448,0,0,1,.82,1.538l-1.64.725a6.014,6.014,0,0,0-1.566-2.3,3.712,3.712,0,0,0-2.495-.8,4.7,4.7,0,0,0-1.647.308,3.8,3.8,0,0,0-1.484,1.025,5.369,5.369,0,0,0-1.059,1.86,8.444,8.444,0,0,0-.4,2.8,8.724,8.724,0,0,0,.349,2.584,5.807,5.807,0,0,0,.95,1.886,4.142,4.142,0,0,0,1.429,1.176,3.983,3.983,0,0,0,1.8.41,3.927,3.927,0,0,0,2.495-.745,6.648,6.648,0,0,0,1.743-2.4l1.559.67a11.234,11.234,0,0,1-.985,1.7,5.75,5.75,0,0,1-1.264,1.305,5.651,5.651,0,0,1-1.614.828,6.441,6.441,0,0,1-2.016.294,6,6,0,0,1-2.42-.506,5.826,5.826,0,0,1-2.041-1.491,7.3,7.3,0,0,1-1.395-2.406A9.6,9.6,0,0,1,1135.226,211.962Z" transform="translate(-2.666)"/><path d="M1149.649,216.992l1.231-1.122a6.585,6.585,0,0,0,1.948,1.56,5.64,5.64,0,0,0,2.646.575,5.1,5.1,0,0,0,2.871-.665,2.189,2.189,0,0,0,.97-1.926,2.029,2.029,0,0,0-.957-1.823,10.472,10.472,0,0,0-3.1-1.125l-2.213-.689a5.213,5.213,0,0,1-1.629-.8,3.191,3.191,0,0,1-.964-1.162,3.8,3.8,0,0,1-.321-1.652,3.4,3.4,0,0,1,.335-1.484,3.638,3.638,0,0,1,.977-1.239,4.818,4.818,0,0,1,1.566-.841,6.72,6.72,0,0,1,2.126-.308,7.84,7.84,0,0,1,3.2.574,7.539,7.539,0,0,1,2.27,1.56l-1.094,1.286a6.531,6.531,0,0,0-1.9-1.327,5.658,5.658,0,0,0-2.406-.493,5.172,5.172,0,0,0-1.476.181,2.858,2.858,0,0,0-.978.486,1.984,1.984,0,0,0-.56.686,1.819,1.819,0,0,0-.185.8,1.789,1.789,0,0,0,.832,1.6,9.021,9.021,0,0,0,2.771.99l2.416.736a5.54,5.54,0,0,1,1.768.869,3.472,3.472,0,0,1,1.056,1.289,4.446,4.446,0,0,1,.344,1.864,3.613,3.613,0,0,1-.437,1.793,4.113,4.113,0,0,1-1.189,1.33,5.339,5.339,0,0,1-1.8.818,9.2,9.2,0,0,1-2.311.273,7.736,7.736,0,0,1-3.466-.735A6.339,6.339,0,0,1,1149.649,216.992Z" transform="translate(-2.666)"/><path d="M1156.56,43.5v-3a23.9,23.9,0,0,0-16.163,6.275l-22.958-22.958a16.5,16.5,0,1,0-29.777-.442l-20.314,20.314a19.5,19.5,0,1,0-8.288,37.145c.115,0,.228-.006.342-.008l24.666,23.976a42.043,42.043,0,0,0-23.508,37.7V144h84v-1.5a41.925,41.925,0,0,0-15.128-32.249l-50.917-50.173a19.358,19.358,0,0,0-2.4-8.186l20.173-20.172a16.467,16.467,0,0,0,12.27.185l25.181,25.181A23.989,23.989,0,0,0,1156.56,88.5v-3a21,21,0,0,1,0-42Zm-114,17.834a16.5,16.5,0,1,1,16.5,16.5A16.519,16.519,0,0,1,1042.56,61.334ZM1141.531,141h-77.942a39,39,0,0,1,77.942,0Zm-38.971-40.5a41.767,41.767,0,0,0-15.536,2.991l-23.779-23.114a19.545,19.545,0,0,0,15.111-16.244l40.076,39.491A41.764,41.764,0,0,0,1102.56,100.5Zm-28.139-51.156a19.664,19.664,0,0,0-4.376-4.111l19.175-19.174a16.634,16.634,0,0,0,4.308,4.178ZM1089.156,16.5a13.5,13.5,0,1,1,13.5,13.5A13.515,13.515,0,0,1,1089.156,16.5Zm22.23,13.992a16.618,16.618,0,0,0,4.431-4.054l22.5,22.5a24.1,24.1,0,0,0-3.361,5.125Z" transform="translate(-2.666)"/><path class="cls-5" d="M1170.948,56.721a15.738,15.738,0,1,0,2.112,7.875A15.739,15.739,0,0,0,1170.948,56.721Z" transform="translate(-2.666)"/><path class="cls-2" d="M1143.672,56.721h27.276a15.747,15.747,0,0,0-27.276,0Z" transform="translate(-2.666)"/><path class="cls-3" d="M1143.672,56.721a15.67,15.67,0,0,0-2.112,7.875h31.5a15.67,15.67,0,0,0-2.112-7.875Z" transform="translate(-2.666)"/><path class="cls-4" d="M1143.672,72.471h27.276a15.67,15.67,0,0,0,2.112-7.875h-31.5A15.67,15.67,0,0,0,1143.672,72.471Z" transform="translate(-2.666)"/><path d="M2.666,219.332V198.606h2.6L12.2,216.762h.055l6.885-18.156h2.624v20.726H19.783V201.969h-.054c-.156.465-.344,1.02-.568,1.668s-.462,1.3-.717,1.969l-5.382,13.726H11.246L5.878,205.606c-.128-.329-.244-.638-.349-.93s-.207-.576-.307-.855-.2-.572-.307-.881-.212-.652-.321-1.026H4.539v17.418Z" transform="translate(-2.666)"/><path d="M25.73,215.877a4.2,4.2,0,0,1,.506-2.027,5,5,0,0,1,1.682-1.72,12.506,12.506,0,0,1,3.083-1.4,30.476,30.476,0,0,1,4.724-1.038v-.757a3.081,3.081,0,0,0-.765-2.292,3.045,3.045,0,0,0-2.225-.751,6.576,6.576,0,0,0-3.046.661,12.525,12.525,0,0,0-2.458,1.679l-1.046-1.211a11.8,11.8,0,0,1,2.94-1.975,8.8,8.8,0,0,1,3.788-.754,4.656,4.656,0,0,1,3.616,1.243,4.965,4.965,0,0,1,1.123,3.455v6.7a21.109,21.109,0,0,0,.1,2.212,5.794,5.794,0,0,0,.314,1.433H36.068c-.091-.321-.172-.643-.24-.97a5.589,5.589,0,0,1-.1-1.147,9.226,9.226,0,0,1-2.709,1.772,8.041,8.041,0,0,1-3.106.591,4.464,4.464,0,0,1-3.083-.98A3.462,3.462,0,0,1,25.73,215.877Zm1.928-.245a2.152,2.152,0,0,0,.71,1.76,3,3,0,0,0,1.965.587,6.87,6.87,0,0,0,2.907-.615,9.1,9.1,0,0,0,2.485-1.705v-4.585a30,30,0,0,0-3.924.88,10.919,10.919,0,0,0-2.471,1.058,3.7,3.7,0,0,0-1.3,1.228A2.76,2.76,0,0,0,27.658,215.632Z" transform="translate(-2.666)"/><path d="M41.1,211.963a9.513,9.513,0,0,1,.556-3.425,7.015,7.015,0,0,1,1.477-2.392,5.726,5.726,0,0,1,2.116-1.4,6.827,6.827,0,0,1,2.427-.451,6.25,6.25,0,0,1,2.085.321,5.046,5.046,0,0,1,1.579.882,6.194,6.194,0,0,1,1.162,1.292,8.387,8.387,0,0,1,.82,1.538l-1.64.725a6.014,6.014,0,0,0-1.566-2.3,3.712,3.712,0,0,0-2.495-.8,4.7,4.7,0,0,0-1.647.308,3.8,3.8,0,0,0-1.484,1.025,5.369,5.369,0,0,0-1.059,1.86,8.444,8.444,0,0,0-.4,2.8,8.724,8.724,0,0,0,.349,2.584,5.807,5.807,0,0,0,.95,1.886,4.142,4.142,0,0,0,1.429,1.176,3.983,3.983,0,0,0,1.8.41,3.927,3.927,0,0,0,2.495-.745,6.648,6.648,0,0,0,1.743-2.4l1.559.67a11.151,11.151,0,0,1-.985,1.7,5.75,5.75,0,0,1-1.264,1.305,5.651,5.651,0,0,1-1.614.828,6.441,6.441,0,0,1-2.016.294,6,6,0,0,1-2.42-.506,5.826,5.826,0,0,1-2.041-1.491,7.3,7.3,0,0,1-1.4-2.406A9.621,9.621,0,0,1,41.1,211.963Z" transform="translate(-2.666)"/><path d="M56.807,219.332V198.606h1.927v8.3a10.892,10.892,0,0,1,2.468-1.838,6.447,6.447,0,0,1,3.165-.773,4.353,4.353,0,0,1,3.288,1.148,4.475,4.475,0,0,1,1.1,3.227v10.664H66.828V209.024a3.289,3.289,0,0,0-.711-2.318,2.921,2.921,0,0,0-2.228-.759,5.413,5.413,0,0,0-2.66.684,12.21,12.21,0,0,0-2.495,1.887v10.814Z" transform="translate(-2.666)"/><path d="M73.186,201.162v-2.078h2.05v2.078Zm.054,18.17V204.58h1.928v14.752Z" transform="translate(-2.666)"/><path d="M79.8,219.332V204.58H81.73V206.9a10.892,10.892,0,0,1,2.468-1.838,6.45,6.45,0,0,1,3.165-.773,4.353,4.353,0,0,1,3.288,1.148,4.475,4.475,0,0,1,1.1,3.227v10.664H89.824V209.024a3.289,3.289,0,0,0-.711-2.318,2.921,2.921,0,0,0-2.228-.759,5.409,5.409,0,0,0-2.659.684,12.187,12.187,0,0,0-2.5,1.887v10.814Z" transform="translate(-2.666)"/><path d="M95.225,211.936a9.158,9.158,0,0,1,.574-3.4,6.991,6.991,0,0,1,1.5-2.379,6.193,6.193,0,0,1,2.071-1.4,6.092,6.092,0,0,1,2.317-.465,5.812,5.812,0,0,1,2.4.492,5.219,5.219,0,0,1,1.9,1.456,7.175,7.175,0,0,1,1.265,2.407,10.828,10.828,0,0,1,.465,3.315v.369H97.152a7.235,7.235,0,0,0,.376,2.432,5.544,5.544,0,0,0,1,1.786,4.25,4.25,0,0,0,3.268,1.5,4.8,4.8,0,0,0,2.7-.693,6.742,6.742,0,0,0,1.894-2.013l1.2.961a7.767,7.767,0,0,1-2.4,2.447,6.445,6.445,0,0,1-3.52.9,6.3,6.3,0,0,1-2.461-.493,5.659,5.659,0,0,1-2.055-1.476,7.469,7.469,0,0,1-1.408-2.406A9.553,9.553,0,0,1,95.225,211.936Zm1.955-1.149h8.654a9.346,9.346,0,0,0-.376-1.931,4.966,4.966,0,0,0-.793-1.568,3.5,3.5,0,0,0-1.271-1.031,3.981,3.981,0,0,0-1.744-.364,4.1,4.1,0,0,0-1.545.3,4,4,0,0,0-1.346.9,5.117,5.117,0,0,0-1.026,1.519A7.081,7.081,0,0,0,97.18,210.787Z" transform="translate(-2.666)"/><path d="M117.852,219.332V198.606h1.927v20.726Z" transform="translate(-2.666)"/><path d="M123.566,211.936a9.157,9.157,0,0,1,.575-3.4,6.961,6.961,0,0,1,1.5-2.379,6.193,6.193,0,0,1,2.071-1.4,6.092,6.092,0,0,1,2.317-.465,5.815,5.815,0,0,1,2.4.492,5.219,5.219,0,0,1,1.9,1.456,7.175,7.175,0,0,1,1.265,2.407,10.83,10.83,0,0,1,.464,3.315v.369H125.494a7.235,7.235,0,0,0,.376,2.432,5.544,5.544,0,0,0,1,1.786,4.25,4.25,0,0,0,3.268,1.5,4.8,4.8,0,0,0,2.7-.693,6.727,6.727,0,0,0,1.893-2.013l1.2.961a7.764,7.764,0,0,1-2.4,2.447,6.445,6.445,0,0,1-3.52.9,6.3,6.3,0,0,1-2.461-.493,5.65,5.65,0,0,1-2.055-1.476,7.469,7.469,0,0,1-1.408-2.406A9.552,9.552,0,0,1,123.566,211.936Zm1.955-1.149h8.655a9.48,9.48,0,0,0-.376-1.931,4.966,4.966,0,0,0-.793-1.568,3.493,3.493,0,0,0-1.272-1.031,3.98,3.98,0,0,0-1.743-.364,4.1,4.1,0,0,0-1.545.3,4,4,0,0,0-1.346.9,5.1,5.1,0,0,0-1.026,1.519A7.08,7.08,0,0,0,125.521,210.787Z" transform="translate(-2.666)"/><path d="M138.551,215.877a4.2,4.2,0,0,1,.506-2.027,5,5,0,0,1,1.681-1.72,12.523,12.523,0,0,1,3.083-1.4,30.5,30.5,0,0,1,4.724-1.038v-.757a3.081,3.081,0,0,0-.765-2.292,3.043,3.043,0,0,0-2.224-.751,6.571,6.571,0,0,0-3.046.661,12.466,12.466,0,0,0-2.458,1.679l-1.047-1.211a11.8,11.8,0,0,1,2.94-1.975,8.807,8.807,0,0,1,3.788-.754,4.657,4.657,0,0,1,3.617,1.243,4.965,4.965,0,0,1,1.123,3.455v6.7a21.147,21.147,0,0,0,.095,2.212,5.745,5.745,0,0,0,.315,1.433h-1.994c-.092-.321-.172-.643-.241-.97a5.589,5.589,0,0,1-.1-1.147,9.226,9.226,0,0,1-2.709,1.772,8.034,8.034,0,0,1-3.106.591,4.464,4.464,0,0,1-3.083-.98A3.462,3.462,0,0,1,138.551,215.877Zm1.928-.245a2.152,2.152,0,0,0,.709,1.76,3,3,0,0,0,1.965.587,6.877,6.877,0,0,0,2.908-.615,9.11,9.11,0,0,0,2.484-1.705v-4.585a30,30,0,0,0-3.924.88,10.939,10.939,0,0,0-2.471,1.058,3.691,3.691,0,0,0-1.3,1.228A2.76,2.76,0,0,0,140.479,215.632Z" transform="translate(-2.666)"/><path d="M154.766,219.332V204.58h1.927v2.937h.055a7.5,7.5,0,0,1,2.276-2.308,6.425,6.425,0,0,1,3.576-.916h.341l-.191,1.818h-.287a1.207,1.207,0,0,1-.192-.013.848.848,0,0,0-.109-.014,5.506,5.506,0,0,0-3.213.955,7,7,0,0,0-2.256,2.715v9.578Z" transform="translate(-2.666)"/><path d="M165.826,219.332V204.58h1.928V206.9a10.87,10.87,0,0,1,2.468-1.838,6.445,6.445,0,0,1,3.165-.773,4.354,4.354,0,0,1,3.288,1.148,4.478,4.478,0,0,1,1.1,3.227v10.664h-1.927V209.024a3.293,3.293,0,0,0-.711-2.318,2.924,2.924,0,0,0-2.229-.759,5.409,5.409,0,0,0-2.659.684,12.21,12.21,0,0,0-2.5,1.887v10.814Z" transform="translate(-2.666)"/><path d="M182.205,201.162v-2.078h2.051v2.078Zm.055,18.17V204.58h1.928v14.752Z" transform="translate(-2.666)"/><path d="M188.822,219.332V204.58h1.928V206.9a10.87,10.87,0,0,1,2.468-1.838,6.445,6.445,0,0,1,3.165-.773,4.353,4.353,0,0,1,3.288,1.148,4.478,4.478,0,0,1,1.1,3.227v10.664h-1.927V209.024a3.293,3.293,0,0,0-.711-2.318,2.924,2.924,0,0,0-2.229-.759,5.409,5.409,0,0,0-2.659.684,12.21,12.21,0,0,0-2.5,1.887v10.814Z" transform="translate(-2.666)"/><path d="M203.438,221.267a2.981,2.981,0,0,1,.724-2,4.826,4.826,0,0,1,2.024-1.343,1.9,1.9,0,0,1-1.286-1.881,1.85,1.85,0,0,1,.481-1.229,4.166,4.166,0,0,1,1.283-.968,4.767,4.767,0,0,1-1.654-1.771,5.459,5.459,0,0,1-.144-4.621,5.041,5.041,0,0,1,1.217-1.675,5.638,5.638,0,0,1,1.839-1.093,6.6,6.6,0,0,1,2.324-.4,6.671,6.671,0,0,1,2.349.4,5.453,5.453,0,0,1,1.843,1.121,6.943,6.943,0,0,1,1.569-.855,7.184,7.184,0,0,1,1.827-.485V206.4a8.957,8.957,0,0,0-1.343.107,5.666,5.666,0,0,0-1.344.377A4.6,4.6,0,0,1,216,209.67a5.012,5.012,0,0,1-.448,2.149,4.922,4.922,0,0,1-1.215,1.636,5.279,5.279,0,0,1-1.819,1.034,6.98,6.98,0,0,1-2.274.359,6.66,6.66,0,0,1-2.379-.41,2.693,2.693,0,0,0-.854.525.974.974,0,0,0-.322.729.786.786,0,0,0,.459.728,5.425,5.425,0,0,0,1.72.4l3.222.247a8.119,8.119,0,0,1,3.869,1.114,2.976,2.976,0,0,1,1.312,2.625,3.269,3.269,0,0,1-.5,1.792,4.027,4.027,0,0,1-1.4,1.311,7.5,7.5,0,0,1-2.145.8,12.6,12.6,0,0,1-2.764.281,10.843,10.843,0,0,1-5.325-1A3.049,3.049,0,0,1,203.438,221.267Zm1.873-.241a1.952,1.952,0,0,0,1.278,1.8,9.827,9.827,0,0,0,4.067.625,7.666,7.666,0,0,0,3.541-.678,2.024,2.024,0,0,0,1.285-1.792,1.749,1.749,0,0,0-.917-1.6,7.592,7.592,0,0,0-3.091-.706l-2.921-.238-.782-.083a3.851,3.851,0,0,0-1.859,1.115A2.391,2.391,0,0,0,205.311,221.026Zm.984-11.387a3.548,3.548,0,0,0,1.08,2.72,4.656,4.656,0,0,0,5.776.016,3.5,3.5,0,0,0,1.06-2.679,3.822,3.822,0,0,0-1.032-2.824,4.631,4.631,0,0,0-5.831,0A3.7,3.7,0,0,0,206.3,209.639Z" transform="translate(-2.666)"/><path class="cls-6" d="M112.238,55.158l-9.871-.416A11.9,11.9,0,0,1,90.5,66.126c-.17,0-.34,0-.51-.011a11.8,11.8,0,0,1-5.382-1.553L79.459,72.97l-.675,1.1,4.234,2.786,3.09-5.044a16.962,16.962,0,0,0,8.136.343L96.9,77.442l4.453-2.419,4.453-2.42-2.656-5.288a18.225,18.225,0,0,0,2.592-3.3,18.558,18.558,0,0,0,1.785-3.836l5.746.243.189-5.206Z" transform="translate(-2.666)"/><path class="cls-2" d="M89.993,66.115a11.8,11.8,0,0,1-5.382-1.553L79.459,72.97l-.675,1.1,4.234,2.786,3.09-5.044a17.015,17.015,0,0,0,4.047.667l.055-1.3.213-5.054C90.28,66.123,90.137,66.121,89.993,66.115Z" transform="translate(-2.666)"/><path class="cls-3" d="M96.156,64.677A11.769,11.769,0,0,1,90.5,66.126l-.08,0-.213,5.054-.055,1.3a17.064,17.064,0,0,0,4.089-.324L96.9,77.442l4.453-2.419-.579-1.154Z" transform="translate(-2.666)"/><path class="cls-4" d="M103.149,67.315a18.225,18.225,0,0,0,2.592-3.3l-1.059-.7-4.15-2.732a11.708,11.708,0,0,1-4.376,4.1l4.617,9.192.579,1.154,4.453-2.42Z" transform="translate(-2.666)"/><path d="M130.481,140.073l-53.845-10.5V95.483a51.614,51.614,0,1,1,84.3-39.938V91.209h-8.861v9.852a11.537,11.537,0,0,1-11.524,11.524H130.481ZM79.636,127.107l47.845,9.325V109.585h13.073a8.534,8.534,0,0,0,8.524-8.524V88.209h8.861V55.545A48.619,48.619,0,1,0,79.07,93.593l.566.45Zm64.571-56.24-6.2-3.465,6.2-3.466-1.463-2.618L131.858,67.4l10.886,6.084Z" transform="translate(-2.666)"/><path d="M90.994,42.367a11.885,11.885,0,0,0-1,23.748c.17.007.34.011.51.011a11.885,11.885,0,0,0,.491-23.759ZM90.108,63.38a9.16,9.16,0,1,1,6.572-2.408A9.085,9.085,0,0,1,90.108,63.38Zm23.353-8.169-1.223-.053-1.481-.063.125-2.959-5.2-.219-.229-1.025a15.329,15.329,0,0,0-3.67-7.022l-.71-.773,2.789-4.391-5-3.175L96.078,39.92l-1-.312a15.349,15.349,0,0,0-7.919-.334l-1.024.227-2.408-4.608-5.249,2.743,2.408,4.61-.773.711a15.331,15.331,0,0,0-4.248,6.687l-.314,1-5.2-.219-.25,5.918,5.2.219.229,1.025a15.333,15.333,0,0,0,3.67,7.023l.71.773-2.788,4.391,3.093,1.963-.755,1.231-.675,1.1,0,0v0l-5.444-3.456,3.147-4.957a18.152,18.152,0,0,1-3.371-6.45l-5.865-.247.48-11.388,5.865.248a18.16,18.16,0,0,1,3.9-6.144l-2.719-5.2,10.1-5.278L87.6,36.4a18.09,18.09,0,0,1,7.272.307l3.147-4.956,9.621,6.11L104.5,42.819a18.189,18.189,0,0,1,3.371,6.451l5.864.247-.271,5.694" transform="translate(-2.666)"/><path d="M124.217,26.885a5.387,5.387,0,0,0-3.631-2.309,5.24,5.24,0,0,0-.6-.06,5.557,5.557,0,0,0-.6.01,5.376,5.376,0,0,0-4.64,7.307,5.462,5.462,0,0,0,.558,1.06,5.393,5.393,0,0,0,3.634,2.31,5.264,5.264,0,0,0,.6.059c.069,0,.139.005.21.005.124,0,.253-.005.39-.014a5.364,5.364,0,0,0,4.081-8.368ZM119.636,32.9a3.052,3.052,0,0,1-.337-.034,3.021,3.021,0,0,1-2.035-1.3,2.98,2.98,0,0,1-.314-.594,3.02,3.02,0,0,1,2.6-4.1c.08-.006.155-.009.227-.009l.11,0a3.36,3.36,0,0,1,.337.035,3.019,3.019,0,0,1,2.034,1.3,2.992,2.992,0,0,1,.212,3v0a3.053,3.053,0,0,1-.362.564,3.026,3.026,0,0,1-2.474,1.127Zm10.732.507,4.356-.094-.162-7.5-4.356.094a11.254,11.254,0,0,0-2.093-3.444l2.1-3.823-6.573-3.608-2.1,3.821a11.471,11.471,0,0,0-2.018-.139,11.091,11.091,0,0,0-2.011.227l-2.261-3.728-6.411,3.889,2.262,3.729a11.237,11.237,0,0,0-1.943,3.531l-4.356.1.162,7.5,4.356-.094a11.259,11.259,0,0,0,2.093,3.445l-2.1,3.823,6.573,3.608,2.1-3.822a11.158,11.158,0,0,0,4.03-.087l2.26,3.728,6.412-3.889-2.262-3.729A11.251,11.251,0,0,0,130.368,33.41Zm-5.235,7.647-1.938-3.2-.946.284a8.608,8.608,0,0,1-4.614.1L116.677,38l-1.8,3.277-2.1-1.154,1.8-3.279-.718-.677a8.607,8.607,0,0,1-2.4-3.944l-.268-.951-3.735.081-.052-2.4,3.736-.081.226-.962a8.609,8.609,0,0,1,2.223-4.043l.69-.707-1.94-3.2,2.052-1.244,1.938,3.2.945-.283a8.611,8.611,0,0,1,4.615-.1l.956.243,1.8-3.277,2.1,1.154-1.8,3.278.719.678a8.589,8.589,0,0,1,2.4,3.943l.268.951,3.736-.081.052,2.4-3.736.081-.226.962a8.619,8.619,0,0,1-2.223,4.043l-.69.707,1.939,3.2Z" transform="translate(-2.666)"/><path d="M691.878,208.872a14.325,14.325,0,0,1,.615-4.307,10.2,10.2,0,0,1,1.75-3.374,7.806,7.806,0,0,1,6.262-2.969,6.945,6.945,0,0,1,4.964,1.72,9.275,9.275,0,0,1,2.551,4.6l-1.923.464a8.319,8.319,0,0,0-1.969-3.713,4.979,4.979,0,0,0-3.65-1.256,5.874,5.874,0,0,0-2.735.628,6,6,0,0,0-2.071,1.774,8.737,8.737,0,0,0-1.333,2.772,12.725,12.725,0,0,0-.479,3.6,14.164,14.164,0,0,0,.479,3.85,8.542,8.542,0,0,0,1.347,2.847,5.857,5.857,0,0,0,4.846,2.395,5.416,5.416,0,0,0,3.78-1.317,7.74,7.74,0,0,0,2.126-3.939l1.928.411a9.324,9.324,0,0,1-2.737,4.881,7.367,7.367,0,0,1-5.124,1.783,8.042,8.042,0,0,1-3.562-.774,7.8,7.8,0,0,1-2.714-2.177,10.165,10.165,0,0,1-1.736-3.408A15.311,15.311,0,0,1,691.878,208.872Z" transform="translate(-2.666)"/><path d="M710.923,211.962a9.36,9.36,0,0,1,.532-3.274,7.184,7.184,0,0,1,1.441-2.407,6.029,6.029,0,0,1,2.131-1.483,6.707,6.707,0,0,1,2.588-.506,6.619,6.619,0,0,1,2.56.506,6.062,6.062,0,0,1,2.128,1.483,7.156,7.156,0,0,1,1.443,2.407,10.325,10.325,0,0,1,0,6.555,7.241,7.241,0,0,1-1.443,2.406,6.007,6.007,0,0,1-2.128,1.491,6.729,6.729,0,0,1-5.12,0,6.088,6.088,0,0,1-2.145-1.491,7.134,7.134,0,0,1-1.455-2.406A9.349,9.349,0,0,1,710.923,211.962Zm1.928-.027a8.883,8.883,0,0,0,.294,2.324,5.774,5.774,0,0,0,.9,1.921,4.511,4.511,0,0,0,1.5,1.319,4.621,4.621,0,0,0,4.066.041,4.446,4.446,0,0,0,1.486-1.251,5.706,5.706,0,0,0,.938-1.9,8.753,8.753,0,0,0,.322-2.454,8.371,8.371,0,0,0-.308-2.29,6,6,0,0,0-.9-1.9,4.487,4.487,0,0,0-1.471-1.305,4.157,4.157,0,0,0-2.061-.493,4.344,4.344,0,0,0-2.006.452,4.427,4.427,0,0,0-1.5,1.244,5.613,5.613,0,0,0-.938,1.9A8.562,8.562,0,0,0,712.851,211.935Z" transform="translate(-2.666)"/><path d="M727.931,219.331V204.579h1.927V206.9a12.38,12.38,0,0,1,2.427-1.852,5.8,5.8,0,0,1,2.974-.759,4.4,4.4,0,0,1,2.8.745,3.685,3.685,0,0,1,1.248,1.921,13.82,13.82,0,0,1,2.552-1.88,6.012,6.012,0,0,1,3.034-.786,4.05,4.05,0,0,1,3.263,1.176,4.805,4.805,0,0,1,.992,3.2v10.664h-1.927V209.023a3.692,3.692,0,0,0-.6-2.318,2.647,2.647,0,0,0-2.178-.759,4.864,4.864,0,0,0-2.506.684,13.413,13.413,0,0,0-2.424,1.887v10.814h-1.928V209.023a3.693,3.693,0,0,0-.6-2.318,2.656,2.656,0,0,0-2.187-.759,4.876,4.876,0,0,0-2.516.684,13.467,13.467,0,0,0-2.42,1.887v10.814Z" transform="translate(-2.666)"/><path d="M753.5,224.937V204.579h1.928v2.093a10.2,10.2,0,0,1,2.078-1.662,5.379,5.379,0,0,1,2.857-.718,5.994,5.994,0,0,1,2.379.479,5.222,5.222,0,0,1,1.928,1.417,6.959,6.959,0,0,1,1.285,2.38,12.144,12.144,0,0,1,0,6.754,6.7,6.7,0,0,1-1.312,2.377,5.334,5.334,0,0,1-1.983,1.407,6.456,6.456,0,0,1-2.474.471,5.453,5.453,0,0,1-2.6-.625,8.949,8.949,0,0,1-2.16-1.618v7.6Zm1.928-9.369a9.062,9.062,0,0,0,2.2,1.793,4.829,4.829,0,0,0,2.393.617,4.54,4.54,0,0,0,1.811-.356,3.652,3.652,0,0,0,1.415-1.082,5.306,5.306,0,0,0,.923-1.861,9.623,9.623,0,0,0,.335-2.71,9.112,9.112,0,0,0-.349-2.669,5.333,5.333,0,0,0-.97-1.882,3.989,3.989,0,0,0-1.429-1.109,4.18,4.18,0,0,0-1.736-.363,4.608,4.608,0,0,0-2.448.658,10.61,10.61,0,0,0-2.146,1.779Z" transform="translate(-2.666)"/><path d="M769.958,215.243V204.579h1.928V214.9a3.356,3.356,0,0,0,.7,2.332,2.919,2.919,0,0,0,2.242.758,5.211,5.211,0,0,0,2.646-.7,13.709,13.709,0,0,0,2.481-1.88V204.579h1.928v14.752h-1.928v-2.324a11.224,11.224,0,0,1-2.468,1.852,6.291,6.291,0,0,1-3.137.787,4.313,4.313,0,0,1-3.3-1.163A4.555,4.555,0,0,1,769.958,215.243Z" transform="translate(-2.666)"/><path d="M784.792,206.233v-1.654h2.584v-5.291H789.3v5.291h3.828v1.654H789.3V215.5a2.909,2.909,0,0,0,.478,1.8,2.226,2.226,0,0,0,1.846.623h.827a2.462,2.462,0,0,0,.718-.1v1.531q-.342.055-.875.11a10.33,10.33,0,0,1-1.039.055,4.25,4.25,0,0,1-3-.855,3.743,3.743,0,0,1-.882-2.782v-9.653Z" transform="translate(-2.666)"/><path d="M795.5,211.935a9.158,9.158,0,0,1,.574-3.4,6.991,6.991,0,0,1,1.5-2.379,6.2,6.2,0,0,1,2.071-1.4,6.1,6.1,0,0,1,2.318-.465,5.807,5.807,0,0,1,2.4.492,5.222,5.222,0,0,1,1.9,1.456,7.156,7.156,0,0,1,1.264,2.407,10.8,10.8,0,0,1,.465,3.315v.369H797.425a7.235,7.235,0,0,0,.376,2.432,5.544,5.544,0,0,0,1,1.786,4.245,4.245,0,0,0,3.267,1.5,4.8,4.8,0,0,0,2.7-.693,6.717,6.717,0,0,0,1.894-2.013l1.2.961a7.764,7.764,0,0,1-2.4,2.447,6.448,6.448,0,0,1-3.521.9,6.3,6.3,0,0,1-2.461-.493,5.655,5.655,0,0,1-2.054-1.476,7.489,7.489,0,0,1-1.409-2.406A9.576,9.576,0,0,1,795.5,211.935Zm1.955-1.149h8.654a9.346,9.346,0,0,0-.376-1.931,4.964,4.964,0,0,0-.792-1.568,3.493,3.493,0,0,0-1.272-1.031,3.98,3.98,0,0,0-1.743-.364,4.1,4.1,0,0,0-1.545.3,4.018,4.018,0,0,0-1.347.9,5.089,5.089,0,0,0-1.025,1.52A7.066,7.066,0,0,0,797.452,210.786Z" transform="translate(-2.666)"/><path d="M811.63,219.331V204.579h1.928v2.937h.054a7.493,7.493,0,0,1,2.277-2.308,6.421,6.421,0,0,1,3.575-.916h.342l-.192,1.818h-.287a1.185,1.185,0,0,1-.191-.013.878.878,0,0,0-.11-.014,5.508,5.508,0,0,0-3.213.955,7,7,0,0,0-2.255,2.715v9.578Z" transform="translate(-2.666)"/><path d="M827.5,204.579h2.078l4.361,12.455H834l4.348-12.455H840.3l-5.428,14.807h-1.928Z" transform="translate(-2.666)"/><path d="M843.376,201.161v-2.078h2.051v2.078Zm.055,18.17V204.579h1.927v14.752Z" transform="translate(-2.666)"/><path d="M848.954,216.992l1.231-1.122a6.573,6.573,0,0,0,1.948,1.56,5.636,5.636,0,0,0,2.645.575,5.093,5.093,0,0,0,2.871-.665,2.188,2.188,0,0,0,.971-1.926,2.029,2.029,0,0,0-.957-1.823,10.494,10.494,0,0,0-3.1-1.125l-2.213-.689a5.192,5.192,0,0,1-1.629-.8,3.191,3.191,0,0,1-.964-1.162,3.8,3.8,0,0,1-.321-1.652,3.4,3.4,0,0,1,.335-1.484,3.614,3.614,0,0,1,.977-1.239,4.808,4.808,0,0,1,1.566-.841,6.72,6.72,0,0,1,2.126-.308,7.844,7.844,0,0,1,3.2.574,7.535,7.535,0,0,1,2.269,1.56l-1.093,1.286a6.531,6.531,0,0,0-1.9-1.327,5.664,5.664,0,0,0-2.406-.493,5.185,5.185,0,0,0-1.477.181,2.862,2.862,0,0,0-.977.486,1.987,1.987,0,0,0-.561.686,1.832,1.832,0,0,0-.184.8,1.789,1.789,0,0,0,.832,1.6,9,9,0,0,0,2.77.99l2.416.736a5.545,5.545,0,0,1,1.769.869,3.469,3.469,0,0,1,1.055,1.289,4.429,4.429,0,0,1,.345,1.864,3.613,3.613,0,0,1-.437,1.793,4.1,4.1,0,0,1-1.19,1.33,5.334,5.334,0,0,1-1.8.818,9.2,9.2,0,0,1-2.311.273,7.733,7.733,0,0,1-3.466-.735A6.339,6.339,0,0,1,848.954,216.992Z" transform="translate(-2.666)"/><path d="M864.267,201.161v-2.078h2.05v2.078Zm.054,18.17V204.579h1.928v14.752Z" transform="translate(-2.666)"/><path d="M870.036,211.962a9.36,9.36,0,0,1,.532-3.274,7.17,7.17,0,0,1,1.442-2.407,6.011,6.011,0,0,1,2.131-1.483,6.7,6.7,0,0,1,2.588-.506,6.614,6.614,0,0,1,2.559.506,6.044,6.044,0,0,1,2.128,1.483,7.156,7.156,0,0,1,1.443,2.407,10.307,10.307,0,0,1,0,6.555,7.241,7.241,0,0,1-1.443,2.406,5.989,5.989,0,0,1-2.128,1.491,6.729,6.729,0,0,1-5.12,0,6.106,6.106,0,0,1-2.145-1.491,7.134,7.134,0,0,1-1.455-2.406A9.349,9.349,0,0,1,870.036,211.962Zm1.928-.027a8.925,8.925,0,0,0,.294,2.324,5.774,5.774,0,0,0,.9,1.921,4.53,4.53,0,0,0,1.5,1.319,4.623,4.623,0,0,0,4.067.041,4.453,4.453,0,0,0,1.485-1.251,5.708,5.708,0,0,0,.939-1.9,8.791,8.791,0,0,0,.321-2.454,8.371,8.371,0,0,0-.308-2.29,6.02,6.02,0,0,0-.9-1.9,4.5,4.5,0,0,0-1.472-1.305,4.153,4.153,0,0,0-2.06-.493,4.341,4.341,0,0,0-2.006.452,4.408,4.408,0,0,0-1.5,1.244,5.6,5.6,0,0,0-.939,1.9A8.562,8.562,0,0,0,871.964,211.935Z" transform="translate(-2.666)"/><path d="M887.044,219.331V204.579h1.928V206.9a10.886,10.886,0,0,1,2.467-1.838,6.45,6.45,0,0,1,3.165-.773,4.353,4.353,0,0,1,3.289,1.149,4.474,4.474,0,0,1,1.1,3.226v10.664h-1.928V209.023a3.289,3.289,0,0,0-.711-2.318,2.92,2.92,0,0,0-2.228-.759,5.409,5.409,0,0,0-2.659.684,12.21,12.21,0,0,0-2.5,1.887v10.814Z" transform="translate(-2.666)"/><path d="M777.513,20.887a6,6,0,1,0-5.743,1.56v11.2h3V22.449A5.96,5.96,0,0,0,777.513,20.887Zm-4.243-1.243a3,3,0,1,1,2.121-.878,3,3,0,0,1-2.121.878Zm25.5,0v22h-3v-22Zm-12-6v21h-3v-21Zm-24,5v17h-3v-17Zm-12,4v19h-3v-19Z" transform="translate(-2.666)"/><path d="M819.2,108.1l29.445,29.437a9.311,9.311,0,0,0,10.08,2.04,9.288,9.288,0,0,0,5.8-8.617,9.264,9.264,0,0,0-2.723-6.585L845.533,108.1l-3-3-30.008-30A46.476,46.476,0,0,0,774.982,3.737h-3.3a46.493,46.493,0,0,0,.086,92.936v.087h3v-.08a46.22,46.22,0,0,0,24.84-8.175l16.6,16.6M799.108,85.175a43.2,43.2,0,0,1-24.345,8.5c-.5.022-.99.03-1.492.03s-1-.008-1.508-.03a43.5,43.5,0,0,1,0-86.94c.5-.023,1-.03,1.508-.03s1,.007,1.492.03a43.49,43.49,0,0,1,24.345,78.442Zm2.94,1.53a46.966,46.966,0,0,0,8.468-8.692l.337-.338,3.938,3.938c-2.078,5.13-6.735,7.905-8.88,8.955Zm59.01,46.673a6.221,6.221,0,0,1-1.372,2.047,6.311,6.311,0,0,1-8.918,0L820.446,105.1l-12.3-12.3a21,21,0,0,0,8.917-8.918L838.288,105.1l21.4,21.4a6.265,6.265,0,0,1,1.845,4.463A6.376,6.376,0,0,1,861.058,133.378Z" transform="translate(-2.666)"/><path d="M809.331,50.218s-15.345-17.9-34.568-18.78c-.488-.023-.982-.038-1.477-.038-.511,0-1.02.015-1.523.038-19.192.915-34.515,18.78-34.515,18.78s15.323,17.835,34.515,18.75c.5.022,1.012.037,1.523.037.5,0,.989-.015,1.477-.037C793.986,68.083,809.331,50.218,809.331,50.218ZM774.763,38.45a11.833,11.833,0,0,1,0,23.483,10.788,10.788,0,0,1-1.477.1,11.374,11.374,0,0,1-1.523-.1,11.836,11.836,0,0,1,0-23.475,11.4,11.4,0,0,1,1.53-.1A11.9,11.9,0,0,1,774.763,38.45Zm-3,27.518c-13.92-.735-25.92-11.3-30.382-15.75,4.462-4.455,16.462-15.038,30.382-15.78v.052a15.779,15.779,0,0,0,0,31.41Zm3,0V65.9a15.773,15.773,0,0,0,9.683-26.865,15.617,15.617,0,0,0-9.683-4.545v-.052c13.943.72,25.973,11.325,30.435,15.78C800.743,54.673,788.743,65.255,774.763,65.968Z" transform="translate(-2.666)"/><path class="cls-7" d="M784.446,39.035a15.617,15.617,0,0,0-9.683-4.545,13.714,13.714,0,0,0-1.47-.075,14.873,14.873,0,0,0-1.53.075,15.779,15.779,0,0,0,0,31.41,14.557,14.557,0,0,0,1.523.075,13.588,13.588,0,0,0,1.477-.075,15.773,15.773,0,0,0,9.683-26.865Zm-7.219,11.227a3.93,3.93,0,0,1-.063.627A4.037,4.037,0,0,0,777.227,50.262Zm-.915-2.573a3.853,3.853,0,0,1,.611.971A3.929,3.929,0,0,0,776.312,47.689Zm-1.136-.959c.1.052.184.11.27.167a3.917,3.917,0,0,0-.556-.3l.016.007A2.906,2.906,0,0,1,775.176,46.73Zm-.405-.187.007,0a4.009,4.009,0,0,0-.436-.136,4.282,4.282,0,0,1,.421.125C774.771,46.535,774.771,46.535,774.771,46.543Zm-.706-.214a3.88,3.88,0,0,0-.775-.079h0A3.866,3.866,0,0,1,774.065,46.329Zm-2.452.308a3.972,3.972,0,0,0-.463.251c.02-.012.038-.027.058-.038A3.457,3.457,0,0,1,771.613,46.637Zm-.6.341c.008-.007.019-.012.027-.018a4,4,0,0,0-.487.4l.018-.017A2.6,2.6,0,0,1,771.013,46.978Zm-.6.517.06-.057a3.905,3.905,0,0,0-.422.512,2,2,0,0,1,.13-.185A2.929,2.929,0,0,1,770.413,47.5Zm-1.05,2.348a1.074,1.074,0,0,1,.015-.15,2.119,2.119,0,0,1,.045-.293,2.176,2.176,0,0,1,.1-.375c.03-.12.075-.225.112-.337a.038.038,0,0,0,.015-.03,2.673,2.673,0,0,1,.165-.33,2.186,2.186,0,0,1,.173-.285L770,48.02a3.932,3.932,0,0,0,.031,4.4,3.909,3.909,0,0,1-.691-2.223A2.772,2.772,0,0,1,769.363,49.843Zm3.955,4.3a3.948,3.948,0,0,0,.735-.075h0A3.689,3.689,0,0,1,773.318,54.139Zm.828-.1a3.881,3.881,0,0,0,.644-.2.224.224,0,0,1-.027.013A3.9,3.9,0,0,1,774.146,54.042Zm.773-.262a3.912,3.912,0,0,0,.5-.27,1.818,1.818,0,0,1-.248.15C775.09,53.706,775,53.741,774.919,53.78Zm1.832-1.7c-.044.082-.093.158-.142.235a3.944,3.944,0,0,0,.279-.516l-.01.026C776.841,51.905,776.8,52,776.751,52.078Zm.232-.518c-.008.024-.019.045-.027.069a3.931,3.931,0,0,0,.168-.543,1.194,1.194,0,0,1-.051.2A1.337,1.337,0,0,1,776.983,51.56Z" transform="translate(-2.666)"/><path class="cls-2" d="M776.078,47.407h0a3.945,3.945,0,0,0-5.58,5.579h0a3.945,3.945,0,1,0,5.579-5.579Z" transform="translate(-2.666)"/><path class="cls-3" d="M778.866,44.615a7.889,7.889,0,1,0-7.1,13.328,8.517,8.517,0,0,0,1.523.142,8.019,8.019,0,0,0,1.477-.135,7.9,7.9,0,0,0,4.1-13.335Zm-1.718,6.375a1.828,1.828,0,0,1-.075.3,1.337,1.337,0,0,1-.09.27,2.668,2.668,0,0,1-.1.263c-.037.082-.082.172-.127.255a2.873,2.873,0,0,1-.195.322,3.79,3.79,0,0,1-1.065,1.065,2,2,0,0,1-.323.195,2.44,2.44,0,0,1-.4.2,3.728,3.728,0,0,1-.712.21,3.649,3.649,0,0,1-.765.075,3.944,3.944,0,0,1-1.523-.307,3.965,3.965,0,0,1-2.422-3.638,2.772,2.772,0,0,1,.022-.352,1.074,1.074,0,0,1,.015-.15,2.119,2.119,0,0,1,.045-.293,2.176,2.176,0,0,1,.1-.375c.03-.12.075-.225.112-.337a.038.038,0,0,0,.015-.03,2.673,2.673,0,0,1,.165-.33,2.186,2.186,0,0,1,.173-.285,2.281,2.281,0,0,1,.2-.278,2.929,2.929,0,0,1,.232-.27c.053-.052.105-.1.158-.15a2.6,2.6,0,0,1,.442-.367,1.873,1.873,0,0,1,.195-.128,3.57,3.57,0,0,1,.555-.292,3.944,3.944,0,0,1,3-.023c.008,0,.008,0,.008.008a1,1,0,0,1,.135.06,2.906,2.906,0,0,1,.27.127,3.436,3.436,0,0,1,.315.2,4.016,4.016,0,0,1,.585.48,3.927,3.927,0,0,1,1.072,3.585Z" transform="translate(-2.666)"/><path class="cls-4" d="M781.656,41.825a11.786,11.786,0,0,0-8.363-3.465,11.408,11.408,0,0,0-1.53.1,11.837,11.837,0,0,0,0,23.475,11.374,11.374,0,0,0,1.523.1,10.778,10.778,0,0,0,1.477-.1,11.828,11.828,0,0,0,6.893-20.108ZM774.763,57.95a8.019,8.019,0,0,1-1.477.135,8.517,8.517,0,0,1-1.523-.142,7.895,7.895,0,1,1,3,.007Z" transform="translate(-2.666)"/></g></g></svg>