<svg xmlns="http://www.w3.org/2000/svg" viewBox="0 0 752.05 779.639"><defs><style>.cls-1{fill:#148fcf;}.cls-2,.cls-3,.cls-4{fill:#f9b916;}.cls-2{opacity:0.4;}.cls-3{opacity:0.7;}</style></defs><g id="Ebene_2" data-name="Ebene 2"><g id="Layer_1" data-name="Layer 1"><ellipse class="cls-1" cx="376.025" cy="389.819" rx="376.025" ry="389.819"/><circle class="cls-2" cx="306.397" cy="389.819" r="288.415"/><circle class="cls-3" cx="234.374" cy="389.819" r="200.283"/><circle class="cls-4" cx="173.723" cy="389.819" r="123.537"/><path d="M327.938,380.686V359.959h5.236q5.085,0,7.69,2.582t2.605,7.72q0,5.171-2.632,7.8t-7.663,2.627Zm1.982-1.819h3.555a8.1,8.1,0,0,0,5.926-2.046q2.085-2.044,2.085-6.56,0-4.392-2.1-6.438a8.2,8.2,0,0,0-5.968-2.046h-3.5Z"/><path d="M346.244,373.289a9.173,9.173,0,0,1,.574-3.4,6.991,6.991,0,0,1,1.5-2.379,6.214,6.214,0,0,1,2.072-1.4,6.107,6.107,0,0,1,2.317-.465,5.808,5.808,0,0,1,2.4.493,5.2,5.2,0,0,1,1.9,1.456A7.141,7.141,0,0,1,358.275,370a10.8,10.8,0,0,1,.465,3.315v.37H348.172a7.229,7.229,0,0,0,.376,2.431,5.544,5.544,0,0,0,1,1.786,4.237,4.237,0,0,0,3.267,1.5,4.806,4.806,0,0,0,2.7-.693,6.727,6.727,0,0,0,1.893-2.013l1.2.961a7.767,7.767,0,0,1-2.4,2.448,6.457,6.457,0,0,1-3.521.9,6.32,6.32,0,0,1-2.461-.492,5.646,5.646,0,0,1-2.054-1.477,7.489,7.489,0,0,1-1.409-2.406A9.572,9.572,0,0,1,346.244,373.289Zm1.955-1.148h8.655a9.489,9.489,0,0,0-.376-1.932,4.97,4.97,0,0,0-.793-1.567,3.5,3.5,0,0,0-1.272-1.032,3.98,3.98,0,0,0-1.743-.364,4.119,4.119,0,0,0-1.545.3,4.018,4.018,0,0,0-1.347.9,5.115,5.115,0,0,0-1.025,1.52A7.073,7.073,0,0,0,348.2,372.141Z"/><path d="M361.529,373.289a9.152,9.152,0,0,1,.575-3.4,6.974,6.974,0,0,1,1.5-2.379,6.224,6.224,0,0,1,2.072-1.4,6.107,6.107,0,0,1,2.317-.465,5.816,5.816,0,0,1,2.4.493,5.208,5.208,0,0,1,1.9,1.456A7.16,7.16,0,0,1,373.561,370a10.834,10.834,0,0,1,.464,3.315v.37H363.457a7.229,7.229,0,0,0,.376,2.431,5.544,5.544,0,0,0,1,1.786,4.241,4.241,0,0,0,3.267,1.5,4.806,4.806,0,0,0,2.7-.693,6.727,6.727,0,0,0,1.893-2.013l1.2.961a7.767,7.767,0,0,1-2.4,2.448,6.454,6.454,0,0,1-3.521.9,6.311,6.311,0,0,1-2.46-.492,5.641,5.641,0,0,1-2.055-1.477,7.469,7.469,0,0,1-1.408-2.406A9.548,9.548,0,0,1,361.529,373.289Zm1.955-1.148h8.655a9.489,9.489,0,0,0-.376-1.932,4.95,4.95,0,0,0-.793-1.567,3.5,3.5,0,0,0-1.272-1.032,3.98,3.98,0,0,0-1.743-.364,4.119,4.119,0,0,0-1.545.3,4.018,4.018,0,0,0-1.347.9,5.115,5.115,0,0,0-1.025,1.52A7.073,7.073,0,0,0,363.484,372.141Z"/><path d="M377.662,386.291V365.934h1.928v2.092a10.239,10.239,0,0,1,2.078-1.662,5.388,5.388,0,0,1,2.857-.718,6.012,6.012,0,0,1,2.379.479,5.222,5.222,0,0,1,1.928,1.417,6.954,6.954,0,0,1,1.285,2.381,12.144,12.144,0,0,1,0,6.754,6.7,6.7,0,0,1-1.312,2.377,5.332,5.332,0,0,1-1.983,1.406,6.457,6.457,0,0,1-2.474.472,5.453,5.453,0,0,1-2.6-.625,8.927,8.927,0,0,1-2.16-1.619v7.6Zm1.928-9.368a9.085,9.085,0,0,0,2.2,1.793,4.839,4.839,0,0,0,2.393.616,4.54,4.54,0,0,0,1.811-.355,3.662,3.662,0,0,0,1.415-1.082,5.32,5.32,0,0,0,.923-1.862,9.623,9.623,0,0,0,.335-2.71,9.117,9.117,0,0,0-.349-2.669,5.342,5.342,0,0,0-.97-1.882,3.989,3.989,0,0,0-1.429-1.109,4.2,4.2,0,0,0-1.736-.362,4.616,4.616,0,0,0-2.448.657,10.643,10.643,0,0,0-2.146,1.779Z"/><path d="M312.618,416.685V395.959h1.928v20.726Z"/><path d="M318.333,409.289a9.158,9.158,0,0,1,.574-3.4,6.991,6.991,0,0,1,1.5-2.379,6.2,6.2,0,0,1,2.071-1.4,6.1,6.1,0,0,1,2.318-.465,5.807,5.807,0,0,1,2.4.492,5.222,5.222,0,0,1,1.9,1.456A7.156,7.156,0,0,1,330.364,406a10.8,10.8,0,0,1,.465,3.315v.369H320.261a7.235,7.235,0,0,0,.376,2.432,5.555,5.555,0,0,0,1,1.786,4.245,4.245,0,0,0,3.267,1.5,4.808,4.808,0,0,0,2.7-.693,6.717,6.717,0,0,0,1.894-2.013l1.2.961a7.764,7.764,0,0,1-2.4,2.447,6.451,6.451,0,0,1-3.521.9,6.317,6.317,0,0,1-2.461-.493,5.647,5.647,0,0,1-2.054-1.476,7.489,7.489,0,0,1-1.409-2.406A9.576,9.576,0,0,1,318.333,409.289Zm1.955-1.149h8.654a9.346,9.346,0,0,0-.376-1.931,4.934,4.934,0,0,0-.793-1.568,3.482,3.482,0,0,0-1.271-1.031,3.98,3.98,0,0,0-1.743-.364,4.1,4.1,0,0,0-1.545.3,4.008,4.008,0,0,0-1.347.9,5.1,5.1,0,0,0-1.025,1.519A7.052,7.052,0,0,0,320.288,408.14Z"/><path d="M333.317,413.23a4.2,4.2,0,0,1,.506-2.027,5,5,0,0,1,1.682-1.72,12.469,12.469,0,0,1,3.083-1.4,30.476,30.476,0,0,1,4.724-1.038v-.757a3.081,3.081,0,0,0-.765-2.292,3.045,3.045,0,0,0-2.225-.751,6.574,6.574,0,0,0-3.046.661,12.525,12.525,0,0,0-2.458,1.679l-1.046-1.211a11.8,11.8,0,0,1,2.94-1.975,8.8,8.8,0,0,1,3.788-.754,4.656,4.656,0,0,1,3.616,1.243,4.965,4.965,0,0,1,1.123,3.455v6.7a21.109,21.109,0,0,0,.1,2.212,5.749,5.749,0,0,0,.314,1.433h-1.994c-.092-.321-.172-.643-.24-.97a5.589,5.589,0,0,1-.1-1.147,9.226,9.226,0,0,1-2.709,1.772,8.041,8.041,0,0,1-3.106.591,4.464,4.464,0,0,1-3.083-.98A3.462,3.462,0,0,1,333.317,413.23Zm1.928-.245a2.149,2.149,0,0,0,.71,1.76,3,3,0,0,0,1.965.587,6.885,6.885,0,0,0,2.907-.615,9.1,9.1,0,0,0,2.485-1.7v-4.585a30,30,0,0,0-3.924.88,10.919,10.919,0,0,0-2.471,1.058,3.7,3.7,0,0,0-1.3,1.228A2.76,2.76,0,0,0,335.245,412.985Z"/><path d="M349.532,416.685V401.933h1.928v2.937h.055a7.49,7.49,0,0,1,2.276-2.308,6.423,6.423,0,0,1,3.575-.916h.342l-.191,1.818h-.287a1.327,1.327,0,0,1-.192-.013.893.893,0,0,0-.109-.014,5.506,5.506,0,0,0-3.213.955,7,7,0,0,0-2.256,2.715v9.578Z"/><path d="M360.593,416.685V401.933h1.928v2.324a10.9,10.9,0,0,1,2.467-1.839,6.46,6.46,0,0,1,3.165-.772,4.353,4.353,0,0,1,3.288,1.148,4.475,4.475,0,0,1,1.1,3.227v10.664h-1.928V406.376a3.287,3.287,0,0,0-.711-2.317,2.92,2.92,0,0,0-2.228-.759,5.409,5.409,0,0,0-2.659.684,12.156,12.156,0,0,0-2.5,1.887v10.814Z"/><path d="M376.972,398.515v-2.078h2.05v2.078Zm.054,18.17V401.933h1.928v14.752Z"/><path d="M383.589,416.685V401.933h1.928v2.324a10.919,10.919,0,0,1,2.467-1.839,6.46,6.46,0,0,1,3.165-.772,4.357,4.357,0,0,1,3.289,1.148,4.478,4.478,0,0,1,1.1,3.227v10.664H393.61V406.376a3.287,3.287,0,0,0-.711-2.317,2.92,2.92,0,0,0-2.228-.759,5.409,5.409,0,0,0-2.659.684,12.183,12.183,0,0,0-2.5,1.887v10.814Z"/><path d="M398.2,418.62a2.977,2.977,0,0,1,.725-2,4.823,4.823,0,0,1,2.023-1.343,1.9,1.9,0,0,1-1.285-1.881,1.849,1.849,0,0,1,.48-1.229,4.183,4.183,0,0,1,1.284-.968,4.778,4.778,0,0,1-1.655-1.771,5.454,5.454,0,0,1-.143-4.621,5.041,5.041,0,0,1,1.217-1.675,5.653,5.653,0,0,1,1.838-1.094,7.091,7.091,0,0,1,4.673,0,5.475,5.475,0,0,1,1.844,1.122,6.935,6.935,0,0,1,1.568-.855,7.2,7.2,0,0,1,1.828-.485v1.927a8.963,8.963,0,0,0-1.343.108,5.666,5.666,0,0,0-1.344.377,4.605,4.605,0,0,1,.855,2.787,5.012,5.012,0,0,1-.449,2.149,4.909,4.909,0,0,1-1.215,1.636,5.27,5.27,0,0,1-1.819,1.034,6.974,6.974,0,0,1-2.273.359,6.66,6.66,0,0,1-2.379-.41,2.687,2.687,0,0,0-.855.525.973.973,0,0,0-.321.729.784.784,0,0,0,.459.728,5.425,5.425,0,0,0,1.72.4l3.221.246a8.131,8.131,0,0,1,3.87,1.115,2.976,2.976,0,0,1,1.312,2.625,3.261,3.261,0,0,1-.5,1.792,4.033,4.033,0,0,1-1.395,1.311,7.5,7.5,0,0,1-2.145.8,12.673,12.673,0,0,1-2.765.281,10.845,10.845,0,0,1-5.325-1A3.051,3.051,0,0,1,398.2,418.62Zm1.873-.241a1.953,1.953,0,0,0,1.278,1.8,9.833,9.833,0,0,0,4.068.625,7.669,7.669,0,0,0,3.541-.678,2.025,2.025,0,0,0,1.285-1.792,1.751,1.751,0,0,0-.917-1.6,7.6,7.6,0,0,0-3.092-.706l-2.921-.238-.781-.083a3.839,3.839,0,0,0-1.859,1.115A2.387,2.387,0,0,0,400.077,418.379Zm.985-11.387a3.548,3.548,0,0,0,1.08,2.72,4.656,4.656,0,0,0,5.776.016,3.5,3.5,0,0,0,1.06-2.679,3.818,3.818,0,0,0-1.033-2.824,4.631,4.631,0,0,0-5.831,0A3.7,3.7,0,0,0,401.062,406.992Z"/><path d="M460.6,380.686V359.959h2.6l6.94,18.157h.054l6.885-18.157H479.7v20.727h-1.982V363.323h-.055c-.154.465-.344,1.02-.566,1.668s-.463,1.3-.717,1.968L471,380.686h-1.816l-5.367-13.727q-.194-.492-.35-.929c-.1-.292-.207-.576-.307-.855s-.2-.572-.306-.882-.213-.651-.323-1.025h-.054v17.418Z"/><path d="M483.663,377.231a4.209,4.209,0,0,1,.506-2.027,5.008,5.008,0,0,1,1.682-1.72,12.531,12.531,0,0,1,3.084-1.4,30.6,30.6,0,0,1,4.722-1.037v-.757a3.085,3.085,0,0,0-.763-2.292,3.047,3.047,0,0,0-2.225-.751,6.578,6.578,0,0,0-3.047.661,12.489,12.489,0,0,0-2.457,1.679l-1.047-1.211a11.784,11.784,0,0,1,2.94-1.975,8.808,8.808,0,0,1,3.789-.754,4.652,4.652,0,0,1,3.615,1.243,4.96,4.96,0,0,1,1.123,3.455v6.7a21.109,21.109,0,0,0,.1,2.212,5.84,5.84,0,0,0,.314,1.433H494q-.138-.481-.24-.97a5.583,5.583,0,0,1-.1-1.147,9.2,9.2,0,0,1-2.709,1.772,8.033,8.033,0,0,1-3.1.591,4.461,4.461,0,0,1-3.082-.98A3.456,3.456,0,0,1,483.663,377.231Zm1.928-.245a2.147,2.147,0,0,0,.711,1.76,2.993,2.993,0,0,0,1.965.587,6.883,6.883,0,0,0,2.906-.615,9.065,9.065,0,0,0,2.484-1.705v-4.585a30.119,30.119,0,0,0-3.924.88,10.929,10.929,0,0,0-2.47,1.058,3.7,3.7,0,0,0-1.3,1.228A2.76,2.76,0,0,0,485.591,376.986Z"/><path d="M499.03,373.317a9.512,9.512,0,0,1,.557-3.425,7.013,7.013,0,0,1,1.476-2.392,5.733,5.733,0,0,1,2.118-1.4,6.813,6.813,0,0,1,2.425-.451,6.248,6.248,0,0,1,2.086.321,5.046,5.046,0,0,1,1.579.882,6.166,6.166,0,0,1,1.162,1.292,8.448,8.448,0,0,1,.82,1.538l-1.641.725a6.011,6.011,0,0,0-1.564-2.3,3.716,3.716,0,0,0-2.5-.8,4.7,4.7,0,0,0-1.647.308,3.791,3.791,0,0,0-1.484,1.025,5.353,5.353,0,0,0-1.059,1.86,8.444,8.444,0,0,0-.4,2.8,8.694,8.694,0,0,0,.35,2.584,5.806,5.806,0,0,0,.949,1.886,4.136,4.136,0,0,0,1.43,1.176,3.988,3.988,0,0,0,1.8.41,3.931,3.931,0,0,0,2.5-.745,6.671,6.671,0,0,0,1.742-2.4l1.558.67a11.065,11.065,0,0,1-.984,1.7,5.708,5.708,0,0,1-1.264,1.305,5.645,5.645,0,0,1-1.613.828A6.458,6.458,0,0,1,505.4,381a6.012,6.012,0,0,1-2.42-.506A5.844,5.844,0,0,1,500.94,379a7.319,7.319,0,0,1-1.394-2.406A9.6,9.6,0,0,1,499.03,373.317Z"/><path d="M514.739,380.686V359.959h1.928v8.3a10.887,10.887,0,0,1,2.469-1.839,6.448,6.448,0,0,1,3.164-.772,4.355,4.355,0,0,1,3.289,1.148,4.482,4.482,0,0,1,1.1,3.227v10.664h-1.927V370.377a3.287,3.287,0,0,0-.711-2.317,2.922,2.922,0,0,0-2.229-.759,5.405,5.405,0,0,0-2.658.684,12.214,12.214,0,0,0-2.5,1.887v10.814Z"/><path d="M531.118,362.516v-2.078h2.051v2.078Zm.055,18.17V365.934H533.1v14.752Z"/><path d="M537.735,380.686V365.934h1.928v2.324a10.887,10.887,0,0,1,2.469-1.839,6.448,6.448,0,0,1,3.164-.772,4.355,4.355,0,0,1,3.289,1.148,4.483,4.483,0,0,1,1.1,3.227v10.664h-1.928V370.377a3.283,3.283,0,0,0-.711-2.317,2.922,2.922,0,0,0-2.229-.759,5.405,5.405,0,0,0-2.658.684,12.214,12.214,0,0,0-2.5,1.887v10.814Z"/><path d="M553.157,373.29a9.179,9.179,0,0,1,.574-3.4,7.006,7.006,0,0,1,1.5-2.379,6.2,6.2,0,0,1,2.073-1.4,6.083,6.083,0,0,1,2.316-.465,5.812,5.812,0,0,1,2.4.492,5.222,5.222,0,0,1,1.9,1.456A7.141,7.141,0,0,1,565.188,370a10.779,10.779,0,0,1,.465,3.316v.369H555.085a7.21,7.21,0,0,0,.377,2.432,5.553,5.553,0,0,0,1,1.786,4.254,4.254,0,0,0,3.267,1.5,4.815,4.815,0,0,0,2.7-.693,6.713,6.713,0,0,0,1.892-2.013l1.2.961a7.761,7.761,0,0,1-2.4,2.447,6.449,6.449,0,0,1-3.522.9,6.328,6.328,0,0,1-2.461-.493,5.663,5.663,0,0,1-2.054-1.476,7.487,7.487,0,0,1-1.408-2.406A9.575,9.575,0,0,1,553.157,373.29Zm1.955-1.149h8.655a9.5,9.5,0,0,0-.375-1.932,5,5,0,0,0-.793-1.567,3.493,3.493,0,0,0-1.272-1.031,3.984,3.984,0,0,0-1.744-.364,4.122,4.122,0,0,0-1.545.295,4.022,4.022,0,0,0-1.346.9,5.059,5.059,0,0,0-1.025,1.519A7.08,7.08,0,0,0,555.112,372.141Z"/><path d="M466.464,416.686V395.959h1.928v20.727Z"/><path d="M472.179,409.29a9.158,9.158,0,0,1,.574-3.4,7.006,7.006,0,0,1,1.5-2.379,6.2,6.2,0,0,1,2.072-1.4,6.088,6.088,0,0,1,2.317-.465,5.812,5.812,0,0,1,2.4.492,5.227,5.227,0,0,1,1.9,1.456A7.142,7.142,0,0,1,484.21,406a10.779,10.779,0,0,1,.465,3.316v.369H474.106a7.21,7.21,0,0,0,.377,2.432,5.553,5.553,0,0,0,1,1.786,4.254,4.254,0,0,0,3.268,1.5,4.812,4.812,0,0,0,2.7-.693,6.727,6.727,0,0,0,1.893-2.013l1.2.961a7.753,7.753,0,0,1-2.4,2.447,6.446,6.446,0,0,1-3.521.9,6.321,6.321,0,0,1-2.461-.493,5.667,5.667,0,0,1-2.055-1.476,7.505,7.505,0,0,1-1.408-2.406A9.576,9.576,0,0,1,472.179,409.29Zm1.955-1.149h8.654a9.369,9.369,0,0,0-.375-1.932,4.96,4.96,0,0,0-.793-1.567,3.49,3.49,0,0,0-1.271-1.031,3.984,3.984,0,0,0-1.744-.364,4.118,4.118,0,0,0-1.545.295,4,4,0,0,0-1.346.9,5.08,5.08,0,0,0-1.026,1.519A7.08,7.08,0,0,0,474.134,408.141Z"/><path d="M487.163,413.231a4.209,4.209,0,0,1,.506-2.027,5.008,5.008,0,0,1,1.682-1.72,12.531,12.531,0,0,1,3.084-1.4,30.6,30.6,0,0,1,4.722-1.037v-.757a3.085,3.085,0,0,0-.763-2.292,3.047,3.047,0,0,0-2.225-.751,6.578,6.578,0,0,0-3.047.661,12.489,12.489,0,0,0-2.457,1.679l-1.047-1.211a11.784,11.784,0,0,1,2.94-1.975,8.808,8.808,0,0,1,3.789-.754,4.652,4.652,0,0,1,3.615,1.243,4.96,4.96,0,0,1,1.123,3.455v6.7a21.109,21.109,0,0,0,.1,2.212,5.84,5.84,0,0,0,.314,1.433H497.5q-.138-.481-.24-.97a5.583,5.583,0,0,1-.1-1.147,9.2,9.2,0,0,1-2.709,1.772,8.033,8.033,0,0,1-3.1.591,4.461,4.461,0,0,1-3.082-.98A3.456,3.456,0,0,1,487.163,413.231Zm1.928-.245a2.147,2.147,0,0,0,.711,1.76,2.993,2.993,0,0,0,1.965.587,6.883,6.883,0,0,0,2.906-.615,9.065,9.065,0,0,0,2.484-1.705v-4.585a30.119,30.119,0,0,0-3.924.88,10.929,10.929,0,0,0-2.47,1.058,3.7,3.7,0,0,0-1.3,1.228A2.76,2.76,0,0,0,489.091,412.986Z"/><path d="M503.378,416.686V401.934h1.928v2.937h.054a7.5,7.5,0,0,1,2.278-2.308,6.415,6.415,0,0,1,3.574-.916h.342l-.192,1.818h-.287a1.323,1.323,0,0,1-.191-.013.856.856,0,0,0-.11-.014,5.507,5.507,0,0,0-3.212.955,7.012,7.012,0,0,0-2.256,2.715v9.578Z"/><path d="M514.438,416.686V401.934h1.928v2.324a10.887,10.887,0,0,1,2.469-1.839,6.451,6.451,0,0,1,3.164-.772,4.355,4.355,0,0,1,3.289,1.148,4.478,4.478,0,0,1,1.1,3.227v10.664H524.46V406.377a3.283,3.283,0,0,0-.711-2.317,2.921,2.921,0,0,0-2.228-.759,5.409,5.409,0,0,0-2.659.684,12.214,12.214,0,0,0-2.5,1.887v10.814Z"/><path d="M530.817,398.516v-2.078h2.051v2.078Zm.055,18.17V401.934H532.8v14.752Z"/><path d="M537.435,416.686V401.934h1.927v2.324a10.909,10.909,0,0,1,2.469-1.839,6.451,6.451,0,0,1,3.164-.772,4.355,4.355,0,0,1,3.289,1.148,4.478,4.478,0,0,1,1.1,3.227v10.664h-1.928V406.377a3.283,3.283,0,0,0-.711-2.317,2.921,2.921,0,0,0-2.228-.759,5.409,5.409,0,0,0-2.659.684,12.214,12.214,0,0,0-2.5,1.887v10.814Z"/><path d="M552.05,418.621a2.986,2.986,0,0,1,.724-2,4.839,4.839,0,0,1,2.024-1.343,1.9,1.9,0,0,1-1.285-1.881,1.849,1.849,0,0,1,.48-1.229,4.19,4.19,0,0,1,1.283-.968,4.783,4.783,0,0,1-1.654-1.771,5.448,5.448,0,0,1-.142-4.621,5.01,5.01,0,0,1,1.216-1.675,5.642,5.642,0,0,1,1.838-1.094,6.632,6.632,0,0,1,2.324-.4,6.7,6.7,0,0,1,2.35.4,5.5,5.5,0,0,1,1.844,1.122,6.913,6.913,0,0,1,1.568-.855,7.177,7.177,0,0,1,1.826-.485v1.927a8.927,8.927,0,0,0-1.341.108,5.653,5.653,0,0,0-1.344.377,4.611,4.611,0,0,1,.853,2.787,5.012,5.012,0,0,1-.447,2.149,4.922,4.922,0,0,1-1.215,1.636,5.275,5.275,0,0,1-1.82,1.034,6.976,6.976,0,0,1-2.274.359,6.659,6.659,0,0,1-2.378-.41,2.67,2.67,0,0,0-.854.525.97.97,0,0,0-.322.729.786.786,0,0,0,.459.728,5.425,5.425,0,0,0,1.72.4l3.221.246a8.126,8.126,0,0,1,3.869,1.115,2.977,2.977,0,0,1,1.313,2.625,3.261,3.261,0,0,1-.5,1.792,4.033,4.033,0,0,1-1.395,1.311,7.529,7.529,0,0,1-2.144.8,12.683,12.683,0,0,1-2.766.281,10.841,10.841,0,0,1-5.324-1A3.05,3.05,0,0,1,552.05,418.621Zm1.873-.241a1.953,1.953,0,0,0,1.279,1.8,9.824,9.824,0,0,0,4.067.625,7.669,7.669,0,0,0,3.541-.678,2.024,2.024,0,0,0,1.285-1.792,1.75,1.75,0,0,0-.916-1.6,7.606,7.606,0,0,0-3.092-.706l-2.922-.238-.781-.083a3.857,3.857,0,0,0-1.86,1.115A2.4,2.4,0,0,0,553.923,418.38Zm.984-11.387a3.555,3.555,0,0,0,1.08,2.72,4.659,4.659,0,0,0,5.778.016,3.505,3.505,0,0,0,1.058-2.679,3.821,3.821,0,0,0-1.031-2.824,4.632,4.632,0,0,0-5.832,0A3.706,3.706,0,0,0,554.907,406.993Z"/><path d="M659.107,398.686l7.329-20.809h2.16l7.342,20.809h-2.079l-2.214-6.385H663.25l-2.215,6.385Zm4.758-8.149h7.164l-3.554-10.308h-.055Z"/><path d="M679.875,398.686V377.959h1.982v20.727Z"/><path d="M170.593,380.686V359.959h2.119l11.43,17.09h.054v-17.09h1.873v20.727h-1.763l-11.785-17.61h-.055v17.61Z"/><path d="M190.13,373.289a9.153,9.153,0,0,1,.574-3.4,6.991,6.991,0,0,1,1.5-2.379,6.221,6.221,0,0,1,2.071-1.4,6.116,6.116,0,0,1,2.318-.465,5.808,5.808,0,0,1,2.4.493,5.211,5.211,0,0,1,1.9,1.456A7.141,7.141,0,0,1,202.161,370a10.8,10.8,0,0,1,.465,3.315v.37H192.058a7.229,7.229,0,0,0,.376,2.431,5.561,5.561,0,0,0,1,1.786,4.241,4.241,0,0,0,3.268,1.5,4.8,4.8,0,0,0,2.7-.693,6.73,6.73,0,0,0,1.894-2.013l1.2.961a7.767,7.767,0,0,1-2.4,2.448,6.459,6.459,0,0,1-3.521.9,6.316,6.316,0,0,1-2.461-.492,5.649,5.649,0,0,1-2.055-1.477,7.487,7.487,0,0,1-1.408-2.406A9.572,9.572,0,0,1,190.13,373.289Zm1.955-1.148h8.654a9.356,9.356,0,0,0-.376-1.932,4.929,4.929,0,0,0-.793-1.567,3.485,3.485,0,0,0-1.271-1.032,3.98,3.98,0,0,0-1.743-.364,4.119,4.119,0,0,0-1.545.3,4.008,4.008,0,0,0-1.347.9,5.115,5.115,0,0,0-1.025,1.52A7.045,7.045,0,0,0,192.085,372.141Z"/><path d="M206.126,376.6V365.934h1.928v10.322a3.354,3.354,0,0,0,.7,2.331,2.915,2.915,0,0,0,2.242.759,5.221,5.221,0,0,0,2.646-.7,13.709,13.709,0,0,0,2.481-1.88V365.934h1.928v14.752H216.12v-2.325a11.259,11.259,0,0,1-2.468,1.853,6.3,6.3,0,0,1-3.137.786,4.317,4.317,0,0,1-3.3-1.162A4.558,4.558,0,0,1,206.126,376.6Z"/><path d="M222.532,380.686V365.934h1.928v2.936h.055a7.487,7.487,0,0,1,2.276-2.307,6.415,6.415,0,0,1,3.575-.917h.342l-.191,1.819h-.287a1.189,1.189,0,0,1-.192-.014.824.824,0,0,0-.109-.013,5.506,5.506,0,0,0-3.213.955,6.992,6.992,0,0,0-2.256,2.714v9.579Z"/><path d="M232.171,377.23a4.2,4.2,0,0,1,.506-2.027,5,5,0,0,1,1.681-1.72,12.54,12.54,0,0,1,3.083-1.4,30.513,30.513,0,0,1,4.724-1.037v-.758A3.083,3.083,0,0,0,241.4,368a3.043,3.043,0,0,0-2.224-.751,6.583,6.583,0,0,0-3.046.661,12.472,12.472,0,0,0-2.458,1.68l-1.047-1.212a11.848,11.848,0,0,1,2.94-1.975,8.811,8.811,0,0,1,3.789-.754,4.656,4.656,0,0,1,3.616,1.244,4.963,4.963,0,0,1,1.123,3.455v6.695a21.155,21.155,0,0,0,.095,2.213,5.755,5.755,0,0,0,.315,1.433h-1.994c-.092-.322-.172-.644-.24-.97a5.518,5.518,0,0,1-.1-1.148,9.237,9.237,0,0,1-2.709,1.773,8.051,8.051,0,0,1-3.1.591,4.461,4.461,0,0,1-3.083-.981A3.456,3.456,0,0,1,232.171,377.23Zm1.928-.245a2.147,2.147,0,0,0,.71,1.76,2.988,2.988,0,0,0,1.964.587,6.892,6.892,0,0,0,2.908-.614,9.132,9.132,0,0,0,2.484-1.705v-4.585a29.681,29.681,0,0,0-3.924.88,10.912,10.912,0,0,0-2.47,1.057,3.68,3.68,0,0,0-1.3,1.229A2.754,2.754,0,0,0,234.1,376.985Z"/><path d="M248.55,380.686V359.959h1.928v20.727Z"/><path d="M156.921,416.685V401.933h1.928v2.324a10.919,10.919,0,0,1,2.467-1.839,6.46,6.46,0,0,1,3.165-.772,4.357,4.357,0,0,1,3.289,1.148,4.478,4.478,0,0,1,1.1,3.227v10.664h-1.928V406.376a3.287,3.287,0,0,0-.711-2.317A2.92,2.92,0,0,0,164,403.3a5.409,5.409,0,0,0-2.659.684,12.21,12.21,0,0,0-2.5,1.887v10.814Z"/><path d="M172.343,409.289a9.158,9.158,0,0,1,.574-3.4,6.991,6.991,0,0,1,1.5-2.379,6.193,6.193,0,0,1,2.071-1.4,6.093,6.093,0,0,1,2.318-.465,5.807,5.807,0,0,1,2.4.492,5.219,5.219,0,0,1,1.9,1.456A7.157,7.157,0,0,1,184.374,406a10.8,10.8,0,0,1,.465,3.315v.369H174.271a7.235,7.235,0,0,0,.376,2.432,5.534,5.534,0,0,0,1,1.786,4.25,4.25,0,0,0,3.268,1.5,4.808,4.808,0,0,0,2.7-.693,6.742,6.742,0,0,0,1.894-2.013l1.2.961a7.756,7.756,0,0,1-2.4,2.447,6.445,6.445,0,0,1-3.52.9,6.313,6.313,0,0,1-2.461-.493,5.659,5.659,0,0,1-2.055-1.476,7.487,7.487,0,0,1-1.408-2.406A9.576,9.576,0,0,1,172.343,409.289Zm1.955-1.149h8.654a9.346,9.346,0,0,0-.376-1.931,4.934,4.934,0,0,0-.793-1.568,3.49,3.49,0,0,0-1.271-1.031,3.98,3.98,0,0,0-1.743-.364,4.1,4.1,0,0,0-1.545.3,4,4,0,0,0-1.347.9,5.1,5.1,0,0,0-1.025,1.519A7.052,7.052,0,0,0,174.3,408.14Z"/><path d="M186.9,403.587v-1.654h2.584v-5.291h1.928v5.291h3.828v1.654h-3.828v9.267a2.9,2.9,0,0,0,.479,1.8,2.223,2.223,0,0,0,1.845.623h.827a2.462,2.462,0,0,0,.718-.1v1.531q-.341.056-.875.11a10.308,10.308,0,0,1-1.039.054,4.251,4.251,0,0,1-3-.854,3.743,3.743,0,0,1-.882-2.782v-9.653Z"/><path d="M196.774,401.933H198.8l2.04,7.305q.195.7.362,1.3t.334,1.2c.112.4.225.8.338,1.211l.366,1.309h.056q.194-.792.366-1.408t.312-1.189q.136-.574.31-1.149c.115-.382.238-.806.366-1.271l2.045-7.3h1.784l2,7.44q.181.672.337,1.253c.1.386.206.767.308,1.14s.2.761.313,1.161.225.837.353,1.313h.054q.2-.752.364-1.339t.3-1.134q.141-.546.3-1.106t.365-1.229l2.12-7.5h1.873l-4.526,14.752h-1.791l-3.336-12.127h-.054l-3.4,12.127H201.3Z"/><path d="M217.925,409.316a9.356,9.356,0,0,1,.532-3.274,7.184,7.184,0,0,1,1.441-2.407,6.029,6.029,0,0,1,2.131-1.483,6.707,6.707,0,0,1,2.588-.506,6.619,6.619,0,0,1,2.56.506,6.062,6.062,0,0,1,2.128,1.483,7.156,7.156,0,0,1,1.443,2.407,10.325,10.325,0,0,1,0,6.555A7.241,7.241,0,0,1,229.305,415a6.007,6.007,0,0,1-2.128,1.491,6.729,6.729,0,0,1-5.12,0A6.088,6.088,0,0,1,219.912,415a7.134,7.134,0,0,1-1.455-2.406A9.349,9.349,0,0,1,217.925,409.316Zm1.928-.027a8.883,8.883,0,0,0,.294,2.324,5.774,5.774,0,0,0,.9,1.921,4.522,4.522,0,0,0,1.5,1.319,4.621,4.621,0,0,0,4.066.041,4.456,4.456,0,0,0,1.486-1.251,5.706,5.706,0,0,0,.938-1.9,8.753,8.753,0,0,0,.322-2.454,8.371,8.371,0,0,0-.308-2.29,6,6,0,0,0-.9-1.9,4.5,4.5,0,0,0-1.471-1.306,4.167,4.167,0,0,0-2.061-.492,4.356,4.356,0,0,0-2.006.451,4.422,4.422,0,0,0-1.5,1.245,5.613,5.613,0,0,0-.938,1.9A8.562,8.562,0,0,0,219.853,409.289Z"/><path d="M234.933,416.685V401.933h1.927v2.937h.055a7.5,7.5,0,0,1,2.276-2.308,6.425,6.425,0,0,1,3.576-.916h.341l-.191,1.818h-.287a1.338,1.338,0,0,1-.192-.013.848.848,0,0,0-.109-.014,5.506,5.506,0,0,0-3.213.955,7,7,0,0,0-2.256,2.715v9.578Z"/><path d="M245.993,416.685V395.959h1.928v13.753l7.027-7.779h2.27l-4.813,5.209,5.4,9.543H255.7l-4.58-8.066-3.2,3.418v4.648Z"/><path d="M259.487,414.346l1.231-1.122a6.585,6.585,0,0,0,1.948,1.56,5.649,5.649,0,0,0,2.646.575,5.1,5.1,0,0,0,2.871-.665,2.189,2.189,0,0,0,.97-1.926,2.029,2.029,0,0,0-.957-1.823,10.483,10.483,0,0,0-3.1-1.125l-2.213-.689a5.213,5.213,0,0,1-1.629-.8,3.191,3.191,0,0,1-.964-1.162,3.8,3.8,0,0,1-.321-1.652,3.4,3.4,0,0,1,.335-1.484,3.626,3.626,0,0,1,.977-1.239,4.818,4.818,0,0,1,1.566-.841,6.72,6.72,0,0,1,2.126-.308,7.84,7.84,0,0,1,3.2.574,7.535,7.535,0,0,1,2.269,1.56l-1.093,1.286a6.531,6.531,0,0,0-1.9-1.327,5.661,5.661,0,0,0-2.406-.493,5.172,5.172,0,0,0-1.476.181,2.841,2.841,0,0,0-.978.486,2,2,0,0,0-.561.686,1.832,1.832,0,0,0-.184.8,1.789,1.789,0,0,0,.832,1.6,9.013,9.013,0,0,0,2.77.99l2.416.736a5.535,5.535,0,0,1,1.769.869,3.472,3.472,0,0,1,1.056,1.289,4.442,4.442,0,0,1,.344,1.864,3.616,3.616,0,0,1-.437,1.793,4.1,4.1,0,0,1-1.19,1.33,5.334,5.334,0,0,1-1.8.818,9.2,9.2,0,0,1-2.311.273,7.736,7.736,0,0,1-3.466-.735A6.339,6.339,0,0,1,259.487,414.346Z"/><path d="M122.854,430.781l-30-6.092V405.563c-8.956-4.6-14.909-14.535-14.909-25.049a31.455,31.455,0,1,1,62.909,0v13.859h-6v10.813c0,7.187-5.7,7.187-7.573,7.187h-4.427Zm-27-8.545,24,4.874V409.373h7.427c3.462,0,4.573-1.018,4.573-4.187V391.373h6V380.514a28.455,28.455,0,1,0-56.909,0c0,9.7,5.643,18.849,14.042,22.753l.867.4Zm36.813-39.363-2.592-1.414,2.592-1.414-1.436-2.633-7.421,4.047,7.421,4.048Z"/></g></g></svg>