<svg xmlns="http://www.w3.org/2000/svg" viewBox="0 0 921.386 307.55"><defs><style>.cls-1{fill:#148fcf;}.cls-2,.cls-3,.cls-4{fill:#efab1f;}.cls-3{opacity:0.7;}.cls-4{opacity:0.4;}.cls-5{fill:#e35500;}.cls-6{fill:#4fb81c;}</style></defs><g id="Ebene_2" data-name="Ebene 2"><g id="Layer_1" data-name="Layer 1"><path d="M410.3,199.154l7.328-20.809h2.16l7.342,20.809H425.05l-2.215-6.385H414.44l-2.214,6.385Zm4.758-8.149h7.164L418.665,180.7h-.055Z" transform="translate(-2.352)"/><path d="M430.368,199.154V184.4H432.3v2.936h.055a7.5,7.5,0,0,1,2.276-2.307,6.423,6.423,0,0,1,3.575-.916h.342l-.191,1.818h-.288a1.323,1.323,0,0,1-.191-.013.893.893,0,0,0-.109-.014,5.506,5.506,0,0,0-3.213.955,7,7,0,0,0-2.256,2.715v9.578Z" transform="translate(-2.352)"/><path d="M439.856,186.056V184.4h2.584v-5.291h1.928V184.4H448.2v1.654h-3.828v9.267a2.9,2.9,0,0,0,.479,1.8,2.223,2.223,0,0,0,1.845.623h.828a2.494,2.494,0,0,0,.717-.1v1.531c-.227.036-.519.074-.875.11a10.308,10.308,0,0,1-1.039.054,4.251,4.251,0,0,1-3-.854,3.745,3.745,0,0,1-.882-2.782v-9.653Z" transform="translate(-2.352)"/><path d="M451.765,180.984v-2.078h2.05v2.078Zm.054,18.17V184.4h1.928v14.752Z" transform="translate(-2.352)"/><path d="M456.892,186.056V184.4h2.584v-2.215a3.62,3.62,0,0,1,1.059-2.83,4.455,4.455,0,0,1,3.083-.957c.164,0,.354,0,.568.014a2.863,2.863,0,0,1,.5.053v1.587c-.119-.018-.272-.032-.458-.041s-.354-.013-.5-.013a2.625,2.625,0,0,0-1.7.508,1.988,1.988,0,0,0-.629,1.638V184.4h3.131v1.654H461.4v13.1h-1.927v-13.1Zm10.732-5.072v-2.078h2.037v2.078Zm.055,18.17V184.4h1.927v14.752Z" transform="translate(-2.352)"/><path d="M473.612,191.785a9.508,9.508,0,0,1,.557-3.425,7.014,7.014,0,0,1,1.477-2.393,5.736,5.736,0,0,1,2.116-1.4,6.822,6.822,0,0,1,2.426-.451,6.242,6.242,0,0,1,2.085.321,5.051,5.051,0,0,1,1.58.882,6.194,6.194,0,0,1,1.162,1.292,8.448,8.448,0,0,1,.82,1.538l-1.641.725a6.013,6.013,0,0,0-1.565-2.3,3.712,3.712,0,0,0-2.5-.8,4.707,4.707,0,0,0-1.648.308A3.8,3.8,0,0,0,477,187.1a5.37,5.37,0,0,0-1.06,1.86,8.47,8.47,0,0,0-.4,2.8,8.687,8.687,0,0,0,.349,2.584,5.822,5.822,0,0,0,.95,1.887,4.144,4.144,0,0,0,1.429,1.176,3.992,3.992,0,0,0,1.8.41,3.928,3.928,0,0,0,2.5-.745,6.671,6.671,0,0,0,1.743-2.4l1.558.669a11.193,11.193,0,0,1-.984,1.7,5.733,5.733,0,0,1-1.265,1.305,5.6,5.6,0,0,1-1.613.827,6.423,6.423,0,0,1-2.017.294,6.024,6.024,0,0,1-2.42-.5,5.835,5.835,0,0,1-2.041-1.491,7.319,7.319,0,0,1-1.394-2.406A9.6,9.6,0,0,1,473.612,191.785Z" transform="translate(-2.352)"/><path d="M489.431,180.984v-2.078h2.05v2.078Zm.054,18.17V184.4h1.928v14.752Z" transform="translate(-2.352)"/><path d="M495.146,195.7a4.2,4.2,0,0,1,.5-2.028,5,5,0,0,1,1.682-1.719,12.522,12.522,0,0,1,3.083-1.4,30.513,30.513,0,0,1,4.724-1.037v-.758a3.083,3.083,0,0,0-.765-2.292,3.045,3.045,0,0,0-2.225-.751,6.577,6.577,0,0,0-3.046.662,12.525,12.525,0,0,0-2.458,1.679l-1.046-1.212a11.826,11.826,0,0,1,2.94-1.974,8.8,8.8,0,0,1,3.788-.754,4.656,4.656,0,0,1,3.616,1.243,4.965,4.965,0,0,1,1.123,3.455v6.7a21.117,21.117,0,0,0,.1,2.213,5.755,5.755,0,0,0,.315,1.433h-2q-.137-.481-.24-.97a5.589,5.589,0,0,1-.1-1.147,9.226,9.226,0,0,1-2.709,1.772,8.041,8.041,0,0,1-3.106.591,4.464,4.464,0,0,1-3.083-.98A3.462,3.462,0,0,1,495.146,195.7Zm1.927-.245a2.149,2.149,0,0,0,.71,1.759,2.991,2.991,0,0,0,1.965.587,6.884,6.884,0,0,0,2.907-.614,9.1,9.1,0,0,0,2.485-1.705V190.9a30,30,0,0,0-3.924.88,10.919,10.919,0,0,0-2.471,1.058,3.687,3.687,0,0,0-1.3,1.228A2.76,2.76,0,0,0,497.073,195.454Z" transform="translate(-2.352)"/><path d="M511.524,199.154V178.427h1.928v20.727Z" transform="translate(-2.352)"/><path d="M412.656,237.088a2.98,2.98,0,0,1,.725-2,4.83,4.83,0,0,1,2.023-1.342,1.9,1.9,0,0,1-1.285-1.881,1.843,1.843,0,0,1,.481-1.229,4.183,4.183,0,0,1,1.283-.969,4.764,4.764,0,0,1-1.654-1.77,5.459,5.459,0,0,1-.144-4.621,5.041,5.041,0,0,1,1.217-1.675,5.647,5.647,0,0,1,1.839-1.094,7.088,7.088,0,0,1,4.672,0,5.489,5.489,0,0,1,1.844,1.121,6.96,6.96,0,0,1,1.569-.854,7.184,7.184,0,0,1,1.827-.485v1.927a8.833,8.833,0,0,0-1.343.108,5.666,5.666,0,0,0-1.344.377,4.6,4.6,0,0,1,.855,2.787,5.012,5.012,0,0,1-.449,2.149,4.919,4.919,0,0,1-1.214,1.636,5.284,5.284,0,0,1-1.82,1.034,7,7,0,0,1-2.273.359,6.639,6.639,0,0,1-2.379-.411,2.706,2.706,0,0,0-.855.526.977.977,0,0,0-.321.729.784.784,0,0,0,.459.728,5.425,5.425,0,0,0,1.72.4l3.222.246A8.13,8.13,0,0,1,425.18,234a2.976,2.976,0,0,1,1.312,2.625,3.261,3.261,0,0,1-.5,1.792,4.033,4.033,0,0,1-1.395,1.311,7.524,7.524,0,0,1-2.145.8,12.671,12.671,0,0,1-2.764.281,10.85,10.85,0,0,1-5.326-1A3.051,3.051,0,0,1,412.656,237.088Zm1.873-.24a1.953,1.953,0,0,0,1.279,1.8,9.827,9.827,0,0,0,4.067.625,7.652,7.652,0,0,0,3.541-.679A2.023,2.023,0,0,0,424.7,236.8a1.748,1.748,0,0,0-.917-1.6,7.593,7.593,0,0,0-3.092-.706l-2.921-.238-.781-.083a3.839,3.839,0,0,0-1.859,1.115A2.387,2.387,0,0,0,414.529,236.848Zm.985-11.387a3.549,3.549,0,0,0,1.08,2.72,4.656,4.656,0,0,0,5.776.016,3.5,3.5,0,0,0,1.06-2.679,3.817,3.817,0,0,0-1.033-2.824,4.631,4.631,0,0,0-5.831,0A3.7,3.7,0,0,0,415.514,225.461Z" transform="translate(-2.352)"/><path d="M428.707,227.757a9.156,9.156,0,0,1,.574-3.4,6.991,6.991,0,0,1,1.5-2.379,6.2,6.2,0,0,1,2.071-1.4,6.1,6.1,0,0,1,2.318-.465,5.807,5.807,0,0,1,2.4.492,5.222,5.222,0,0,1,1.9,1.456,7.151,7.151,0,0,1,1.264,2.406,10.809,10.809,0,0,1,.465,3.316v.369H430.635a7.24,7.24,0,0,0,.376,2.432,5.555,5.555,0,0,0,1,1.786,4.245,4.245,0,0,0,3.267,1.5,4.8,4.8,0,0,0,2.7-.694,6.7,6.7,0,0,0,1.894-2.012l1.2.961a7.764,7.764,0,0,1-2.4,2.447,6.45,6.45,0,0,1-3.521.9,6.316,6.316,0,0,1-2.461-.492,5.647,5.647,0,0,1-2.054-1.476,7.494,7.494,0,0,1-1.409-2.407A9.568,9.568,0,0,1,428.707,227.757Zm1.955-1.148h8.654a9.356,9.356,0,0,0-.376-1.932,4.94,4.94,0,0,0-.793-1.567,3.482,3.482,0,0,0-1.271-1.031,3.98,3.98,0,0,0-1.743-.365,4.119,4.119,0,0,0-1.545.3,4.011,4.011,0,0,0-1.347.9,5.1,5.1,0,0,0-1.025,1.519A7.08,7.08,0,0,0,430.662,226.609Z" transform="translate(-2.352)"/><path d="M444.84,235.154V220.4h1.928v2.324a10.919,10.919,0,0,1,2.467-1.839,6.46,6.46,0,0,1,3.165-.772,4.353,4.353,0,0,1,3.288,1.148,4.475,4.475,0,0,1,1.1,3.227v10.664h-1.928V224.845a3.287,3.287,0,0,0-.711-2.317,2.92,2.92,0,0,0-2.228-.759,5.409,5.409,0,0,0-2.659.684,12.212,12.212,0,0,0-2.5,1.886v10.815Z" transform="translate(-2.352)"/><path d="M460.262,227.757a9.156,9.156,0,0,1,.574-3.4,6.991,6.991,0,0,1,1.5-2.379,6.193,6.193,0,0,1,2.071-1.4,6.093,6.093,0,0,1,2.318-.465,5.807,5.807,0,0,1,2.4.492,5.219,5.219,0,0,1,1.9,1.456,7.152,7.152,0,0,1,1.265,2.406,10.809,10.809,0,0,1,.465,3.316v.369H462.189a7.24,7.24,0,0,0,.376,2.432,5.555,5.555,0,0,0,1,1.786,4.25,4.25,0,0,0,3.268,1.5,4.8,4.8,0,0,0,2.7-.694,6.726,6.726,0,0,0,1.894-2.012l1.2.961a7.756,7.756,0,0,1-2.4,2.447,6.444,6.444,0,0,1-3.52.9,6.313,6.313,0,0,1-2.461-.492A5.659,5.659,0,0,1,462.2,233.5a7.492,7.492,0,0,1-1.408-2.407A9.545,9.545,0,0,1,460.262,227.757Zm1.955-1.148h8.654a9.356,9.356,0,0,0-.376-1.932,4.94,4.94,0,0,0-.793-1.567,3.49,3.49,0,0,0-1.271-1.031,3.98,3.98,0,0,0-1.743-.365,4.115,4.115,0,0,0-1.545.3,4,4,0,0,0-1.347.9,5.1,5.1,0,0,0-1.025,1.519A7.052,7.052,0,0,0,462.217,226.609Z" transform="translate(-2.352)"/><path d="M476.4,235.154V220.4h1.927v2.936h.055a7.508,7.508,0,0,1,2.276-2.307,6.425,6.425,0,0,1,3.576-.916h.341l-.191,1.818h-.287a1.338,1.338,0,0,1-.192-.013.848.848,0,0,0-.109-.014,5.506,5.506,0,0,0-3.213.955,7,7,0,0,0-2.256,2.715v9.578Z" transform="translate(-2.352)"/><path d="M486.033,231.7a4.2,4.2,0,0,1,.506-2.028,5,5,0,0,1,1.682-1.719,12.5,12.5,0,0,1,3.083-1.4,30.471,30.471,0,0,1,4.723-1.037v-.758a3.087,3.087,0,0,0-.764-2.292,3.045,3.045,0,0,0-2.225-.751,6.574,6.574,0,0,0-3.046.662,12.5,12.5,0,0,0-2.458,1.679l-1.047-1.212a11.831,11.831,0,0,1,2.941-1.974,8.8,8.8,0,0,1,3.788-.754,4.656,4.656,0,0,1,3.616,1.243,4.965,4.965,0,0,1,1.123,3.455v6.7a20.845,20.845,0,0,0,.1,2.213,5.759,5.759,0,0,0,.314,1.433h-1.994q-.138-.481-.24-.97a5.583,5.583,0,0,1-.1-1.147,9.2,9.2,0,0,1-2.709,1.772,8.033,8.033,0,0,1-3.1.591,4.463,4.463,0,0,1-3.083-.98A3.459,3.459,0,0,1,486.033,231.7Zm1.928-.245a2.146,2.146,0,0,0,.71,1.759,2.991,2.991,0,0,0,1.965.587,6.887,6.887,0,0,0,2.907-.614,9.08,9.08,0,0,0,2.484-1.705V226.9a29.985,29.985,0,0,0-3.923.88,10.9,10.9,0,0,0-2.471,1.058,3.687,3.687,0,0,0-1.3,1.228A2.76,2.76,0,0,0,487.961,231.454Z" transform="translate(-2.352)"/><path d="M502.412,235.154V214.427h1.928v20.727Z" transform="translate(-2.352)"/><path d="M392.347,252.984v-2.078h2.05v2.078Zm.054,18.17V256.4h1.928v14.752Z" transform="translate(-2.352)"/><path d="M398.964,271.154V256.4h1.928v2.324a10.919,10.919,0,0,1,2.467-1.839,6.46,6.46,0,0,1,3.165-.772,4.353,4.353,0,0,1,3.288,1.148,4.475,4.475,0,0,1,1.1,3.227v10.664h-1.928V260.845a3.287,3.287,0,0,0-.711-2.317,2.92,2.92,0,0,0-2.228-.759,5.409,5.409,0,0,0-2.659.684,12.212,12.212,0,0,0-2.5,1.886v10.815Z" transform="translate(-2.352)"/><path d="M413.661,258.056V256.4h2.584v-5.291h1.928V256.4H422v1.654h-3.828v9.267a2.909,2.909,0,0,0,.478,1.8,2.226,2.226,0,0,0,1.846.623h.827a2.5,2.5,0,0,0,.718-.1v1.531c-.228.036-.52.074-.875.11a10.308,10.308,0,0,1-1.039.054,4.251,4.251,0,0,1-3-.854,3.745,3.745,0,0,1-.882-2.782v-9.653Z" transform="translate(-2.352)"/><path d="M424.366,263.757a9.177,9.177,0,0,1,.574-3.4,6.991,6.991,0,0,1,1.5-2.379,6.2,6.2,0,0,1,2.072-1.4,6.088,6.088,0,0,1,2.317-.465,5.807,5.807,0,0,1,2.4.492,5.214,5.214,0,0,1,1.9,1.456,7.151,7.151,0,0,1,1.264,2.406,10.809,10.809,0,0,1,.465,3.316v.369H426.294a7.24,7.24,0,0,0,.376,2.432,5.555,5.555,0,0,0,1,1.786,4.249,4.249,0,0,0,3.267,1.5,4.806,4.806,0,0,0,2.7-.694,6.711,6.711,0,0,0,1.893-2.012l1.2.961a7.764,7.764,0,0,1-2.4,2.447,6.448,6.448,0,0,1-3.521.9,6.32,6.32,0,0,1-2.461-.492A5.655,5.655,0,0,1,426.3,269.5a7.474,7.474,0,0,1-1.408-2.407A9.544,9.544,0,0,1,424.366,263.757Zm1.955-1.148h8.655a9.489,9.489,0,0,0-.376-1.932,4.981,4.981,0,0,0-.793-1.567,3.493,3.493,0,0,0-1.272-1.031,3.98,3.98,0,0,0-1.743-.365,4.119,4.119,0,0,0-1.545.3,4.021,4.021,0,0,0-1.347.9,5.1,5.1,0,0,0-1.025,1.519A7.08,7.08,0,0,0,426.321,262.609Z" transform="translate(-2.352)"/><path d="M440.663,271.154V250.427h1.928v20.727Z" transform="translate(-2.352)"/><path d="M447.39,271.154V250.427h1.927v20.727Z" transform="translate(-2.352)"/><path d="M454.062,252.984v-2.078h2.05v2.078Zm.054,18.17V256.4h1.928v14.752Z" transform="translate(-2.352)"/><path d="M459.024,273.088a2.985,2.985,0,0,1,.725-2,4.83,4.83,0,0,1,2.023-1.342,1.9,1.9,0,0,1-1.285-1.881,1.843,1.843,0,0,1,.481-1.229,4.183,4.183,0,0,1,1.283-.969,4.764,4.764,0,0,1-1.654-1.77,5.459,5.459,0,0,1-.144-4.621,5.041,5.041,0,0,1,1.217-1.675,5.657,5.657,0,0,1,1.839-1.094,6.624,6.624,0,0,1,2.324-.4,6.7,6.7,0,0,1,2.349.4,5.485,5.485,0,0,1,1.843,1.121,6.982,6.982,0,0,1,1.569-.854,7.184,7.184,0,0,1,1.827-.485v1.927a8.833,8.833,0,0,0-1.343.108,5.666,5.666,0,0,0-1.344.377,4.6,4.6,0,0,1,.855,2.787,5.027,5.027,0,0,1-.448,2.149,4.922,4.922,0,0,1-1.215,1.636,5.275,5.275,0,0,1-1.82,1.034,7,7,0,0,1-2.273.359,6.639,6.639,0,0,1-2.379-.411,2.7,2.7,0,0,0-.854.526.974.974,0,0,0-.322.729.786.786,0,0,0,.459.728,5.425,5.425,0,0,0,1.72.4l3.222.246A8.13,8.13,0,0,1,471.548,270a2.976,2.976,0,0,1,1.312,2.625,3.261,3.261,0,0,1-.5,1.792,4.024,4.024,0,0,1-1.395,1.311,7.524,7.524,0,0,1-2.145.8,12.664,12.664,0,0,1-2.764.281,10.843,10.843,0,0,1-5.325-1A3.051,3.051,0,0,1,459.024,273.088Zm1.873-.24a1.953,1.953,0,0,0,1.279,1.8,9.827,9.827,0,0,0,4.067.625,7.652,7.652,0,0,0,3.541-.679,2.021,2.021,0,0,0,1.285-1.792,1.748,1.748,0,0,0-.917-1.6,7.592,7.592,0,0,0-3.091-.706l-2.921-.238-.782-.083a3.844,3.844,0,0,0-1.859,1.115A2.392,2.392,0,0,0,460.9,272.848Zm.985-11.387a3.549,3.549,0,0,0,1.08,2.72,4.656,4.656,0,0,0,5.776.016,3.5,3.5,0,0,0,1.06-2.679,3.82,3.82,0,0,0-1.032-2.824,4.631,4.631,0,0,0-5.831,0A3.7,3.7,0,0,0,461.882,261.461Z" transform="translate(-2.352)"/><path d="M475.075,263.757a9.177,9.177,0,0,1,.574-3.4,6.991,6.991,0,0,1,1.5-2.379,6.2,6.2,0,0,1,2.072-1.4,6.088,6.088,0,0,1,2.317-.465,5.807,5.807,0,0,1,2.4.492,5.214,5.214,0,0,1,1.9,1.456,7.151,7.151,0,0,1,1.264,2.406,10.809,10.809,0,0,1,.465,3.316v.369H477a7.24,7.24,0,0,0,.376,2.432,5.555,5.555,0,0,0,1,1.786,4.249,4.249,0,0,0,3.267,1.5,4.806,4.806,0,0,0,2.7-.694,6.711,6.711,0,0,0,1.893-2.012l1.2.961a7.764,7.764,0,0,1-2.4,2.447,6.448,6.448,0,0,1-3.521.9,6.32,6.32,0,0,1-2.461-.492,5.655,5.655,0,0,1-2.054-1.476,7.494,7.494,0,0,1-1.409-2.407A9.568,9.568,0,0,1,475.075,263.757Zm1.955-1.148h8.655a9.489,9.489,0,0,0-.376-1.932,4.981,4.981,0,0,0-.793-1.567,3.493,3.493,0,0,0-1.272-1.031,3.98,3.98,0,0,0-1.743-.365,4.119,4.119,0,0,0-1.545.3,4.021,4.021,0,0,0-1.347.9,5.1,5.1,0,0,0-1.025,1.519A7.08,7.08,0,0,0,477.03,262.609Z" transform="translate(-2.352)"/><path d="M491.208,271.154V256.4h1.928v2.324a10.9,10.9,0,0,1,2.468-1.839,6.455,6.455,0,0,1,3.165-.772,4.354,4.354,0,0,1,3.288,1.148,4.478,4.478,0,0,1,1.1,3.227v10.664h-1.928V260.845a3.292,3.292,0,0,0-.71-2.317,2.924,2.924,0,0,0-2.229-.759,5.409,5.409,0,0,0-2.659.684,12.239,12.239,0,0,0-2.495,1.886v10.815Z" transform="translate(-2.352)"/><path d="M506.63,263.785a9.486,9.486,0,0,1,.557-3.425,7.028,7.028,0,0,1,1.476-2.393,5.736,5.736,0,0,1,2.116-1.4,6.827,6.827,0,0,1,2.427-.451,6.246,6.246,0,0,1,2.085.321,5.046,5.046,0,0,1,1.579.882,6.194,6.194,0,0,1,1.162,1.292,8.453,8.453,0,0,1,.821,1.538l-1.641.725a6,6,0,0,0-1.566-2.3,3.712,3.712,0,0,0-2.5-.8,4.7,4.7,0,0,0-1.647.308,3.788,3.788,0,0,0-1.483,1.025,5.354,5.354,0,0,0-1.06,1.86,8.443,8.443,0,0,0-.4,2.8,8.721,8.721,0,0,0,.348,2.584,5.842,5.842,0,0,0,.95,1.887,4.153,4.153,0,0,0,1.429,1.176,4,4,0,0,0,1.8.41,3.927,3.927,0,0,0,2.5-.745,6.648,6.648,0,0,0,1.743-2.4l1.559.669a11.193,11.193,0,0,1-.984,1.7,5.775,5.775,0,0,1-1.265,1.305,5.631,5.631,0,0,1-1.613.827,6.423,6.423,0,0,1-2.017.294,6.017,6.017,0,0,1-2.42-.5,5.835,5.835,0,0,1-2.041-1.491,7.285,7.285,0,0,1-1.394-2.406A9.6,9.6,0,0,1,506.63,263.785Z" transform="translate(-2.352)"/><path d="M521.245,263.757a9.177,9.177,0,0,1,.574-3.4,6.991,6.991,0,0,1,1.5-2.379,6.2,6.2,0,0,1,2.072-1.4,6.088,6.088,0,0,1,2.317-.465,5.807,5.807,0,0,1,2.4.492,5.214,5.214,0,0,1,1.9,1.456,7.151,7.151,0,0,1,1.264,2.406,10.809,10.809,0,0,1,.465,3.316v.369H523.173a7.24,7.24,0,0,0,.376,2.432,5.555,5.555,0,0,0,1,1.786,4.245,4.245,0,0,0,3.267,1.5,4.8,4.8,0,0,0,2.7-.694,6.7,6.7,0,0,0,1.894-2.012l1.2.961a7.764,7.764,0,0,1-2.4,2.447,6.448,6.448,0,0,1-3.521.9,6.316,6.316,0,0,1-2.461-.492,5.655,5.655,0,0,1-2.054-1.476,7.494,7.494,0,0,1-1.409-2.407A9.568,9.568,0,0,1,521.245,263.757Zm1.955-1.148h8.654a9.422,9.422,0,0,0-.375-1.932,4.981,4.981,0,0,0-.793-1.567,3.493,3.493,0,0,0-1.272-1.031,3.98,3.98,0,0,0-1.743-.365,4.119,4.119,0,0,0-1.545.3,4.021,4.021,0,0,0-1.347.9,5.1,5.1,0,0,0-1.025,1.519A7.08,7.08,0,0,0,523.2,262.609Z" transform="translate(-2.352)"/><path d="M438.339,307.154l7.328-20.809h4.348l7.328,20.809h-4.621l-1.532-4.649h-7.054l-1.6,4.649Zm6.918-7.93h4.867l-2.379-7.054h-.055Z" transform="translate(-2.352)"/><path d="M457.862,296.709a13.96,13.96,0,0,1,.655-4.41,9.66,9.66,0,0,1,1.869-3.363,8.16,8.16,0,0,1,2.961-2.14,9.858,9.858,0,0,1,3.928-.751,11.62,11.62,0,0,1,2.778.322,6.89,6.89,0,0,1,2.394,1.1,7.367,7.367,0,0,1,1.9,2.052,11.025,11.025,0,0,1,1.306,3.184l-4.17,1.141a6.548,6.548,0,0,0-1.665-3.078,3.727,3.727,0,0,0-2.566-.9,5.393,5.393,0,0,0-1.472.238,3.651,3.651,0,0,0-1.568.979,6,6,0,0,0-1.259,2.058,9.7,9.7,0,0,0-.52,3.494,11.321,11.321,0,0,0,.472,3.574,6.259,6.259,0,0,0,1.2,2.2,4.051,4.051,0,0,0,1.617,1.133,5.006,5.006,0,0,0,1.717.32,4.124,4.124,0,0,0,2.834-.991,4.606,4.606,0,0,0,1.438-2.728H468.1v-3.377h7.943v10.391h-3.664v-2.869h-.055a4.3,4.3,0,0,1-.6,1.043,4.962,4.962,0,0,1-1.1,1.056,6.57,6.57,0,0,1-1.608.83,6.131,6.131,0,0,1-2.1.336,9.322,9.322,0,0,1-4.058-.813,7.667,7.667,0,0,1-2.816-2.27,9.68,9.68,0,0,1-1.65-3.431A16.593,16.593,0,0,1,457.862,296.709Z" transform="translate(-2.352)"/><path d="M480.38,307.154V286.427h4.512v20.727Z" transform="translate(-2.352)"/><path class="cls-1" d="M525.246,36.75C517.781,17.25,499.123,4.5,477.375,4.5h-.559v135l21,3.586V106.5h9.957c6.077,0,11.793-1.351,11.793-9.237V73.5h8.25V56.048C527.816,49.466,527.505,42,525.246,36.75Z" transform="translate(-2.352)"/><polygon class="cls-2" points="474.464 106.5 474.464 139.5 495.464 143.086 495.464 106.5 495.317 106.5 474.464 106.5"/><path class="cls-3" d="M476.816,73.5v33h30.957c6.077,0,11.793-1.351,11.793-9.237V73.5h-42.75Z" transform="translate(-2.352)"/><path class="cls-4" d="M525.246,36.75h-48.43V73.5h51V56.048C527.816,49.466,527.505,42,525.246,36.75Z" transform="translate(-2.352)"/><path d="M430.315,0a6,6,0,1,0,5.8,7.5h40.7v-3h-40.7A6.005,6.005,0,0,0,430.315,0Zm0,9a3,3,0,1,1,3-3A3,3,0,0,1,430.316,9Zm-27,15a6,6,0,1,0,5.8,7.5h67.7v-3h-67.7A6.005,6.005,0,0,0,403.315,24Zm0,9a3,3,0,1,1,3-3A3,3,0,0,1,403.316,33Zm13.5,39.375a6,6,0,1,0,5.892,7.125h54.109v-3h-54.3A6.009,6.009,0,0,0,416.815,72.375Zm0,9a3,3,0,1,1,3-3A3,3,0,0,1,416.816,81.375Zm31.243,28.383a6,6,0,1,0,1.56,5.742h27.2v-3H449.621A5.957,5.957,0,0,0,448.059,109.758ZM446.816,114a3,3,0,1,1-.878-2.121,3,3,0,0,1,.878,2.121Zm-21-97.5h51v3h-51Zm3,24h48v3h-48Zm-27,12h75v3h-75Zm36,12h39v3h-39Zm9,24h30v3h-30Zm-9,12h39v3h-39Zm12,24h27v3h-27Zm0,12h27v3h-27ZM511.48,54.89l6.019,3.283-1.437,2.634L505.215,54.89l10.847-5.917,1.437,2.633Z" transform="translate(-2.352)"/><path d="M20.3,199.154l7.328-20.809h2.16l7.342,20.809H35.055l-2.215-6.385h-8.4l-2.215,6.385Zm4.758-8.149h7.164L28.67,180.7h-.055Z" transform="translate(-2.352)"/><path d="M40.373,199.154V184.4H42.3v2.936h.054a7.5,7.5,0,0,1,2.277-2.307,6.421,6.421,0,0,1,3.575-.916h.342l-.192,1.818H48.07a1.323,1.323,0,0,1-.191-.013.893.893,0,0,0-.109-.014,5.506,5.506,0,0,0-3.213.955,7,7,0,0,0-2.256,2.715v9.578Z" transform="translate(-2.352)"/><path d="M49.861,186.056V184.4h2.584v-5.291h1.928V184.4H58.2v1.654H54.373v9.267a2.9,2.9,0,0,0,.479,1.8,2.223,2.223,0,0,0,1.845.623h.827a2.5,2.5,0,0,0,.718-.1v1.531c-.227.036-.519.074-.875.11a10.308,10.308,0,0,1-1.039.054,4.251,4.251,0,0,1-3-.854,3.745,3.745,0,0,1-.882-2.782v-9.653Z" transform="translate(-2.352)"/><path d="M61.77,180.984v-2.078h2.05v2.078Zm.054,18.17V184.4h1.928v14.752Z" transform="translate(-2.352)"/><path d="M66.9,186.056V184.4H69.48v-2.215a3.621,3.621,0,0,1,1.06-2.83,4.453,4.453,0,0,1,3.083-.957c.164,0,.354,0,.567.014a2.84,2.84,0,0,1,.5.053v1.587c-.118-.018-.271-.032-.458-.041s-.353-.013-.5-.013a2.623,2.623,0,0,0-1.695.508,1.988,1.988,0,0,0-.629,1.638V184.4h3.131v1.654H71.408v13.1H69.48v-13.1Zm10.733-5.072v-2.078h2.037v2.078Zm.055,18.17V184.4h1.927v14.752Z" transform="translate(-2.352)"/><path d="M83.617,191.785a9.508,9.508,0,0,1,.557-3.425,7.028,7.028,0,0,1,1.476-2.393,5.747,5.747,0,0,1,2.117-1.4,6.818,6.818,0,0,1,2.426-.451,6.242,6.242,0,0,1,2.085.321,5.035,5.035,0,0,1,1.579.882,6.2,6.2,0,0,1,1.163,1.292,8.448,8.448,0,0,1,.82,1.538l-1.641.725a6.013,6.013,0,0,0-1.565-2.3,3.712,3.712,0,0,0-2.5-.8,4.707,4.707,0,0,0-1.648.308,3.788,3.788,0,0,0-1.483,1.025,5.37,5.37,0,0,0-1.06,1.86,8.47,8.47,0,0,0-.4,2.8,8.687,8.687,0,0,0,.349,2.584,5.8,5.8,0,0,0,.95,1.887,4.15,4.15,0,0,0,1.428,1.176,4,4,0,0,0,1.8.41,3.923,3.923,0,0,0,2.5-.745,6.661,6.661,0,0,0,1.744-2.4l1.558.669a11.193,11.193,0,0,1-.984,1.7,5.733,5.733,0,0,1-1.265,1.305,5.6,5.6,0,0,1-1.613.827,6.423,6.423,0,0,1-2.017.294,6.021,6.021,0,0,1-2.42-.5,5.835,5.835,0,0,1-2.041-1.491,7.3,7.3,0,0,1-1.394-2.406A9.6,9.6,0,0,1,83.617,191.785Z" transform="translate(-2.352)"/><path d="M99.436,180.984v-2.078h2.05v2.078Zm.054,18.17V184.4h1.928v14.752Z" transform="translate(-2.352)"/><path d="M105.15,195.7a4.2,4.2,0,0,1,.506-2.028,5,5,0,0,1,1.682-1.719,12.5,12.5,0,0,1,3.083-1.4,30.486,30.486,0,0,1,4.724-1.037v-.758a3.083,3.083,0,0,0-.765-2.292,3.045,3.045,0,0,0-2.225-.751,6.574,6.574,0,0,0-3.046.662,12.525,12.525,0,0,0-2.458,1.679l-1.047-1.212a11.849,11.849,0,0,1,2.941-1.974,8.8,8.8,0,0,1,3.788-.754,4.656,4.656,0,0,1,3.616,1.243,4.965,4.965,0,0,1,1.123,3.455v6.7a20.845,20.845,0,0,0,.1,2.213,5.759,5.759,0,0,0,.314,1.433h-1.994q-.138-.481-.24-.97a5.589,5.589,0,0,1-.1-1.147,9.226,9.226,0,0,1-2.709,1.772,8.041,8.041,0,0,1-3.106.591,4.464,4.464,0,0,1-3.083-.98A3.462,3.462,0,0,1,105.15,195.7Zm1.928-.245a2.146,2.146,0,0,0,.71,1.759,2.991,2.991,0,0,0,1.965.587,6.884,6.884,0,0,0,2.907-.614,9.1,9.1,0,0,0,2.485-1.705V190.9a30,30,0,0,0-3.924.88,10.919,10.919,0,0,0-2.471,1.058,3.687,3.687,0,0,0-1.3,1.228A2.76,2.76,0,0,0,107.078,195.454Z" transform="translate(-2.352)"/><path d="M121.529,199.154V178.427h1.928v20.727Z" transform="translate(-2.352)"/><path d="M26.838,235.154V220.4h1.928v2.324a10.919,10.919,0,0,1,2.467-1.839,6.46,6.46,0,0,1,3.165-.772,4.357,4.357,0,0,1,3.289,1.148,4.478,4.478,0,0,1,1.1,3.227v10.664H36.859V224.845a3.287,3.287,0,0,0-.711-2.317,2.92,2.92,0,0,0-2.228-.759,5.409,5.409,0,0,0-2.659.684,12.212,12.212,0,0,0-2.5,1.886v10.815Z" transform="translate(-2.352)"/><path d="M42.205,231.7a4.2,4.2,0,0,1,.506-2.028,4.988,4.988,0,0,1,1.682-1.719,12.5,12.5,0,0,1,3.083-1.4,30.471,30.471,0,0,1,4.723-1.037v-.758a3.087,3.087,0,0,0-.764-2.292,3.045,3.045,0,0,0-2.225-.751,6.574,6.574,0,0,0-3.046.662,12.5,12.5,0,0,0-2.458,1.679l-1.047-1.212a11.831,11.831,0,0,1,2.941-1.974,8.8,8.8,0,0,1,3.788-.754A4.656,4.656,0,0,1,53,221.358a4.965,4.965,0,0,1,1.123,3.455v6.7a20.845,20.845,0,0,0,.1,2.213,5.759,5.759,0,0,0,.314,1.433H52.543q-.138-.481-.24-.97a5.514,5.514,0,0,1-.1-1.147,9.213,9.213,0,0,1-2.709,1.772,8.033,8.033,0,0,1-3.105.591,4.463,4.463,0,0,1-3.083-.98A3.459,3.459,0,0,1,42.205,231.7Zm1.928-.245a2.146,2.146,0,0,0,.71,1.759,2.99,2.99,0,0,0,1.965.587,6.891,6.891,0,0,0,2.907-.614,9.1,9.1,0,0,0,2.484-1.705V226.9a30.043,30.043,0,0,0-3.924.88,10.909,10.909,0,0,0-2.47,1.058,3.678,3.678,0,0,0-1.3,1.228A2.76,2.76,0,0,0,44.133,231.454Z" transform="translate(-2.352)"/><path d="M58.42,235.154V220.4h1.928v2.936H60.4a7.5,7.5,0,0,1,2.277-2.307,6.421,6.421,0,0,1,3.575-.916H66.6l-.192,1.818h-.287a1.313,1.313,0,0,1-.191-.013.878.878,0,0,0-.11-.014,5.5,5.5,0,0,0-3.212.955,7,7,0,0,0-2.256,2.715v9.578Z" transform="translate(-2.352)"/><path d="M69.48,235.154V220.4h1.928v2.936h.055a7.508,7.508,0,0,1,2.276-2.307,6.423,6.423,0,0,1,3.575-.916h.342l-.191,1.818h-.287a1.327,1.327,0,0,1-.192-.013.848.848,0,0,0-.109-.014,5.506,5.506,0,0,0-3.213.955,7,7,0,0,0-2.256,2.715v9.578Z" transform="translate(-2.352)"/><path d="M78.941,227.785a9.342,9.342,0,0,1,.533-3.275,7.163,7.163,0,0,1,1.441-2.406,6.02,6.02,0,0,1,2.131-1.483,6.7,6.7,0,0,1,2.588-.506,6.614,6.614,0,0,1,2.559.506,6.044,6.044,0,0,1,2.128,1.483,7.153,7.153,0,0,1,1.444,2.406,10.328,10.328,0,0,1,0,6.556,7.243,7.243,0,0,1-1.444,2.406,5.989,5.989,0,0,1-2.128,1.491,6.741,6.741,0,0,1-5.12,0,6.093,6.093,0,0,1-2.144-1.491,7.1,7.1,0,0,1-1.455-2.406A9.325,9.325,0,0,1,78.941,227.785Zm1.928-.028a8.927,8.927,0,0,0,.294,2.325,5.756,5.756,0,0,0,.9,1.921,4.522,4.522,0,0,0,1.5,1.319,4.621,4.621,0,0,0,4.066.041,4.453,4.453,0,0,0,1.485-1.251,5.708,5.708,0,0,0,.939-1.9,8.757,8.757,0,0,0,.321-2.455,8.343,8.343,0,0,0-.308-2.29,6,6,0,0,0-.9-1.9,4.5,4.5,0,0,0-1.472-1.306,4.163,4.163,0,0,0-2.06-.492,4.356,4.356,0,0,0-2.006.451,4.431,4.431,0,0,0-1.5,1.244,5.629,5.629,0,0,0-.939,1.9A8.6,8.6,0,0,0,80.869,227.757Z" transform="translate(-2.352)"/><path d="M94.049,220.4h2.023l2.04,7.305.363,1.3c.111.4.222.8.334,1.2l.337,1.211q.172.612.367,1.309h.055q.194-.792.367-1.408t.311-1.189q.138-.574.311-1.149t.366-1.271l2.045-7.3h1.783l2,7.439q.18.673.337,1.253t.307,1.141l.313,1.161c.107.4.226.837.353,1.313h.054q.2-.752.364-1.339t.3-1.134q.142-.546.3-1.106t.364-1.229l2.12-7.5h1.873l-4.525,14.752h-1.791L103.8,223.027h-.055l-3.4,12.127H98.575Z" transform="translate(-2.352)"/><path d="M2.352,252.984v-2.078H4.4v2.078Zm.054,18.17V256.4H4.334v14.752Z" transform="translate(-2.352)"/><path d="M8.969,271.154V256.4H10.9v2.324a10.925,10.925,0,0,1,2.468-1.839,6.46,6.46,0,0,1,3.165-.772,4.353,4.353,0,0,1,3.288,1.148,4.475,4.475,0,0,1,1.1,3.227v10.664H18.99V260.845a3.287,3.287,0,0,0-.711-2.317,2.921,2.921,0,0,0-2.228-.759,5.409,5.409,0,0,0-2.659.684,12.216,12.216,0,0,0-2.5,1.886v10.815Z" transform="translate(-2.352)"/><path d="M23.666,258.056V256.4H26.25v-5.291h1.928V256.4h3.828v1.654H28.178v9.267a2.909,2.909,0,0,0,.478,1.8,2.226,2.226,0,0,0,1.846.623h.827a2.5,2.5,0,0,0,.718-.1v1.531c-.228.036-.52.074-.875.11a10.323,10.323,0,0,1-1.039.054,4.251,4.251,0,0,1-3-.854,3.745,3.745,0,0,1-.882-2.782v-9.653Z" transform="translate(-2.352)"/><path d="M34.371,263.757a9.156,9.156,0,0,1,.574-3.4,6.991,6.991,0,0,1,1.5-2.379,6.2,6.2,0,0,1,2.072-1.4,6.088,6.088,0,0,1,2.317-.465,5.807,5.807,0,0,1,2.4.492,5.222,5.222,0,0,1,1.9,1.456,7.151,7.151,0,0,1,1.264,2.406,10.809,10.809,0,0,1,.465,3.316v.369H36.3a7.24,7.24,0,0,0,.376,2.432,5.555,5.555,0,0,0,1.005,1.786,4.245,4.245,0,0,0,3.267,1.5,4.8,4.8,0,0,0,2.7-.694,6.7,6.7,0,0,0,1.894-2.012l1.2.961a7.764,7.764,0,0,1-2.4,2.447,6.448,6.448,0,0,1-3.521.9,6.316,6.316,0,0,1-2.461-.492,5.655,5.655,0,0,1-2.054-1.476,7.494,7.494,0,0,1-1.409-2.407A9.568,9.568,0,0,1,34.371,263.757Zm1.955-1.148H44.98a9.356,9.356,0,0,0-.376-1.932,4.959,4.959,0,0,0-.792-1.567,3.493,3.493,0,0,0-1.272-1.031,3.98,3.98,0,0,0-1.743-.365,4.119,4.119,0,0,0-1.545.3,4.021,4.021,0,0,0-1.347.9,5.1,5.1,0,0,0-1.025,1.519A7.08,7.08,0,0,0,36.326,262.609Z" transform="translate(-2.352)"/><path d="M50.668,271.154V250.427H52.6v20.727Z" transform="translate(-2.352)"/><path d="M57.4,271.154V250.427h1.927v20.727Z" transform="translate(-2.352)"/><path d="M64.066,252.984v-2.078h2.051v2.078Zm.055,18.17V256.4h1.928v14.752Z" transform="translate(-2.352)"/><path d="M69.029,273.088a2.985,2.985,0,0,1,.725-2,4.83,4.83,0,0,1,2.023-1.342,1.9,1.9,0,0,1-1.285-1.881,1.843,1.843,0,0,1,.481-1.229,4.183,4.183,0,0,1,1.283-.969A4.764,4.764,0,0,1,70.6,263.9a5.459,5.459,0,0,1-.144-4.621,5.041,5.041,0,0,1,1.217-1.675,5.647,5.647,0,0,1,1.839-1.094,6.624,6.624,0,0,1,2.324-.4,6.7,6.7,0,0,1,2.349.4,5.5,5.5,0,0,1,1.843,1.121,6.982,6.982,0,0,1,1.569-.854,7.184,7.184,0,0,1,1.827-.485v1.927a8.833,8.833,0,0,0-1.343.108,5.666,5.666,0,0,0-1.344.377,4.6,4.6,0,0,1,.855,2.787,5.027,5.027,0,0,1-.448,2.149,4.936,4.936,0,0,1-1.215,1.636,5.284,5.284,0,0,1-1.82,1.034,7,7,0,0,1-2.273.359,6.639,6.639,0,0,1-2.379-.411,2.717,2.717,0,0,0-.855.526.977.977,0,0,0-.321.729.786.786,0,0,0,.459.728,5.425,5.425,0,0,0,1.72.4l3.222.246A8.13,8.13,0,0,1,81.553,270a2.976,2.976,0,0,1,1.312,2.625,3.261,3.261,0,0,1-.5,1.792,4.033,4.033,0,0,1-1.4,1.311,7.524,7.524,0,0,1-2.145.8,12.671,12.671,0,0,1-2.764.281,10.85,10.85,0,0,1-5.326-1A3.051,3.051,0,0,1,69.029,273.088Zm1.873-.24a1.953,1.953,0,0,0,1.279,1.8,9.827,9.827,0,0,0,4.067.625,7.652,7.652,0,0,0,3.541-.679,2.021,2.021,0,0,0,1.285-1.792,1.748,1.748,0,0,0-.917-1.6,7.593,7.593,0,0,0-3.092-.706l-2.92-.238-.782-.083a3.839,3.839,0,0,0-1.859,1.115A2.392,2.392,0,0,0,70.9,272.848Zm.985-11.387a3.549,3.549,0,0,0,1.08,2.72,4.656,4.656,0,0,0,5.776.016,3.5,3.5,0,0,0,1.06-2.679,3.82,3.82,0,0,0-1.032-2.824,4.632,4.632,0,0,0-5.832,0A3.7,3.7,0,0,0,71.887,261.461Z" transform="translate(-2.352)"/><path d="M85.08,263.757a9.156,9.156,0,0,1,.574-3.4,6.991,6.991,0,0,1,1.5-2.379,6.2,6.2,0,0,1,2.071-1.4,6.1,6.1,0,0,1,2.318-.465,5.807,5.807,0,0,1,2.4.492,5.222,5.222,0,0,1,1.9,1.456,7.151,7.151,0,0,1,1.264,2.406,10.809,10.809,0,0,1,.465,3.316v.369H87.008a7.24,7.24,0,0,0,.376,2.432,5.555,5.555,0,0,0,1,1.786,4.245,4.245,0,0,0,3.267,1.5,4.8,4.8,0,0,0,2.7-.694,6.7,6.7,0,0,0,1.894-2.012l1.2.961a7.764,7.764,0,0,1-2.4,2.447,6.448,6.448,0,0,1-3.521.9,6.316,6.316,0,0,1-2.461-.492,5.655,5.655,0,0,1-2.054-1.476,7.494,7.494,0,0,1-1.409-2.407A9.568,9.568,0,0,1,85.08,263.757Zm1.955-1.148h8.654a9.356,9.356,0,0,0-.376-1.932,4.959,4.959,0,0,0-.792-1.567,3.493,3.493,0,0,0-1.272-1.031,3.98,3.98,0,0,0-1.743-.365,4.119,4.119,0,0,0-1.545.3,4.021,4.021,0,0,0-1.347.9,5.1,5.1,0,0,0-1.025,1.519A7.08,7.08,0,0,0,87.035,262.609Z" transform="translate(-2.352)"/><path d="M101.213,271.154V256.4h1.928v2.324a10.919,10.919,0,0,1,2.467-1.839,6.46,6.46,0,0,1,3.165-.772,4.357,4.357,0,0,1,3.289,1.148,4.478,4.478,0,0,1,1.1,3.227v10.664h-1.928V260.845a3.287,3.287,0,0,0-.711-2.317,2.92,2.92,0,0,0-2.228-.759,5.409,5.409,0,0,0-2.659.684,12.212,12.212,0,0,0-2.495,1.886v10.815Z" transform="translate(-2.352)"/><path d="M116.635,263.785a9.509,9.509,0,0,1,.556-3.425,7.029,7.029,0,0,1,1.477-2.393,5.736,5.736,0,0,1,2.116-1.4,6.827,6.827,0,0,1,2.427-.451,6.25,6.25,0,0,1,2.085.321,5.046,5.046,0,0,1,1.579.882,6.194,6.194,0,0,1,1.162,1.292,8.387,8.387,0,0,1,.82,1.538l-1.64.725a6.014,6.014,0,0,0-1.566-2.3,3.712,3.712,0,0,0-2.495-.8,4.7,4.7,0,0,0-1.647.308,3.8,3.8,0,0,0-1.484,1.025,5.369,5.369,0,0,0-1.059,1.86,8.441,8.441,0,0,0-.4,2.8,8.719,8.719,0,0,0,.349,2.584,5.842,5.842,0,0,0,.95,1.887,4.153,4.153,0,0,0,1.429,1.176,4,4,0,0,0,1.8.41,3.927,3.927,0,0,0,2.5-.745,6.648,6.648,0,0,0,1.743-2.4l1.559.669a11.114,11.114,0,0,1-.985,1.7,5.75,5.75,0,0,1-1.264,1.305,5.623,5.623,0,0,1-1.614.827,6.412,6.412,0,0,1-2.016.294,6.017,6.017,0,0,1-2.42-.5,5.835,5.835,0,0,1-2.041-1.491,7.3,7.3,0,0,1-1.395-2.406A9.621,9.621,0,0,1,116.635,263.785Z" transform="translate(-2.352)"/><path d="M131.25,263.757a9.156,9.156,0,0,1,.574-3.4,6.991,6.991,0,0,1,1.5-2.379,6.2,6.2,0,0,1,2.071-1.4,6.1,6.1,0,0,1,2.318-.465,5.807,5.807,0,0,1,2.4.492,5.222,5.222,0,0,1,1.9,1.456,7.151,7.151,0,0,1,1.264,2.406,10.809,10.809,0,0,1,.465,3.316v.369H133.178a7.24,7.24,0,0,0,.376,2.432,5.555,5.555,0,0,0,1,1.786,4.245,4.245,0,0,0,3.267,1.5,4.8,4.8,0,0,0,2.7-.694,6.713,6.713,0,0,0,1.894-2.012l1.2.961a7.764,7.764,0,0,1-2.4,2.447,6.45,6.45,0,0,1-3.521.9,6.316,6.316,0,0,1-2.461-.492,5.647,5.647,0,0,1-2.054-1.476,7.494,7.494,0,0,1-1.409-2.407A9.568,9.568,0,0,1,131.25,263.757Zm1.955-1.148h8.654a9.356,9.356,0,0,0-.376-1.932,4.94,4.94,0,0,0-.793-1.567,3.482,3.482,0,0,0-1.271-1.031,3.98,3.98,0,0,0-1.743-.365,4.119,4.119,0,0,0-1.545.3,4.011,4.011,0,0,0-1.347.9,5.1,5.1,0,0,0-1.025,1.519A7.052,7.052,0,0,0,133.205,262.609Z" transform="translate(-2.352)"/><path d="M47.571,307.154,54.9,286.345h4.348l7.328,20.809H61.954l-1.531-4.649H53.368l-1.6,4.649Zm6.918-7.93h4.867l-2.378-7.054h-.055Z" transform="translate(-2.352)"/><path d="M69.187,307.154V286.427h4.552l8.682,13.221h.055V286.427h4.2v20.727h-4.2l-9.038-13.33h-.054v13.33Z" transform="translate(-2.352)"/><path d="M91.157,307.154V286.427h4.512v20.727Z" transform="translate(-2.352)"/><path class="cls-5" d="M135.25,36.75C127.786,17.25,109.127,4.5,87.379,4.5H86.82v135l21,3.586V106.5h9.957c6.077,0,11.793-1.351,11.793-9.237V73.5h8.25V56.048C137.82,49.466,137.509,42,135.25,36.75Z" transform="translate(-2.352)"/><polygon class="cls-2" points="84.469 106.5 84.469 139.5 105.469 143.086 105.469 106.5 105.321 106.5 84.469 106.5"/><path class="cls-3" d="M86.82,73.5v33h30.957c6.077,0,11.793-1.351,11.793-9.237V73.5H86.82Z" transform="translate(-2.352)"/><path class="cls-4" d="M135.25,36.75H86.82V73.5h51V56.048C137.82,49.466,137.509,42,135.25,36.75Z" transform="translate(-2.352)"/><path d="M46.123,7.5h40.7v-3h-40.7M13.32,24a6,6,0,1,0,5.8,7.5h67.7v-3h-67.7A6.006,6.006,0,0,0,13.32,24Zm0,9a3,3,0,1,1,3-3A3,3,0,0,1,13.32,33ZM32.711,79.5H86.82v-3H32.711m26.912,39h27.2v-3H59.625m-23.8-96h51v3h-51Zm3,24h48v3h-48Zm-27,12h75v3h-75Zm36,12h39v3h-39Zm9,24h30v3h-30Zm-9,12h39v3h-39Zm12,24h27v3h-27Zm0,12h27v3h-27Zm61.664-81.61,6.019,3.283-1.437,2.634L115.219,54.89l10.847-5.917,1.437,2.633Z" transform="translate(-2.352)"/><path d="M800.294,199.154l7.328-20.809h2.16l7.342,20.809h-2.078l-2.215-6.385h-8.394l-2.215,6.385Zm4.758-8.149h7.164L808.661,180.7h-.055Z" transform="translate(-2.352)"/><path d="M820.364,199.154V184.4h1.928v2.936h.055a7.5,7.5,0,0,1,2.276-2.307,6.423,6.423,0,0,1,3.575-.916h.342l-.191,1.818h-.287a1.327,1.327,0,0,1-.192-.013.893.893,0,0,0-.109-.014,5.506,5.506,0,0,0-3.213.955,7,7,0,0,0-2.256,2.715v9.578Z" transform="translate(-2.352)"/><path d="M829.853,186.056V184.4h2.584v-5.291h1.927V184.4h3.828v1.654h-3.828v9.267a2.9,2.9,0,0,0,.479,1.8,2.223,2.223,0,0,0,1.845.623h.828a2.494,2.494,0,0,0,.717-.1v1.531c-.227.036-.519.074-.875.11a10.308,10.308,0,0,1-1.039.054,4.251,4.251,0,0,1-3-.854,3.745,3.745,0,0,1-.881-2.782v-9.653Z" transform="translate(-2.352)"/><path d="M841.761,180.984v-2.078h2.051v2.078Zm.054,18.17V184.4h1.928v14.752Z" transform="translate(-2.352)"/><path d="M846.888,186.056V184.4h2.584v-2.215a3.62,3.62,0,0,1,1.059-2.83,4.455,4.455,0,0,1,3.083-.957c.164,0,.354,0,.568.014a2.852,2.852,0,0,1,.5.053v1.587c-.119-.018-.272-.032-.458-.041s-.354-.013-.5-.013a2.625,2.625,0,0,0-1.7.508,1.988,1.988,0,0,0-.629,1.638V184.4h3.131v1.654H851.4v13.1h-1.927v-13.1Zm10.732-5.072v-2.078h2.037v2.078Zm.055,18.17V184.4H859.6v14.752Z" transform="translate(-2.352)"/><path d="M863.608,191.785a9.508,9.508,0,0,1,.557-3.425,7.014,7.014,0,0,1,1.477-2.393,5.736,5.736,0,0,1,2.116-1.4,6.823,6.823,0,0,1,2.427-.451,6.25,6.25,0,0,1,2.085.321,5.057,5.057,0,0,1,1.579.882,6.194,6.194,0,0,1,1.162,1.292,8.448,8.448,0,0,1,.82,1.538l-1.641.725a6.013,6.013,0,0,0-1.565-2.3,3.712,3.712,0,0,0-2.5-.8,4.707,4.707,0,0,0-1.648.308A3.8,3.8,0,0,0,867,187.1a5.386,5.386,0,0,0-1.06,1.86,8.47,8.47,0,0,0-.4,2.8,8.687,8.687,0,0,0,.349,2.584,5.822,5.822,0,0,0,.95,1.887,4.144,4.144,0,0,0,1.429,1.176,3.993,3.993,0,0,0,1.8.41,3.927,3.927,0,0,0,2.5-.745,6.671,6.671,0,0,0,1.743-2.4l1.558.669a11.193,11.193,0,0,1-.984,1.7,5.733,5.733,0,0,1-1.265,1.305,5.6,5.6,0,0,1-1.613.827,6.418,6.418,0,0,1-2.017.294,6.016,6.016,0,0,1-2.419-.5,5.817,5.817,0,0,1-2.041-1.491,7.3,7.3,0,0,1-1.395-2.406A9.6,9.6,0,0,1,863.608,191.785Z" transform="translate(-2.352)"/><path d="M879.427,180.984v-2.078h2.051v2.078Zm.054,18.17V184.4h1.928v14.752Z" transform="translate(-2.352)"/><path d="M885.142,195.7a4.214,4.214,0,0,1,.5-2.028,5,5,0,0,1,1.682-1.719,12.522,12.522,0,0,1,3.083-1.4,30.513,30.513,0,0,1,4.724-1.037v-.758a3.083,3.083,0,0,0-.765-2.292,3.045,3.045,0,0,0-2.225-.751,6.569,6.569,0,0,0-3.045.662,12.466,12.466,0,0,0-2.458,1.679l-1.047-1.212a11.826,11.826,0,0,1,2.94-1.974,8.807,8.807,0,0,1,3.788-.754,4.656,4.656,0,0,1,3.616,1.243,4.965,4.965,0,0,1,1.123,3.455v6.7a21.117,21.117,0,0,0,.1,2.213,5.755,5.755,0,0,0,.315,1.433h-2q-.137-.481-.24-.97a5.589,5.589,0,0,1-.1-1.147,9.226,9.226,0,0,1-2.709,1.772,8.038,8.038,0,0,1-3.106.591,4.464,4.464,0,0,1-3.083-.98A3.462,3.462,0,0,1,885.142,195.7Zm1.927-.245a2.149,2.149,0,0,0,.71,1.759,2.991,2.991,0,0,0,1.965.587,6.884,6.884,0,0,0,2.907-.614,9.1,9.1,0,0,0,2.485-1.705V190.9a30,30,0,0,0-3.924.88,10.919,10.919,0,0,0-2.471,1.058,3.687,3.687,0,0,0-1.3,1.228A2.76,2.76,0,0,0,887.069,195.454Z" transform="translate(-2.352)"/><path d="M901.521,199.154V178.427h1.927v20.727Z" transform="translate(-2.352)"/><path d="M812.5,232.815l1.231-1.122a6.573,6.573,0,0,0,1.948,1.56,5.648,5.648,0,0,0,2.645.575,5.093,5.093,0,0,0,2.871-.665,2.189,2.189,0,0,0,.971-1.926,2.029,2.029,0,0,0-.957-1.823,10.494,10.494,0,0,0-3.1-1.125l-2.213-.689a5.171,5.171,0,0,1-1.629-.8,3.18,3.18,0,0,1-.964-1.161,3.8,3.8,0,0,1-.321-1.652,3.4,3.4,0,0,1,.335-1.484,3.614,3.614,0,0,1,.977-1.239,4.828,4.828,0,0,1,1.566-.842,6.722,6.722,0,0,1,2.126-.307,7.844,7.844,0,0,1,3.2.574,7.517,7.517,0,0,1,2.269,1.56l-1.093,1.286a6.531,6.531,0,0,0-1.9-1.327,5.664,5.664,0,0,0-2.406-.494,5.182,5.182,0,0,0-1.477.182,2.861,2.861,0,0,0-.977.485,2,2,0,0,0-.561.687,1.828,1.828,0,0,0-.184.8,1.786,1.786,0,0,0,.832,1.595,8.973,8.973,0,0,0,2.77.991l2.416.736a5.545,5.545,0,0,1,1.769.869,3.461,3.461,0,0,1,1.055,1.289,4.421,4.421,0,0,1,.345,1.863,3.61,3.61,0,0,1-.437,1.793,4.1,4.1,0,0,1-1.19,1.331,5.334,5.334,0,0,1-1.8.818,9.2,9.2,0,0,1-2.311.272,7.732,7.732,0,0,1-3.466-.734A6.339,6.339,0,0,1,812.5,232.815Z" transform="translate(-2.352)"/><path d="M827.562,231.066V220.4h1.928v10.322a3.354,3.354,0,0,0,.7,2.331,2.912,2.912,0,0,0,2.242.759,5.2,5.2,0,0,0,2.645-.7,13.679,13.679,0,0,0,2.482-1.88V220.4h1.927v14.752h-1.927V232.83a11.248,11.248,0,0,1-2.468,1.852,6.3,6.3,0,0,1-3.138.786,4.315,4.315,0,0,1-3.3-1.162A4.56,4.56,0,0,1,827.562,231.066Z" transform="translate(-2.352)"/><path d="M843.969,240.759V220.4H845.9V222.5a10.211,10.211,0,0,1,2.079-1.662,5.379,5.379,0,0,1,2.857-.718,6.011,6.011,0,0,1,2.379.478,5.233,5.233,0,0,1,1.928,1.417,6.971,6.971,0,0,1,1.285,2.381,12.168,12.168,0,0,1,0,6.754,6.7,6.7,0,0,1-1.313,2.377,5.309,5.309,0,0,1-1.982,1.406,6.443,6.443,0,0,1-2.475.472,5.452,5.452,0,0,1-2.6-.625,8.954,8.954,0,0,1-2.161-1.618v7.6Zm1.927-9.368a9.089,9.089,0,0,0,2.2,1.793,4.838,4.838,0,0,0,2.392.616,4.545,4.545,0,0,0,1.812-.355,3.66,3.66,0,0,0,1.415-1.082,5.332,5.332,0,0,0,.923-1.861,9.664,9.664,0,0,0,.335-2.71,9.141,9.141,0,0,0-.349-2.669,5.334,5.334,0,0,0-.971-1.882,4,4,0,0,0-1.428-1.11,4.2,4.2,0,0,0-1.737-.362,4.615,4.615,0,0,0-2.447.657,10.627,10.627,0,0,0-2.147,1.78Z" transform="translate(-2.352)"/><path d="M859.719,227.757a9.156,9.156,0,0,1,.574-3.4,6.991,6.991,0,0,1,1.5-2.379,6.193,6.193,0,0,1,2.071-1.4,6.093,6.093,0,0,1,2.318-.465,5.807,5.807,0,0,1,2.4.492,5.219,5.219,0,0,1,1.9,1.456,7.152,7.152,0,0,1,1.265,2.406,10.809,10.809,0,0,1,.465,3.316v.369H861.646a7.24,7.24,0,0,0,.376,2.432,5.555,5.555,0,0,0,1,1.786,4.25,4.25,0,0,0,3.268,1.5,4.8,4.8,0,0,0,2.7-.694,6.726,6.726,0,0,0,1.894-2.012l1.2.961a7.756,7.756,0,0,1-2.4,2.447,6.444,6.444,0,0,1-3.52.9,6.313,6.313,0,0,1-2.461-.492,5.659,5.659,0,0,1-2.055-1.476,7.492,7.492,0,0,1-1.408-2.407A9.568,9.568,0,0,1,859.719,227.757Zm1.955-1.148h8.654a9.356,9.356,0,0,0-.376-1.932,4.94,4.94,0,0,0-.793-1.567,3.49,3.49,0,0,0-1.271-1.031,3.98,3.98,0,0,0-1.743-.365,4.115,4.115,0,0,0-1.545.3,4,4,0,0,0-1.347.9,5.1,5.1,0,0,0-1.025,1.519A7.052,7.052,0,0,0,861.674,226.609Z" transform="translate(-2.352)"/><path d="M875.852,235.154V220.4h1.927v2.936h.055a7.508,7.508,0,0,1,2.276-2.307,6.425,6.425,0,0,1,3.576-.916h.341l-.191,1.818h-.287a1.338,1.338,0,0,1-.192-.013.848.848,0,0,0-.109-.014,5.506,5.506,0,0,0-3.213.955,7,7,0,0,0-2.256,2.715v9.578Z" transform="translate(-2.352)"/><path d="M885.682,227.2v-1.654h6.3V227.2Z" transform="translate(-2.352)"/><path d="M782.343,252.984v-2.078h2.051v2.078Zm.054,18.17V256.4h1.928v14.752Z" transform="translate(-2.352)"/><path d="M788.96,271.154V256.4h1.928v2.324a10.919,10.919,0,0,1,2.467-1.839,6.462,6.462,0,0,1,3.166-.772,4.354,4.354,0,0,1,3.288,1.148,4.478,4.478,0,0,1,1.1,3.227v10.664h-1.928V260.845a3.292,3.292,0,0,0-.71-2.317,2.924,2.924,0,0,0-2.229-.759,5.409,5.409,0,0,0-2.659.684,12.239,12.239,0,0,0-2.5,1.886v10.815Z" transform="translate(-2.352)"/><path d="M803.657,258.056V256.4h2.584v-5.291h1.928V256.4H812v1.654h-3.828v9.267a2.909,2.909,0,0,0,.478,1.8,2.226,2.226,0,0,0,1.846.623h.827a2.5,2.5,0,0,0,.718-.1v1.531c-.227.036-.519.074-.875.11a10.308,10.308,0,0,1-1.039.054,4.251,4.251,0,0,1-3-.854,3.745,3.745,0,0,1-.882-2.782v-9.653Z" transform="translate(-2.352)"/><path d="M814.362,263.757a9.156,9.156,0,0,1,.575-3.4,6.974,6.974,0,0,1,1.5-2.379,6.206,6.206,0,0,1,2.072-1.4,6.088,6.088,0,0,1,2.317-.465,5.815,5.815,0,0,1,2.4.492,5.219,5.219,0,0,1,1.9,1.456,7.17,7.17,0,0,1,1.265,2.406,10.841,10.841,0,0,1,.464,3.316v.369H816.29a7.24,7.24,0,0,0,.376,2.432,5.555,5.555,0,0,0,1,1.786,4.249,4.249,0,0,0,3.267,1.5,4.806,4.806,0,0,0,2.7-.694,6.711,6.711,0,0,0,1.893-2.012l1.2.961a7.764,7.764,0,0,1-2.4,2.447,6.446,6.446,0,0,1-3.521.9,6.32,6.32,0,0,1-2.461-.492A5.655,5.655,0,0,1,816.3,269.5a7.474,7.474,0,0,1-1.408-2.407A9.544,9.544,0,0,1,814.362,263.757Zm1.955-1.148h8.655a9.489,9.489,0,0,0-.376-1.932,4.96,4.96,0,0,0-.793-1.567,3.493,3.493,0,0,0-1.272-1.031,3.98,3.98,0,0,0-1.743-.365,4.119,4.119,0,0,0-1.545.3,4.021,4.021,0,0,0-1.347.9,5.1,5.1,0,0,0-1.025,1.519A7.08,7.08,0,0,0,816.317,262.609Z" transform="translate(-2.352)"/><path d="M830.659,271.154V250.427h1.928v20.727Z" transform="translate(-2.352)"/><path d="M837.386,271.154V250.427h1.927v20.727Z" transform="translate(-2.352)"/><path d="M844.058,252.984v-2.078h2.05v2.078Zm.054,18.17V256.4h1.928v14.752Z" transform="translate(-2.352)"/><path d="M849.021,273.088a2.984,2.984,0,0,1,.724-2,4.834,4.834,0,0,1,2.024-1.342,1.9,1.9,0,0,1-1.286-1.881,1.848,1.848,0,0,1,.481-1.229,4.183,4.183,0,0,1,1.283-.969,4.764,4.764,0,0,1-1.654-1.77,5.459,5.459,0,0,1-.144-4.621,5.041,5.041,0,0,1,1.217-1.675,5.657,5.657,0,0,1,1.839-1.094,6.624,6.624,0,0,1,2.324-.4,6.693,6.693,0,0,1,2.349.4,5.485,5.485,0,0,1,1.843,1.121,6.982,6.982,0,0,1,1.569-.854,7.184,7.184,0,0,1,1.827-.485v1.927a8.833,8.833,0,0,0-1.343.108,5.666,5.666,0,0,0-1.344.377,4.6,4.6,0,0,1,.855,2.787,5.012,5.012,0,0,1-.448,2.149,4.922,4.922,0,0,1-1.215,1.636,5.279,5.279,0,0,1-1.819,1.034,7.007,7.007,0,0,1-2.274.359,6.639,6.639,0,0,1-2.379-.411,2.712,2.712,0,0,0-.854.526.974.974,0,0,0-.322.729.786.786,0,0,0,.459.728,5.425,5.425,0,0,0,1.72.4l3.222.246A8.13,8.13,0,0,1,861.544,270a2.976,2.976,0,0,1,1.312,2.625,3.269,3.269,0,0,1-.5,1.792,4.036,4.036,0,0,1-1.4,1.311,7.524,7.524,0,0,1-2.145.8,12.657,12.657,0,0,1-2.764.281,10.843,10.843,0,0,1-5.325-1A3.05,3.05,0,0,1,849.021,273.088Zm1.873-.24a1.952,1.952,0,0,0,1.278,1.8,9.827,9.827,0,0,0,4.067.625,7.652,7.652,0,0,0,3.541-.679,2.021,2.021,0,0,0,1.285-1.792,1.748,1.748,0,0,0-.917-1.6,7.592,7.592,0,0,0-3.091-.706l-2.921-.238-.782-.083a3.844,3.844,0,0,0-1.859,1.115A2.391,2.391,0,0,0,850.894,272.848Zm.984-11.387a3.549,3.549,0,0,0,1.08,2.72,4.656,4.656,0,0,0,5.776.016,3.5,3.5,0,0,0,1.06-2.679,3.82,3.82,0,0,0-1.032-2.824,4.631,4.631,0,0,0-5.831,0A3.7,3.7,0,0,0,851.878,261.461Z" transform="translate(-2.352)"/><path d="M865.071,263.757a9.156,9.156,0,0,1,.575-3.4,6.974,6.974,0,0,1,1.5-2.379,6.206,6.206,0,0,1,2.072-1.4,6.088,6.088,0,0,1,2.317-.465,5.815,5.815,0,0,1,2.4.492,5.219,5.219,0,0,1,1.9,1.456,7.17,7.17,0,0,1,1.265,2.406,10.841,10.841,0,0,1,.464,3.316v.369H867a7.24,7.24,0,0,0,.376,2.432,5.555,5.555,0,0,0,1,1.786,4.249,4.249,0,0,0,3.267,1.5,4.806,4.806,0,0,0,2.7-.694,6.711,6.711,0,0,0,1.893-2.012l1.2.961a7.764,7.764,0,0,1-2.4,2.447,6.446,6.446,0,0,1-3.521.9,6.32,6.32,0,0,1-2.461-.492,5.655,5.655,0,0,1-2.054-1.476,7.474,7.474,0,0,1-1.408-2.407A9.544,9.544,0,0,1,865.071,263.757Zm1.955-1.148h8.655a9.489,9.489,0,0,0-.376-1.932,4.96,4.96,0,0,0-.793-1.567,3.493,3.493,0,0,0-1.272-1.031,3.98,3.98,0,0,0-1.743-.365,4.119,4.119,0,0,0-1.545.3,4.021,4.021,0,0,0-1.347.9,5.1,5.1,0,0,0-1.025,1.519A7.08,7.08,0,0,0,867.026,262.609Z" transform="translate(-2.352)"/><path d="M881.2,271.154V256.4h1.928v2.324a10.9,10.9,0,0,1,2.468-1.839,6.455,6.455,0,0,1,3.165-.772,4.354,4.354,0,0,1,3.288,1.148,4.478,4.478,0,0,1,1.1,3.227v10.664h-1.927V260.845a3.292,3.292,0,0,0-.711-2.317,2.924,2.924,0,0,0-2.229-.759,5.409,5.409,0,0,0-2.659.684,12.239,12.239,0,0,0-2.5,1.886v10.815Z" transform="translate(-2.352)"/><path d="M896.626,263.785a9.508,9.508,0,0,1,.557-3.425,7.028,7.028,0,0,1,1.476-2.393,5.744,5.744,0,0,1,2.116-1.4,6.827,6.827,0,0,1,2.427-.451,6.246,6.246,0,0,1,2.085.321,5.035,5.035,0,0,1,1.579.882,6.194,6.194,0,0,1,1.162,1.292,8.453,8.453,0,0,1,.821,1.538l-1.641.725a6.013,6.013,0,0,0-1.565-2.3,3.713,3.713,0,0,0-2.5-.8,4.706,4.706,0,0,0-1.647.308,3.788,3.788,0,0,0-1.483,1.025,5.37,5.37,0,0,0-1.06,1.86,8.443,8.443,0,0,0-.4,2.8,8.721,8.721,0,0,0,.348,2.584,5.824,5.824,0,0,0,.951,1.887,4.141,4.141,0,0,0,1.428,1.176,4,4,0,0,0,1.8.41,3.927,3.927,0,0,0,2.5-.745,6.648,6.648,0,0,0,1.743-2.4l1.559.669a11.193,11.193,0,0,1-.984,1.7,5.775,5.775,0,0,1-1.265,1.305,5.631,5.631,0,0,1-1.613.827,6.423,6.423,0,0,1-2.017.294,6.021,6.021,0,0,1-2.42-.5,5.835,5.835,0,0,1-2.041-1.491,7.285,7.285,0,0,1-1.394-2.406A9.6,9.6,0,0,1,896.626,263.785Z" transform="translate(-2.352)"/><path d="M911.241,263.757a9.177,9.177,0,0,1,.574-3.4,6.991,6.991,0,0,1,1.5-2.379,6.2,6.2,0,0,1,2.072-1.4,6.088,6.088,0,0,1,2.317-.465,5.807,5.807,0,0,1,2.4.492,5.214,5.214,0,0,1,1.9,1.456,7.151,7.151,0,0,1,1.264,2.406,10.809,10.809,0,0,1,.465,3.316v.369H913.169a7.24,7.24,0,0,0,.376,2.432,5.555,5.555,0,0,0,1,1.786,4.249,4.249,0,0,0,3.267,1.5,4.806,4.806,0,0,0,2.7-.694,6.711,6.711,0,0,0,1.893-2.012l1.2.961a7.764,7.764,0,0,1-2.4,2.447,6.448,6.448,0,0,1-3.521.9,6.32,6.32,0,0,1-2.461-.492,5.655,5.655,0,0,1-2.054-1.476,7.474,7.474,0,0,1-1.408-2.407A9.544,9.544,0,0,1,911.241,263.757Zm1.955-1.148h8.655a9.489,9.489,0,0,0-.376-1.932,4.981,4.981,0,0,0-.793-1.567,3.493,3.493,0,0,0-1.272-1.031,3.98,3.98,0,0,0-1.743-.365,4.119,4.119,0,0,0-1.545.3,4.021,4.021,0,0,0-1.347.9,5.1,5.1,0,0,0-1.025,1.519A7.08,7.08,0,0,0,913.2,262.609Z" transform="translate(-2.352)"/><path d="M829.142,307.154l7.328-20.809h4.347l7.329,20.809h-4.622l-1.531-4.649h-7.055l-1.6,4.649Zm6.918-7.93h4.867l-2.379-7.054h-.055Z" transform="translate(-2.352)"/><path d="M848.856,302.461,852.3,300.4a6.361,6.361,0,0,0,2.331,2.625,6.058,6.058,0,0,0,3.261.912,5.1,5.1,0,0,0,2.6-.589,1.941,1.941,0,0,0,1-1.794,1.987,1.987,0,0,0-1.073-1.807,13.367,13.367,0,0,0-3.126-1.192l-2.729-.824a9.677,9.677,0,0,1-2.43-1.1,5.547,5.547,0,0,1-1.737-1.743,4.981,4.981,0,0,1-.663-2.69,5.94,5.94,0,0,1,.547-2.589,5.583,5.583,0,0,1,1.524-1.942,6.754,6.754,0,0,1,2.352-1.212,10.5,10.5,0,0,1,3.056-.416,10.935,10.935,0,0,1,2.871.346,9.623,9.623,0,0,1,2.283.931,8.158,8.158,0,0,1,1.764,1.352,11.488,11.488,0,0,1,1.312,1.6l-3.158,2.413a6.168,6.168,0,0,0-2.2-2.146,5.7,5.7,0,0,0-2.9-.8,3.63,3.63,0,0,0-2.221.583,1.828,1.828,0,0,0-.773,1.528,2,2,0,0,0,1.1,1.861,15.052,15.052,0,0,0,3.133,1.18l2.709.839a9.492,9.492,0,0,1,2.423,1.122,5.725,5.725,0,0,1,1.731,1.762,4.915,4.915,0,0,1,.659,2.643,5.942,5.942,0,0,1-.492,2.39,5.541,5.541,0,0,1-1.5,2,7.517,7.517,0,0,1-2.571,1.387,11.888,11.888,0,0,1-3.725.518,11.469,11.469,0,0,1-3.056-.381,9.6,9.6,0,0,1-2.461-1.051,8.229,8.229,0,0,1-1.9-1.6A10.7,10.7,0,0,1,848.856,302.461Z" transform="translate(-2.352)"/><path d="M869.569,307.154V286.427h4.512v20.727Z" transform="translate(-2.352)"/><path class="cls-6" d="M843.544,62.017,843.516,62a10.492,10.492,0,0,1-2.135-1.628c-.655-.651-1.871-1.879-2.711-2.729l-.688-.7a13.11,13.11,0,0,0-6.407-3.584,13.266,13.266,0,0,0-3-.354h0a13.254,13.254,0,0,0-1.336.07,5.415,5.415,0,0,1-6.264,2.844l-.1-.03.474-1.423.379-1.451a2.427,2.427,0,1,0,1.282-4.681l-.1-.03.474-1.423.379-1.451a5.448,5.448,0,0,1,4,4.6c.27-.013.541-.021.811-.021h.006a16.353,16.353,0,0,1,3,.284,16.077,16.077,0,0,1,8.54,4.544l.687.7c.835.844,2.043,2.064,2.692,2.71a7.479,7.479,0,0,0,5.219,2.157c.833,0,1.653,0,2.447,0h1.494v0h.53a9.872,9.872,0,1,0-2.016-19.53l-.008,0a9.7,9.7,0,0,0-1.016.261l-.919-2.856a12.781,12.781,0,0,1,1.935-.461l.008,0a12.574,12.574,0,0,1,4.308.058,6.726,6.726,0,0,1,1.827-5.9l.068-.068,2.1,2.14a3.74,3.74,0,0,0-.076,5.222,12.845,12.845,0,0,1,5.694,16.16H873.3a13.964,13.964,0,1,0,.067-27.927h-.819v-3h.558a13.271,13.271,0,0,0-14.585-7.092A15.031,15.031,0,0,0,845,14.431a14.872,14.872,0,0,0-7.921,5.244A19.89,19.89,0,0,0,817.09,38.8a12.8,12.8,0,0,1,13.937-1.042,3.729,3.729,0,0,0-.589-4.406l-.1-.1,1.115-1,.119-.131.888-.98.071.066a6.741,6.741,0,0,1,1.077,8.1,5.462,5.462,0,0,0,2.047.4h0a5.426,5.426,0,0,0,3.864-1.6l.122-.112.96,1.152,1.085,1.034a8.439,8.439,0,0,1-6.031,2.526h0a8.375,8.375,0,0,1-4.082-1.06,8.478,8.478,0,0,1-1.035-.672l0,0a9.879,9.879,0,1,0-.484,16.48l1.522,2.447.062.1c-.02.012-.042.022-.062.035a12.8,12.8,0,0,1-3.653,1.519,7.184,7.184,0,0,0,3.653,2.874,7.448,7.448,0,0,0,5.814-.283l1.3,2.694h0A10.522,10.522,0,0,0,843.518,62m24.069-31.459,1.433-.442.018.077h0a6.685,6.685,0,0,1,.073,3.155,9.042,9.042,0,0,1,1.64.476l.006,0a9.187,9.187,0,0,1,5.349,5.416h.012c.1.284.626,1.847,1.488,2.217a2.442,2.442,0,0,0,3.479-2.189.011.011,0,0,1,.011-.011l2.977-.018a.012.012,0,0,1,.012.012,5.418,5.418,0,0,1-7.421,5.046v5.9h-3v-7.8a6.174,6.174,0,0,0-2.907-5.246l-.006,0a6.119,6.119,0,0,0-3.024-.934,6.7,6.7,0,0,1-3.449,2.231l-.778-2.9a3.739,3.739,0,0,0,2.641-4.572l-.031-.142Zm-26.006-2.392-.314-1.466a6.706,6.706,0,0,1,7.23,2.7,13.335,13.335,0,0,1,2.663-1.621l.008,0a12.8,12.8,0,0,1,5.5-1.236,3.739,3.739,0,0,0,3.717-3.732l3-.023a6.739,6.739,0,0,1-1.862,4.654,13.307,13.307,0,0,1,3.9,2.344l-1.963,2.268a10.281,10.281,0,0,0-6.813-2.51h0a10.023,10.023,0,0,0-5.479,1.651l-.008,0a10.271,10.271,0,0,0-4.151,5.263l-2.835-.983a13.31,13.31,0,0,1,2.138-3.891,3.733,3.733,0,0,0-4.319-1.975l-.121.027ZM839.494,48.2l.016.016a3.737,3.737,0,0,0,6.376-2.644,3.7,3.7,0,0,0-1.064-2.61l-.074-.076,1-.929,1.1-1.217.074.071a6.684,6.684,0,0,1,1.972,4.762,6.773,6.773,0,0,1-.042.728,9.044,9.044,0,0,1,2.316.588l.008,0a9.166,9.166,0,0,1,5.787,8.506l-3,.033v-.033a6.156,6.156,0,0,0-2.787-5.147l-.008,0a6.121,6.121,0,0,0-3.359-1.01,6.8,6.8,0,0,1-.887,1.1,6.742,6.742,0,0,1-9.525,0Z" transform="translate(-2.352)"/><path class="cls-2" d="M873.3,55.428a13.964,13.964,0,1,0,.067-27.927h-.819v-3h.558a13.337,13.337,0,0,0-2.343-3.314V33.812a9.187,9.187,0,0,1,5.349,5.416h.012c.1.284.626,1.847,1.488,2.217a2.442,2.442,0,0,0,3.479-2.189.011.011,0,0,1,.011-.011l2.977-.018a.012.012,0,0,1,.012.012,5.418,5.418,0,0,1-7.421,5.046v5.9h-3v-7.8a6.174,6.174,0,0,0-2.907-5.246v18.3H873.3Z" transform="translate(-2.352)"/><path class="cls-3" d="M851.411,60.4h-.243V50.246a6.156,6.156,0,0,1,2.787,5.147v.033l3-.033a9.166,9.166,0,0,0-5.787-8.506v-6.01a9.87,9.87,0,1,1,2.016,19.53h-.53v0Zm4.065-22.525a6.726,6.726,0,0,1,1.827-5.9l.068-.068,2.1,2.14a3.74,3.74,0,0,0-.076,5.222,12.845,12.845,0,0,1,5.694,16.16h5.663v-18.3a6.119,6.119,0,0,0-3.024-.934,6.7,6.7,0,0,1-3.449,2.231l-.778-2.9a3.739,3.739,0,0,0,2.641-4.572l-.031-.142,1.474-.269,1.433-.442.018.077h0a6.685,6.685,0,0,1,.073,3.155,9.042,9.042,0,0,1,1.64.476V21.181a13.241,13.241,0,0,0-12.236-3.772,15.065,15.065,0,0,0-7.35-3.314V27.762a12.8,12.8,0,0,1,5.5-1.236,3.739,3.739,0,0,0,3.717-3.732l3-.023a6.739,6.739,0,0,1-1.862,4.654,13.307,13.307,0,0,1,3.9,2.344l-1.963,2.268a10.281,10.281,0,0,0-6.813-2.51h0a10.023,10.023,0,0,0-5.479,1.651v6.643a12.574,12.574,0,0,1,4.308.058Z" transform="translate(-2.352)"/><path class="cls-4" d="M843.516,62l.028.014L843.518,62a10.522,10.522,0,0,1-4.825,4.836l-1.3-2.694a7.448,7.448,0,0,1-5.814.283V60.036c.02-.013.042-.023.062-.035l-.062-.1V53.367a13.11,13.11,0,0,1,6.407,3.584l.688.7c.84.85,2.056,2.078,2.711,2.729A10.492,10.492,0,0,0,843.516,62Zm-10.982-30.8a6.741,6.741,0,0,1,1.077,8.1,5.462,5.462,0,0,0,2.047.4h0a5.426,5.426,0,0,0,3.864-1.6l.122-.112.96,1.152,1.085,1.034a8.439,8.439,0,0,1-6.031,2.526h0a8.375,8.375,0,0,1-4.082-1.06V50.3a16.077,16.077,0,0,1,8.54,4.544l.687.7c.835.844,2.043,2.064,2.692,2.71a7.479,7.479,0,0,0,5.219,2.157c.833,0,1.653,0,2.447,0V50.242a6.121,6.121,0,0,0-3.359-1.01,6.8,6.8,0,0,1-.887,1.1,6.742,6.742,0,0,1-9.525,0l2.105-2.138.016.016a3.737,3.737,0,0,0,6.376-2.644,3.7,3.7,0,0,0-1.064-2.61l-.074-.076,1-.929,1.1-1.217.074.071a6.684,6.684,0,0,1,1.972,4.762,6.773,6.773,0,0,1-.042.728,9.044,9.044,0,0,1,2.316.588V40.879a9.7,9.7,0,0,0-1.016.261l-.919-2.856a12.781,12.781,0,0,1,1.935-.461v-6.64a10.271,10.271,0,0,0-4.151,5.263l-2.835-.983a13.31,13.31,0,0,1,2.138-3.891,3.733,3.733,0,0,0-4.319-1.975l-.121.027-.291-1.471-.314-1.466a6.706,6.706,0,0,1,7.23,2.7,13.335,13.335,0,0,1,2.663-1.621V14.094a14.978,14.978,0,0,0-14.082,5.581,19.925,19.925,0,0,0-5.5.757V32.119l.888-.98Z" transform="translate(-2.352)"/><path d="M873.721,139.616l-53.845-10.5v-34.1a51.614,51.614,0,1,1,84.3-39.938V90.752h-8.861V100.6A11.537,11.537,0,0,1,883.8,112.128H873.721ZM822.876,126.65l47.845,9.325V109.128H883.8a8.534,8.534,0,0,0,8.524-8.524V87.752h8.861V55.088a48.619,48.619,0,1,0-78.869,38.048l.565.45Zm64.572-56.24-6.2-3.465,6.2-3.466-1.464-2.618L875.1,66.945l10.886,6.085ZM876.307,58.16q.555-.1,1.1-.235c.075-.019.151-.037.226-.057.416-.109.828-.23,1.234-.37a17,17,0,0,0,1.629-.657l.28-.133c.353-.171.7-.357,1.04-.552.223-.128.444-.259.661-.4q.25-.159.5-.327.524-.36,1.023-.761c.088-.071.174-.146.262-.22.372-.312.737-.637,1.085-.985l.009-.009A16.963,16.963,0,0,0,873.364,24.5h-.819v3h.819a13.964,13.964,0,1,1-.067,27.927h-8.206a12.845,12.845,0,0,0-5.694-16.16,3.74,3.74,0,0,1,.076-5.222l-2.1-2.14-.068.068a6.726,6.726,0,0,0-1.827,5.9,12.574,12.574,0,0,0-4.308-.058l-.008,0a12.781,12.781,0,0,0-1.935.461l.919,2.856a9.7,9.7,0,0,1,1.016-.261l.008,0a9.87,9.87,0,1,1,2.016,19.53h-.53v0H851.16c-.794,0-1.614,0-2.447,0a7.479,7.479,0,0,1-5.219-2.157c-.649-.646-1.857-1.866-2.692-2.71l-.687-.7a16.077,16.077,0,0,0-8.54-4.544,16.353,16.353,0,0,0-3-.284h-.006c-.27,0-.541.008-.811.021a5.448,5.448,0,0,0-4-4.6l-.379,1.451-.474,1.423.1.03a2.427,2.427,0,1,1-1.282,4.681l-.379,1.451-.474,1.423.1.03a5.415,5.415,0,0,0,6.264-2.844,13.254,13.254,0,0,1,1.336-.07h0a13.266,13.266,0,0,1,3,.354,13.11,13.11,0,0,1,6.407,3.584l.688.7c.84.85,2.056,2.078,2.711,2.729A10.492,10.492,0,0,0,843.516,62l.028.014a10.224,10.224,0,0,0,2.211.938l.018.006a10.609,10.609,0,0,0,2.376.406h0l.091.008c.077.008.154.018.231.02h0v.012H853.2c.325,0,.646-.017.965-.041l.259-.023c.277-.027.551-.061.822-.105l.138-.021q.48-.084.948-.2c.053-.013.105-.029.158-.043.281-.075.558-.158.831-.252l.111-.037a12.773,12.773,0,0,0,1.835-.813l.046-.025a13.019,13.019,0,0,0,1.705-1.111h0a13.311,13.311,0,0,0,1.213-1.061l.035-.034a12.878,12.878,0,0,0,1.076-1.21h10.03c.511,0,1.018-.028,1.521-.074.28-.026.556-.068.833-.107C875.917,58.218,876.113,58.2,876.307,58.16Zm-29.393-7.83a6.8,6.8,0,0,0,.887-1.1,6.121,6.121,0,0,1,3.359,1.01l.008,0a6.156,6.156,0,0,1,2.787,5.147v.033l3-.033a9.166,9.166,0,0,0-5.787-8.506l-.008,0a9.044,9.044,0,0,0-2.316-.588,6.773,6.773,0,0,0,.042-.728,6.684,6.684,0,0,0-1.972-4.762l-.074-.071-1.1,1.217-1,.929.074.076a3.734,3.734,0,0,1-.03,5.251,3.739,3.739,0,0,1-5.282,0l-.016-.016-2.105,2.138a6.742,6.742,0,0,0,9.525,0Zm16.589-14.8.778,2.9A6.7,6.7,0,0,0,867.73,36.2a6.119,6.119,0,0,1,3.024.934l.006,0a6.174,6.174,0,0,1,2.907,5.246v7.8h3v-5.9a5.418,5.418,0,0,0,7.421-5.046.012.012,0,0,0-.012-.012l-2.977.018a.011.011,0,0,0-.011.011,2.442,2.442,0,0,1-3.479,2.189c-.862-.37-1.39-1.933-1.488-2.217h-.012a9.187,9.187,0,0,0-5.349-5.416l-.006,0a9.042,9.042,0,0,0-1.64-.476,6.685,6.685,0,0,0-.073-3.155h0l-.018-.077-1.433.442-1.474.269.031.142A3.739,3.739,0,0,1,863.5,35.528ZM841.993,29.6a3.733,3.733,0,0,1,4.319,1.975,13.31,13.31,0,0,0-2.138,3.891l2.835.983a10.271,10.271,0,0,1,4.151-5.263l.008,0a10.023,10.023,0,0,1,5.479-1.651h0a10.281,10.281,0,0,1,6.813,2.51l1.963-2.268a13.307,13.307,0,0,0-3.9-2.344,6.739,6.739,0,0,0,1.862-4.654l-3,.023a3.739,3.739,0,0,1-3.717,3.732,12.8,12.8,0,0,0-5.5,1.236l-.008,0a13.335,13.335,0,0,0-2.663,1.621,6.706,6.706,0,0,0-7.23-2.7l.314,1.466.291,1.471Zm-4.6,34.549a7.448,7.448,0,0,1-5.814.283,7.184,7.184,0,0,1-3.653-2.874,12.8,12.8,0,0,0,3.653-1.519c.02-.013.042-.023.062-.035l-.062-.1-1.522-2.447a9.88,9.88,0,1,1,.484-16.48l0,0a8.478,8.478,0,0,0,1.035.672,8.375,8.375,0,0,0,4.082,1.06h0a8.439,8.439,0,0,0,6.031-2.526l-1.085-1.034-.96-1.152-.122.112a5.426,5.426,0,0,1-3.864,1.6h0a5.462,5.462,0,0,1-2.047-.4,6.741,6.741,0,0,0-1.077-8.1l-.071-.066-.888.98-.119.131-1.115,1,.1.1a3.729,3.729,0,0,1,.589,4.406A12.8,12.8,0,0,0,817.09,38.8a12.974,12.974,0,0,0-1.621,1.459l-.015.017a12.765,12.765,0,0,0-.836.991c-.058.075-.114.15-.17.226q-.269.369-.511.756c-.09.144-.18.287-.264.435s-.169.3-.25.456c-.133.257-.261.517-.378.784-.051.117-.1.236-.144.354-.1.251-.195.505-.28.763-.027.083-.058.164-.083.247-.1.334-.188.675-.263,1.02q-.03.133-.057.267c-.069.355-.125.714-.165,1.078-.008.072-.013.145-.02.217-.035.389-.059.782-.059,1.18v0a12.81,12.81,0,0,0,2.9,8.137c.06.073.128.138.189.209.205.24.411.479.632.7a12.85,12.85,0,0,0,9,3.823h0a10.521,10.521,0,0,0,.873,1.505l.076.1q.209.294.437.572c.044.053.089.1.133.157.142.165.29.327.442.483l.161.163c.19.185.386.364.591.535.047.04.092.083.141.122q.336.273.7.518c.148.1.3.194.456.287.067.041.13.085.2.125.021.012.043.02.064.032q.4.225.806.413l.1.047c.294.131.594.248.9.35l.059.022c.3.1.613.186.924.259l.075.019c.295.066.592.116.89.157.034.005.068.014.1.018l.056,0c.154.019.309.033.465.045s.342.02.514.025c.091,0,.183.009.275.009a10.531,10.531,0,0,0,1.135-.064h0l.06-.007h0a10.4,10.4,0,0,0,2.22-.506l.076-.026a10.469,10.469,0,0,0,.991-.412h0c.028-.013.057-.022.085-.035l0-.006h0Z" transform="translate(-2.352)"/></g></g></svg>